SplineFontDB: 3.2
FontName: picosans-bold-italic
FullName: picosans
FamilyName: picosans
Weight: Bold
Copyright: (c) 2025 pico cherry
Version: 0.1
ItalicAngle: 0
UnderlinePosition: 77
UnderlineWidth: 51
Ascent: 819
Descent: 205
InvalidEm: 0
LayerCount: 2
Layer: 0 1 "Back" 1
Layer: 1 1 "Fore" 0
XUID: [1021 123 -1791954757 10399722]
StyleMap: 0x0021
FSType: 0
OS2Version: 2
OS2_WeightWidthSlopeOnly: 0
OS2_UseTypoMetrics: 0
CreationTime: 1492570
ModificationTime: 1749798151
PfmFamily: 49
TTFWeight: 700
TTFWidth: 5
LineGap: 64
VLineGap: 0
Panose: 0 0 4 0 0 0 0 0 0 0
OS2TypoAscent: 704
OS2TypoAOffset: 0
OS2TypoDescent: -256
OS2TypoDOffset: 0
OS2TypoLinegap: 64
OS2WinAscent: 704
OS2WinAOffset: 0
OS2WinDescent: 256
OS2WinDOffset: 0
HheadAscent: 704
HheadAOffset: 0
HheadDescent: -256
HheadDOffset: 0
OS2SubXSize: 512
OS2SubYSize: 512
OS2SubXOff: 0
OS2SubYOff: -128
OS2SupXSize: 512
OS2SupYSize: 512
OS2SupXOff: 0
OS2SupYOff: 512
OS2StrikeYSize: 51
OS2StrikeYPos: 204
OS2CapHeight: 512
OS2XHeight: 384
OS2Vendor: 'YAL.'
OS2CodePages: 200101ff.cdff0000
OS2UnicodeRanges: 00000007.00000000.00000000.00000000
MarkAttachClasses: 1
DEI: 91125
ShortTable: maxp 16
  1
  0
  288
  180
  45
  0
  0
  2
  0
  0
  0
  0
  0
  0
  0
  0
EndShort
LangName: 1033 "" "" "Bold Italic" "picosans-bold-italic" "" "Version 0.1" "" "" "" "pico cherry" "16x8 sans serif pixel font" "" "" "(c) 2025 pico cherry" "https://picocherry.com" "" "picosans" "bold italic" "" "pico cherry"
Encoding: UnicodeBmp
UnicodeInterp: none
NameList: AGL For New Fonts
DisplaySize: -48
AntiAlias: 1
FitToEm: 0
WinInfo: 64 32 14
BeginPrivate: 0
EndPrivate
BeginChars: 65537 288

StartChar: exclam
Encoding: 33 33 3
Width: 512
GlyphClass: 1
Flags: W
LayerCount: 2
Fore
SplineSet
256 512 m 1,0,-1
 320 512 l 1,1,-1
 320 448 l 1,2,-1
 256 448 l 1,3,-1
 256 512 l 1,0,-1
320 512 m 1,4,-1
 384 512 l 1,5,-1
 384 448 l 1,6,-1
 320 448 l 1,7,-1
 320 512 l 1,4,-1
256 448 m 1,8,-1
 320 448 l 1,9,-1
 320 384 l 1,10,-1
 256 384 l 1,11,-1
 256 448 l 1,8,-1
320 448 m 1,12,-1
 384 448 l 1,13,-1
 384 384 l 1,14,-1
 320 384 l 1,15,-1
 320 448 l 1,12,-1
192 384 m 1,16,-1
 256 384 l 1,17,-1
 256 320 l 1,18,-1
 192 320 l 1,19,-1
 192 384 l 1,16,-1
256 384 m 1,20,-1
 320 384 l 1,21,-1
 320 320 l 1,22,-1
 256 320 l 1,23,-1
 256 384 l 1,20,-1
192 320 m 1,24,-1
 256 320 l 1,25,-1
 256 256 l 1,26,-1
 192 256 l 1,27,-1
 192 320 l 1,24,-1
256 320 m 1,28,-1
 320 320 l 1,29,-1
 320 256 l 1,30,-1
 256 256 l 1,31,-1
 256 320 l 1,28,-1
192 256 m 1,32,-1
 256 256 l 1,33,-1
 256 192 l 1,34,-1
 192 192 l 1,35,-1
 192 256 l 1,32,-1
256 256 m 1,36,-1
 320 256 l 1,37,-1
 320 192 l 1,38,-1
 256 192 l 1,39,-1
 256 256 l 1,36,-1
192 192 m 1,40,-1
 256 192 l 1,41,-1
 256 128 l 1,42,-1
 192 128 l 1,43,-1
 192 192 l 1,40,-1
256 192 m 1,44,-1
 320 192 l 1,45,-1
 320 128 l 1,46,-1
 256 128 l 1,47,-1
 256 192 l 1,44,-1
128 64 m 1,48,-1
 192 64 l 1,49,-1
 192 0 l 1,50,-1
 128 0 l 1,51,-1
 128 64 l 1,48,-1
192 64 m 1,52,-1
 256 64 l 1,53,-1
 256 0 l 1,54,-1
 192 0 l 1,55,-1
 192 64 l 1,52,-1
EndSplineSet
Validated: 5
EndChar

StartChar: quotedbl
Encoding: 34 34 4
Width: 512
GlyphClass: 1
Flags: W
LayerCount: 2
Fore
SplineSet
64 512 m 1,0,-1
 128 512 l 1,1,-1
 128 448 l 1,2,-1
 64 448 l 1,3,-1
 64 512 l 1,0,-1
128 512 m 1,4,-1
 192 512 l 1,5,-1
 192 448 l 1,6,-1
 128 448 l 1,7,-1
 128 512 l 1,4,-1
256 512 m 1,8,-1
 320 512 l 1,9,-1
 320 448 l 1,10,-1
 256 448 l 1,11,-1
 256 512 l 1,8,-1
320 512 m 1,12,-1
 384 512 l 1,13,-1
 384 448 l 1,14,-1
 320 448 l 1,15,-1
 320 512 l 1,12,-1
64 448 m 1,16,-1
 128 448 l 1,17,-1
 128 384 l 1,18,-1
 64 384 l 1,19,-1
 64 448 l 1,16,-1
128 448 m 1,20,-1
 192 448 l 1,21,-1
 192 384 l 1,22,-1
 128 384 l 1,23,-1
 128 448 l 1,20,-1
256 448 m 1,24,-1
 320 448 l 1,25,-1
 320 384 l 1,26,-1
 256 384 l 1,27,-1
 256 448 l 1,24,-1
320 448 m 1,28,-1
 384 448 l 1,29,-1
 384 384 l 1,30,-1
 320 384 l 1,31,-1
 320 448 l 1,28,-1
64 384 m 1,32,-1
 128 384 l 1,33,-1
 128 320 l 1,34,-1
 64 320 l 1,35,-1
 64 384 l 1,32,-1
128 384 m 1,36,-1
 192 384 l 1,37,-1
 192 320 l 1,38,-1
 128 320 l 1,39,-1
 128 384 l 1,36,-1
256 384 m 1,40,-1
 320 384 l 1,41,-1
 320 320 l 1,42,-1
 256 320 l 1,43,-1
 256 384 l 1,40,-1
320 384 m 1,44,-1
 384 384 l 1,45,-1
 384 320 l 1,46,-1
 320 320 l 1,47,-1
 320 384 l 1,44,-1
EndSplineSet
Validated: 5
EndChar

StartChar: numbersign
Encoding: 35 35 5
Width: 512
GlyphClass: 1
Flags: W
LayerCount: 2
Fore
SplineSet
128 384 m 1,0,-1
 192 384 l 1,1,-1
 192 320 l 1,2,-1
 128 320 l 1,3,-1
 128 384 l 1,0,-1
192 384 m 1,4,-1
 256 384 l 1,5,-1
 256 320 l 1,6,-1
 192 320 l 1,7,-1
 192 384 l 1,4,-1
320 384 m 1,8,-1
 384 384 l 1,9,-1
 384 320 l 1,10,-1
 320 320 l 1,11,-1
 320 384 l 1,8,-1
384 384 m 1,12,-1
 448 384 l 1,13,-1
 448 320 l 1,14,-1
 384 320 l 1,15,-1
 384 384 l 1,12,-1
64 320 m 1,16,-1
 128 320 l 1,17,-1
 128 256 l 1,18,-1
 64 256 l 1,19,-1
 64 320 l 1,16,-1
128 320 m 1,20,-1
 192 320 l 1,21,-1
 192 256 l 1,22,-1
 128 256 l 1,23,-1
 128 320 l 1,20,-1
192 320 m 1,24,-1
 256 320 l 1,25,-1
 256 256 l 1,26,-1
 192 256 l 1,27,-1
 192 320 l 1,24,-1
256 320 m 1,28,-1
 320 320 l 1,29,-1
 320 256 l 1,30,-1
 256 256 l 1,31,-1
 256 320 l 1,28,-1
320 320 m 1,32,-1
 384 320 l 1,33,-1
 384 256 l 1,34,-1
 320 256 l 1,35,-1
 320 320 l 1,32,-1
384 320 m 1,36,-1
 448 320 l 1,37,-1
 448 256 l 1,38,-1
 384 256 l 1,39,-1
 384 320 l 1,36,-1
448 320 m 1,40,-1
 512 320 l 1,41,-1
 512 256 l 1,42,-1
 448 256 l 1,43,-1
 448 320 l 1,40,-1
128 256 m 1,44,-1
 192 256 l 1,45,-1
 192 192 l 1,46,-1
 128 192 l 1,47,-1
 128 256 l 1,44,-1
192 256 m 1,48,-1
 256 256 l 1,49,-1
 256 192 l 1,50,-1
 192 192 l 1,51,-1
 192 256 l 1,48,-1
320 256 m 1,52,-1
 384 256 l 1,53,-1
 384 192 l 1,54,-1
 320 192 l 1,55,-1
 320 256 l 1,52,-1
384 256 m 1,56,-1
 448 256 l 1,57,-1
 448 192 l 1,58,-1
 384 192 l 1,59,-1
 384 256 l 1,56,-1
64 192 m 1,60,-1
 128 192 l 1,61,-1
 128 128 l 1,62,-1
 64 128 l 1,63,-1
 64 192 l 1,60,-1
128 192 m 1,64,-1
 192 192 l 1,65,-1
 192 128 l 1,66,-1
 128 128 l 1,67,-1
 128 192 l 1,64,-1
256 192 m 1,68,-1
 320 192 l 1,69,-1
 320 128 l 1,70,-1
 256 128 l 1,71,-1
 256 192 l 1,68,-1
320 192 m 1,72,-1
 384 192 l 1,73,-1
 384 128 l 1,74,-1
 320 128 l 1,75,-1
 320 192 l 1,72,-1
0 128 m 1,76,-1
 64 128 l 1,77,-1
 64 64 l 1,78,-1
 0 64 l 1,79,-1
 0 128 l 1,76,-1
64 128 m 1,80,-1
 128 128 l 1,81,-1
 128 64 l 1,82,-1
 64 64 l 1,83,-1
 64 128 l 1,80,-1
128 128 m 1,84,-1
 192 128 l 1,85,-1
 192 64 l 1,86,-1
 128 64 l 1,87,-1
 128 128 l 1,84,-1
192 128 m 1,88,-1
 256 128 l 1,89,-1
 256 64 l 1,90,-1
 192 64 l 1,91,-1
 192 128 l 1,88,-1
256 128 m 1,92,-1
 320 128 l 1,93,-1
 320 64 l 1,94,-1
 256 64 l 1,95,-1
 256 128 l 1,92,-1
320 128 m 1,96,-1
 384 128 l 1,97,-1
 384 64 l 1,98,-1
 320 64 l 1,99,-1
 320 128 l 1,96,-1
384 128 m 1,100,-1
 448 128 l 1,101,-1
 448 64 l 1,102,-1
 384 64 l 1,103,-1
 384 128 l 1,100,-1
64 64 m 1,104,-1
 128 64 l 1,105,-1
 128 0 l 1,106,-1
 64 0 l 1,107,-1
 64 64 l 1,104,-1
128 64 m 1,108,-1
 192 64 l 1,109,-1
 192 0 l 1,110,-1
 128 0 l 1,111,-1
 128 64 l 1,108,-1
256 64 m 1,112,-1
 320 64 l 1,113,-1
 320 0 l 1,114,-1
 256 0 l 1,115,-1
 256 64 l 1,112,-1
320 64 m 1,116,-1
 384 64 l 1,117,-1
 384 0 l 1,118,-1
 320 0 l 1,119,-1
 320 64 l 1,116,-1
EndSplineSet
Validated: 5
EndChar

StartChar: dollar
Encoding: 36 36 6
Width: 512
GlyphClass: 1
Flags: W
LayerCount: 2
Fore
SplineSet
320 512 m 1,0,-1
 384 512 l 1,1,-1
 384 448 l 1,2,-1
 320 448 l 1,3,-1
 320 512 l 1,0,-1
384 512 m 1,4,-1
 448 512 l 1,5,-1
 448 448 l 1,6,-1
 384 448 l 1,7,-1
 384 512 l 1,4,-1
192 448 m 1,8,-1
 256 448 l 1,9,-1
 256 384 l 1,10,-1
 192 384 l 1,11,-1
 192 448 l 1,8,-1
256 448 m 1,12,-1
 320 448 l 1,13,-1
 320 384 l 1,14,-1
 256 384 l 1,15,-1
 256 448 l 1,12,-1
320 448 m 1,16,-1
 384 448 l 1,17,-1
 384 384 l 1,18,-1
 320 384 l 1,19,-1
 320 448 l 1,16,-1
384 448 m 1,20,-1
 448 448 l 1,21,-1
 448 384 l 1,22,-1
 384 384 l 1,23,-1
 384 448 l 1,20,-1
448 448 m 1,24,-1
 512 448 l 1,25,-1
 512 384 l 1,26,-1
 448 384 l 1,27,-1
 448 448 l 1,24,-1
128 384 m 1,28,-1
 192 384 l 1,29,-1
 192 320 l 1,30,-1
 128 320 l 1,31,-1
 128 384 l 1,28,-1
192 384 m 1,32,-1
 256 384 l 1,33,-1
 256 320 l 1,34,-1
 192 320 l 1,35,-1
 192 384 l 1,32,-1
320 384 m 1,36,-1
 384 384 l 1,37,-1
 384 320 l 1,38,-1
 320 320 l 1,39,-1
 320 384 l 1,36,-1
384 384 m 1,40,-1
 448 384 l 1,41,-1
 448 320 l 1,42,-1
 384 320 l 1,43,-1
 384 384 l 1,40,-1
64 320 m 1,44,-1
 128 320 l 1,45,-1
 128 256 l 1,46,-1
 64 256 l 1,47,-1
 64 320 l 1,44,-1
128 320 m 1,48,-1
 192 320 l 1,49,-1
 192 256 l 1,50,-1
 128 256 l 1,51,-1
 128 320 l 1,48,-1
256 320 m 1,52,-1
 320 320 l 1,53,-1
 320 256 l 1,54,-1
 256 256 l 1,55,-1
 256 320 l 1,52,-1
320 320 m 1,56,-1
 384 320 l 1,57,-1
 384 256 l 1,58,-1
 320 256 l 1,59,-1
 320 320 l 1,56,-1
128 256 m 1,60,-1
 192 256 l 1,61,-1
 192 192 l 1,62,-1
 128 192 l 1,63,-1
 128 256 l 1,60,-1
192 256 m 1,64,-1
 256 256 l 1,65,-1
 256 192 l 1,66,-1
 192 192 l 1,67,-1
 192 256 l 1,64,-1
256 256 m 1,68,-1
 320 256 l 1,69,-1
 320 192 l 1,70,-1
 256 192 l 1,71,-1
 256 256 l 1,68,-1
320 256 m 1,72,-1
 384 256 l 1,73,-1
 384 192 l 1,74,-1
 320 192 l 1,75,-1
 320 256 l 1,72,-1
384 256 m 1,76,-1
 448 256 l 1,77,-1
 448 192 l 1,78,-1
 384 192 l 1,79,-1
 384 256 l 1,76,-1
192 192 m 1,80,-1
 256 192 l 1,81,-1
 256 128 l 1,82,-1
 192 128 l 1,83,-1
 192 192 l 1,80,-1
256 192 m 1,84,-1
 320 192 l 1,85,-1
 320 128 l 1,86,-1
 256 128 l 1,87,-1
 256 192 l 1,84,-1
384 192 m 1,88,-1
 448 192 l 1,89,-1
 448 128 l 1,90,-1
 384 128 l 1,91,-1
 384 192 l 1,88,-1
448 192 m 1,92,-1
 512 192 l 1,93,-1
 512 128 l 1,94,-1
 448 128 l 1,95,-1
 448 192 l 1,92,-1
0 128 m 1,96,-1
 64 128 l 1,97,-1
 64 64 l 1,98,-1
 0 64 l 1,99,-1
 0 128 l 1,96,-1
128 128 m 1,100,-1
 192 128 l 1,101,-1
 192 64 l 1,102,-1
 128 64 l 1,103,-1
 128 128 l 1,100,-1
192 128 m 1,104,-1
 256 128 l 1,105,-1
 256 64 l 1,106,-1
 192 64 l 1,107,-1
 192 128 l 1,104,-1
320 128 m 1,108,-1
 384 128 l 1,109,-1
 384 64 l 1,110,-1
 320 64 l 1,111,-1
 320 128 l 1,108,-1
384 128 m 1,112,-1
 448 128 l 1,113,-1
 448 64 l 1,114,-1
 384 64 l 1,115,-1
 384 128 l 1,112,-1
64 64 m 1,116,-1
 128 64 l 1,117,-1
 128 0 l 1,118,-1
 64 0 l 1,119,-1
 64 64 l 1,116,-1
128 64 m 1,120,-1
 192 64 l 1,121,-1
 192 0 l 1,122,-1
 128 0 l 1,123,-1
 128 64 l 1,120,-1
192 64 m 1,124,-1
 256 64 l 1,125,-1
 256 0 l 1,126,-1
 192 0 l 1,127,-1
 192 64 l 1,124,-1
256 64 m 1,128,-1
 320 64 l 1,129,-1
 320 0 l 1,130,-1
 256 0 l 1,131,-1
 256 64 l 1,128,-1
320 64 m 1,132,-1
 384 64 l 1,133,-1
 384 0 l 1,134,-1
 320 0 l 1,135,-1
 320 64 l 1,132,-1
128 0 m 1,136,-1
 192 0 l 1,137,-1
 192 -64 l 1,138,-1
 128 -64 l 1,139,-1
 128 0 l 1,136,-1
192 0 m 1,140,-1
 256 0 l 1,141,-1
 256 -64 l 1,142,-1
 192 -64 l 1,143,-1
 192 0 l 1,140,-1
EndSplineSet
Validated: 5
EndChar

StartChar: percent
Encoding: 37 37 7
Width: 512
GlyphClass: 1
Flags: W
LayerCount: 2
Fore
SplineSet
128 384 m 1,0,-1
 192 384 l 1,1,-1
 192 320 l 1,2,-1
 128 320 l 1,3,-1
 128 384 l 1,0,-1
192 384 m 1,4,-1
 256 384 l 1,5,-1
 256 320 l 1,6,-1
 192 320 l 1,7,-1
 192 384 l 1,4,-1
384 384 m 1,8,-1
 448 384 l 1,9,-1
 448 320 l 1,10,-1
 384 320 l 1,11,-1
 384 384 l 1,8,-1
448 384 m 1,12,-1
 512 384 l 1,13,-1
 512 320 l 1,14,-1
 448 320 l 1,15,-1
 448 384 l 1,12,-1
128 320 m 1,16,-1
 192 320 l 1,17,-1
 192 256 l 1,18,-1
 128 256 l 1,19,-1
 128 320 l 1,16,-1
192 320 m 1,20,-1
 256 320 l 1,21,-1
 256 256 l 1,22,-1
 192 256 l 1,23,-1
 192 320 l 1,20,-1
320 320 m 1,24,-1
 384 320 l 1,25,-1
 384 256 l 1,26,-1
 320 256 l 1,27,-1
 320 320 l 1,24,-1
384 320 m 1,28,-1
 448 320 l 1,29,-1
 448 256 l 1,30,-1
 384 256 l 1,31,-1
 384 320 l 1,28,-1
256 256 m 1,32,-1
 320 256 l 1,33,-1
 320 192 l 1,34,-1
 256 192 l 1,35,-1
 256 256 l 1,32,-1
320 256 m 1,36,-1
 384 256 l 1,37,-1
 384 192 l 1,38,-1
 320 192 l 1,39,-1
 320 256 l 1,36,-1
192 192 m 1,40,-1
 256 192 l 1,41,-1
 256 128 l 1,42,-1
 192 128 l 1,43,-1
 192 192 l 1,40,-1
256 192 m 1,44,-1
 320 192 l 1,45,-1
 320 128 l 1,46,-1
 256 128 l 1,47,-1
 256 192 l 1,44,-1
128 128 m 1,48,-1
 192 128 l 1,49,-1
 192 64 l 1,50,-1
 128 64 l 1,51,-1
 128 128 l 1,48,-1
192 128 m 1,52,-1
 256 128 l 1,53,-1
 256 64 l 1,54,-1
 192 64 l 1,55,-1
 192 128 l 1,52,-1
320 128 m 1,56,-1
 384 128 l 1,57,-1
 384 64 l 1,58,-1
 320 64 l 1,59,-1
 320 128 l 1,56,-1
384 128 m 1,60,-1
 448 128 l 1,61,-1
 448 64 l 1,62,-1
 384 64 l 1,63,-1
 384 128 l 1,60,-1
64 64 m 1,64,-1
 128 64 l 1,65,-1
 128 0 l 1,66,-1
 64 0 l 1,67,-1
 64 64 l 1,64,-1
128 64 m 1,68,-1
 192 64 l 1,69,-1
 192 0 l 1,70,-1
 128 0 l 1,71,-1
 128 64 l 1,68,-1
320 64 m 1,72,-1
 384 64 l 1,73,-1
 384 0 l 1,74,-1
 320 0 l 1,75,-1
 320 64 l 1,72,-1
384 64 m 1,76,-1
 448 64 l 1,77,-1
 448 0 l 1,78,-1
 384 0 l 1,79,-1
 384 64 l 1,76,-1
EndSplineSet
Validated: 5
EndChar

StartChar: ampersand
Encoding: 38 38 8
Width: 512
GlyphClass: 1
Flags: W
LayerCount: 2
Fore
SplineSet
256 512 m 1,0,-1
 320 512 l 1,1,-1
 320 448 l 1,2,-1
 256 448 l 1,3,-1
 256 512 l 1,0,-1
320 512 m 1,4,-1
 384 512 l 1,5,-1
 384 448 l 1,6,-1
 320 448 l 1,7,-1
 320 512 l 1,4,-1
192 448 m 1,8,-1
 256 448 l 1,9,-1
 256 384 l 1,10,-1
 192 384 l 1,11,-1
 192 448 l 1,8,-1
256 448 m 1,12,-1
 320 448 l 1,13,-1
 320 384 l 1,14,-1
 256 384 l 1,15,-1
 256 448 l 1,12,-1
384 448 m 1,16,-1
 448 448 l 1,17,-1
 448 384 l 1,18,-1
 384 384 l 1,19,-1
 384 448 l 1,16,-1
128 384 m 1,20,-1
 192 384 l 1,21,-1
 192 320 l 1,22,-1
 128 320 l 1,23,-1
 128 384 l 1,20,-1
192 384 m 1,24,-1
 256 384 l 1,25,-1
 256 320 l 1,26,-1
 192 320 l 1,27,-1
 192 384 l 1,24,-1
384 384 m 1,28,-1
 448 384 l 1,29,-1
 448 320 l 1,30,-1
 384 320 l 1,31,-1
 384 384 l 1,28,-1
128 320 m 1,32,-1
 192 320 l 1,33,-1
 192 256 l 1,34,-1
 128 256 l 1,35,-1
 128 320 l 1,32,-1
192 320 m 1,36,-1
 256 320 l 1,37,-1
 256 256 l 1,38,-1
 192 256 l 1,39,-1
 192 320 l 1,36,-1
320 320 m 1,40,-1
 384 320 l 1,41,-1
 384 256 l 1,42,-1
 320 256 l 1,43,-1
 320 320 l 1,40,-1
192 256 m 1,44,-1
 256 256 l 1,45,-1
 256 192 l 1,46,-1
 192 192 l 1,47,-1
 192 256 l 1,44,-1
256 256 m 1,48,-1
 320 256 l 1,49,-1
 320 192 l 1,50,-1
 256 192 l 1,51,-1
 256 256 l 1,48,-1
64 192 m 1,52,-1
 128 192 l 1,53,-1
 128 128 l 1,54,-1
 64 128 l 1,55,-1
 64 192 l 1,52,-1
128 192 m 1,56,-1
 192 192 l 1,57,-1
 192 128 l 1,58,-1
 128 128 l 1,59,-1
 128 192 l 1,56,-1
256 192 m 1,60,-1
 320 192 l 1,61,-1
 320 128 l 1,62,-1
 256 128 l 1,63,-1
 256 192 l 1,60,-1
384 192 m 1,64,-1
 448 192 l 1,65,-1
 448 128 l 1,66,-1
 384 128 l 1,67,-1
 384 192 l 1,64,-1
64 128 m 1,68,-1
 128 128 l 1,69,-1
 128 64 l 1,70,-1
 64 64 l 1,71,-1
 64 128 l 1,68,-1
128 128 m 1,72,-1
 192 128 l 1,73,-1
 192 64 l 1,74,-1
 128 64 l 1,75,-1
 128 128 l 1,72,-1
192 128 m 1,76,-1
 256 128 l 1,77,-1
 256 64 l 1,78,-1
 192 64 l 1,79,-1
 192 128 l 1,76,-1
320 128 m 1,80,-1
 384 128 l 1,81,-1
 384 64 l 1,82,-1
 320 64 l 1,83,-1
 320 128 l 1,80,-1
128 64 m 1,84,-1
 192 64 l 1,85,-1
 192 0 l 1,86,-1
 128 0 l 1,87,-1
 128 64 l 1,84,-1
192 64 m 1,88,-1
 256 64 l 1,89,-1
 256 0 l 1,90,-1
 192 0 l 1,91,-1
 192 64 l 1,88,-1
256 64 m 1,92,-1
 320 64 l 1,93,-1
 320 0 l 1,94,-1
 256 0 l 1,95,-1
 256 64 l 1,92,-1
384 64 m 1,96,-1
 448 64 l 1,97,-1
 448 0 l 1,98,-1
 384 0 l 1,99,-1
 384 64 l 1,96,-1
EndSplineSet
Validated: 5
EndChar

StartChar: quotesingle
Encoding: 39 39 9
Width: 512
GlyphClass: 1
Flags: W
LayerCount: 2
Fore
SplineSet
128 512 m 1,0,-1
 192 512 l 1,1,-1
 192 448 l 1,2,-1
 128 448 l 1,3,-1
 128 512 l 1,0,-1
192 512 m 1,4,-1
 256 512 l 1,5,-1
 256 448 l 1,6,-1
 192 448 l 1,7,-1
 192 512 l 1,4,-1
128 448 m 1,8,-1
 192 448 l 1,9,-1
 192 384 l 1,10,-1
 128 384 l 1,11,-1
 128 448 l 1,8,-1
192 448 m 1,12,-1
 256 448 l 1,13,-1
 256 384 l 1,14,-1
 192 384 l 1,15,-1
 192 448 l 1,12,-1
128 384 m 1,16,-1
 192 384 l 1,17,-1
 192 320 l 1,18,-1
 128 320 l 1,19,-1
 128 384 l 1,16,-1
192 384 m 1,20,-1
 256 384 l 1,21,-1
 256 320 l 1,22,-1
 192 320 l 1,23,-1
 192 384 l 1,20,-1
EndSplineSet
Validated: 5
EndChar

StartChar: parenleft
Encoding: 40 40 10
Width: 512
GlyphClass: 1
Flags: W
LayerCount: 2
Fore
SplineSet
320 512 m 1,0,-1
 384 512 l 1,1,-1
 384 448 l 1,2,-1
 320 448 l 1,3,-1
 320 512 l 1,0,-1
384 512 m 1,4,-1
 448 512 l 1,5,-1
 448 448 l 1,6,-1
 384 448 l 1,7,-1
 384 512 l 1,4,-1
256 448 m 1,8,-1
 320 448 l 1,9,-1
 320 384 l 1,10,-1
 256 384 l 1,11,-1
 256 448 l 1,8,-1
320 448 m 1,12,-1
 384 448 l 1,13,-1
 384 384 l 1,14,-1
 320 384 l 1,15,-1
 320 448 l 1,12,-1
192 384 m 1,16,-1
 256 384 l 1,17,-1
 256 320 l 1,18,-1
 192 320 l 1,19,-1
 192 384 l 1,16,-1
256 384 m 1,20,-1
 320 384 l 1,21,-1
 320 320 l 1,22,-1
 256 320 l 1,23,-1
 256 384 l 1,20,-1
128 320 m 1,24,-1
 192 320 l 1,25,-1
 192 256 l 1,26,-1
 128 256 l 1,27,-1
 128 320 l 1,24,-1
192 320 m 1,28,-1
 256 320 l 1,29,-1
 256 256 l 1,30,-1
 192 256 l 1,31,-1
 192 320 l 1,28,-1
128 256 m 1,32,-1
 192 256 l 1,33,-1
 192 192 l 1,34,-1
 128 192 l 1,35,-1
 128 256 l 1,32,-1
192 256 m 1,36,-1
 256 256 l 1,37,-1
 256 192 l 1,38,-1
 192 192 l 1,39,-1
 192 256 l 1,36,-1
128 192 m 1,40,-1
 192 192 l 1,41,-1
 192 128 l 1,42,-1
 128 128 l 1,43,-1
 128 192 l 1,40,-1
192 192 m 1,44,-1
 256 192 l 1,45,-1
 256 128 l 1,46,-1
 192 128 l 1,47,-1
 192 192 l 1,44,-1
128 128 m 1,48,-1
 192 128 l 1,49,-1
 192 64 l 1,50,-1
 128 64 l 1,51,-1
 128 128 l 1,48,-1
192 128 m 1,52,-1
 256 128 l 1,53,-1
 256 64 l 1,54,-1
 192 64 l 1,55,-1
 192 128 l 1,52,-1
192 64 m 1,56,-1
 256 64 l 1,57,-1
 256 0 l 1,58,-1
 192 0 l 1,59,-1
 192 64 l 1,56,-1
256 64 m 1,60,-1
 320 64 l 1,61,-1
 320 0 l 1,62,-1
 256 0 l 1,63,-1
 256 64 l 1,60,-1
256 0 m 1,64,-1
 320 0 l 1,65,-1
 320 -64 l 1,66,-1
 256 -64 l 1,67,-1
 256 0 l 1,64,-1
320 0 m 1,68,-1
 384 0 l 1,69,-1
 384 -64 l 1,70,-1
 320 -64 l 1,71,-1
 320 0 l 1,68,-1
EndSplineSet
Validated: 5
EndChar

StartChar: parenright
Encoding: 41 41 11
Width: 512
GlyphClass: 1
Flags: W
LayerCount: 2
Fore
SplineSet
192 512 m 1,0,-1
 256 512 l 1,1,-1
 256 448 l 1,2,-1
 192 448 l 1,3,-1
 192 512 l 1,0,-1
256 512 m 1,4,-1
 320 512 l 1,5,-1
 320 448 l 1,6,-1
 256 448 l 1,7,-1
 256 512 l 1,4,-1
256 448 m 1,8,-1
 320 448 l 1,9,-1
 320 384 l 1,10,-1
 256 384 l 1,11,-1
 256 448 l 1,8,-1
320 448 m 1,12,-1
 384 448 l 1,13,-1
 384 384 l 1,14,-1
 320 384 l 1,15,-1
 320 448 l 1,12,-1
320 384 m 1,16,-1
 384 384 l 1,17,-1
 384 320 l 1,18,-1
 320 320 l 1,19,-1
 320 384 l 1,16,-1
384 384 m 1,20,-1
 448 384 l 1,21,-1
 448 320 l 1,22,-1
 384 320 l 1,23,-1
 384 384 l 1,20,-1
320 320 m 1,24,-1
 384 320 l 1,25,-1
 384 256 l 1,26,-1
 320 256 l 1,27,-1
 320 320 l 1,24,-1
384 320 m 1,28,-1
 448 320 l 1,29,-1
 448 256 l 1,30,-1
 384 256 l 1,31,-1
 384 320 l 1,28,-1
320 256 m 1,32,-1
 384 256 l 1,33,-1
 384 192 l 1,34,-1
 320 192 l 1,35,-1
 320 256 l 1,32,-1
384 256 m 1,36,-1
 448 256 l 1,37,-1
 448 192 l 1,38,-1
 384 192 l 1,39,-1
 384 256 l 1,36,-1
320 192 m 1,40,-1
 384 192 l 1,41,-1
 384 128 l 1,42,-1
 320 128 l 1,43,-1
 320 192 l 1,40,-1
384 192 m 1,44,-1
 448 192 l 1,45,-1
 448 128 l 1,46,-1
 384 128 l 1,47,-1
 384 192 l 1,44,-1
256 128 m 1,48,-1
 320 128 l 1,49,-1
 320 64 l 1,50,-1
 256 64 l 1,51,-1
 256 128 l 1,48,-1
320 128 m 1,52,-1
 384 128 l 1,53,-1
 384 64 l 1,54,-1
 320 64 l 1,55,-1
 320 128 l 1,52,-1
192 64 m 1,56,-1
 256 64 l 1,57,-1
 256 0 l 1,58,-1
 192 0 l 1,59,-1
 192 64 l 1,56,-1
256 64 m 1,60,-1
 320 64 l 1,61,-1
 320 0 l 1,62,-1
 256 0 l 1,63,-1
 256 64 l 1,60,-1
128 0 m 1,64,-1
 192 0 l 1,65,-1
 192 -64 l 1,66,-1
 128 -64 l 1,67,-1
 128 0 l 1,64,-1
192 0 m 1,68,-1
 256 0 l 1,69,-1
 256 -64 l 1,70,-1
 192 -64 l 1,71,-1
 192 0 l 1,68,-1
EndSplineSet
Validated: 5
EndChar

StartChar: asterisk
Encoding: 42 42 12
Width: 512
GlyphClass: 1
Flags: W
LayerCount: 2
Fore
SplineSet
128 512 m 1,0,-1
 192 512 l 1,1,-1
 192 448 l 1,2,-1
 128 448 l 1,3,-1
 128 512 l 1,0,-1
256 512 m 1,4,-1
 320 512 l 1,5,-1
 320 448 l 1,6,-1
 256 448 l 1,7,-1
 256 512 l 1,4,-1
384 512 m 1,8,-1
 448 512 l 1,9,-1
 448 448 l 1,10,-1
 384 448 l 1,11,-1
 384 512 l 1,8,-1
192 448 m 1,12,-1
 256 448 l 1,13,-1
 256 384 l 1,14,-1
 192 384 l 1,15,-1
 192 448 l 1,12,-1
256 448 m 1,16,-1
 320 448 l 1,17,-1
 320 384 l 1,18,-1
 256 384 l 1,19,-1
 256 448 l 1,16,-1
320 448 m 1,20,-1
 384 448 l 1,21,-1
 384 384 l 1,22,-1
 320 384 l 1,23,-1
 320 448 l 1,20,-1
128 384 m 1,24,-1
 192 384 l 1,25,-1
 192 320 l 1,26,-1
 128 320 l 1,27,-1
 128 384 l 1,24,-1
192 384 m 1,28,-1
 256 384 l 1,29,-1
 256 320 l 1,30,-1
 192 320 l 1,31,-1
 192 384 l 1,28,-1
256 384 m 1,32,-1
 320 384 l 1,33,-1
 320 320 l 1,34,-1
 256 320 l 1,35,-1
 256 384 l 1,32,-1
64 320 m 1,36,-1
 128 320 l 1,37,-1
 128 256 l 1,38,-1
 64 256 l 1,39,-1
 64 320 l 1,36,-1
192 320 m 1,40,-1
 256 320 l 1,41,-1
 256 256 l 1,42,-1
 192 256 l 1,43,-1
 192 320 l 1,40,-1
320 320 m 1,44,-1
 384 320 l 1,45,-1
 384 256 l 1,46,-1
 320 256 l 1,47,-1
 320 320 l 1,44,-1
EndSplineSet
Validated: 5
EndChar

StartChar: plus
Encoding: 43 43 13
Width: 512
GlyphClass: 1
Flags: W
LayerCount: 2
Fore
SplineSet
192 384 m 1,0,-1
 256 384 l 1,1,-1
 256 320 l 1,2,-1
 192 320 l 1,3,-1
 192 384 l 1,0,-1
256 384 m 1,4,-1
 320 384 l 1,5,-1
 320 320 l 1,6,-1
 256 320 l 1,7,-1
 256 384 l 1,4,-1
192 320 m 1,8,-1
 256 320 l 1,9,-1
 256 256 l 1,10,-1
 192 256 l 1,11,-1
 192 320 l 1,8,-1
256 320 m 1,12,-1
 320 320 l 1,13,-1
 320 256 l 1,14,-1
 256 256 l 1,15,-1
 256 320 l 1,12,-1
64 256 m 1,16,-1
 128 256 l 1,17,-1
 128 192 l 1,18,-1
 64 192 l 1,19,-1
 64 256 l 1,16,-1
128 256 m 1,20,-1
 192 256 l 1,21,-1
 192 192 l 1,22,-1
 128 192 l 1,23,-1
 128 256 l 1,20,-1
192 256 m 1,24,-1
 256 256 l 1,25,-1
 256 192 l 1,26,-1
 192 192 l 1,27,-1
 192 256 l 1,24,-1
256 256 m 1,28,-1
 320 256 l 1,29,-1
 320 192 l 1,30,-1
 256 192 l 1,31,-1
 256 256 l 1,28,-1
320 256 m 1,32,-1
 384 256 l 1,33,-1
 384 192 l 1,34,-1
 320 192 l 1,35,-1
 320 256 l 1,32,-1
384 256 m 1,36,-1
 448 256 l 1,37,-1
 448 192 l 1,38,-1
 384 192 l 1,39,-1
 384 256 l 1,36,-1
64 192 m 1,40,-1
 128 192 l 1,41,-1
 128 128 l 1,42,-1
 64 128 l 1,43,-1
 64 192 l 1,40,-1
128 192 m 1,44,-1
 192 192 l 1,45,-1
 192 128 l 1,46,-1
 128 128 l 1,47,-1
 128 192 l 1,44,-1
192 192 m 1,48,-1
 256 192 l 1,49,-1
 256 128 l 1,50,-1
 192 128 l 1,51,-1
 192 192 l 1,48,-1
256 192 m 1,52,-1
 320 192 l 1,53,-1
 320 128 l 1,54,-1
 256 128 l 1,55,-1
 256 192 l 1,52,-1
320 192 m 1,56,-1
 384 192 l 1,57,-1
 384 128 l 1,58,-1
 320 128 l 1,59,-1
 320 192 l 1,56,-1
384 192 m 1,60,-1
 448 192 l 1,61,-1
 448 128 l 1,62,-1
 384 128 l 1,63,-1
 384 192 l 1,60,-1
192 128 m 1,64,-1
 256 128 l 1,65,-1
 256 64 l 1,66,-1
 192 64 l 1,67,-1
 192 128 l 1,64,-1
256 128 m 1,68,-1
 320 128 l 1,69,-1
 320 64 l 1,70,-1
 256 64 l 1,71,-1
 256 128 l 1,68,-1
192 64 m 1,72,-1
 256 64 l 1,73,-1
 256 0 l 1,74,-1
 192 0 l 1,75,-1
 192 64 l 1,72,-1
256 64 m 1,76,-1
 320 64 l 1,77,-1
 320 0 l 1,78,-1
 256 0 l 1,79,-1
 256 64 l 1,76,-1
EndSplineSet
Validated: 5
EndChar

StartChar: comma
Encoding: 44 44 14
Width: 512
GlyphClass: 1
Flags: W
LayerCount: 2
Fore
SplineSet
128 128 m 1,0,-1
 192 128 l 1,1,-1
 192 64 l 1,2,-1
 128 64 l 1,3,-1
 128 128 l 1,0,-1
192 128 m 1,4,-1
 256 128 l 1,5,-1
 256 64 l 1,6,-1
 192 64 l 1,7,-1
 192 128 l 1,4,-1
128 64 m 1,8,-1
 192 64 l 1,9,-1
 192 0 l 1,10,-1
 128 0 l 1,11,-1
 128 64 l 1,8,-1
192 64 m 1,12,-1
 256 64 l 1,13,-1
 256 0 l 1,14,-1
 192 0 l 1,15,-1
 192 64 l 1,12,-1
128 0 m 1,16,-1
 192 0 l 1,17,-1
 192 -64 l 1,18,-1
 128 -64 l 1,19,-1
 128 0 l 1,16,-1
64 -64 m 1,20,-1
 128 -64 l 1,21,-1
 128 -128 l 1,22,-1
 64 -128 l 1,23,-1
 64 -64 l 1,20,-1
EndSplineSet
Validated: 5
EndChar

StartChar: hyphen
Encoding: 45 45 15
Width: 512
GlyphClass: 1
Flags: W
LayerCount: 2
Fore
SplineSet
128 256 m 1,0,-1
 192 256 l 1,1,-1
 192 192 l 1,2,-1
 128 192 l 1,3,-1
 128 256 l 1,0,-1
192 256 m 1,4,-1
 256 256 l 1,5,-1
 256 192 l 1,6,-1
 192 192 l 1,7,-1
 192 256 l 1,4,-1
256 256 m 1,8,-1
 320 256 l 1,9,-1
 320 192 l 1,10,-1
 256 192 l 1,11,-1
 256 256 l 1,8,-1
320 256 m 1,12,-1
 384 256 l 1,13,-1
 384 192 l 1,14,-1
 320 192 l 1,15,-1
 320 256 l 1,12,-1
128 192 m 1,16,-1
 192 192 l 1,17,-1
 192 128 l 1,18,-1
 128 128 l 1,19,-1
 128 192 l 1,16,-1
192 192 m 1,20,-1
 256 192 l 1,21,-1
 256 128 l 1,22,-1
 192 128 l 1,23,-1
 192 192 l 1,20,-1
256 192 m 1,24,-1
 320 192 l 1,25,-1
 320 128 l 1,26,-1
 256 128 l 1,27,-1
 256 192 l 1,24,-1
320 192 m 1,28,-1
 384 192 l 1,29,-1
 384 128 l 1,30,-1
 320 128 l 1,31,-1
 320 192 l 1,28,-1
EndSplineSet
Validated: 5
EndChar

StartChar: period
Encoding: 46 46 16
Width: 512
GlyphClass: 1
Flags: W
LayerCount: 2
Fore
SplineSet
128 128 m 1,0,-1
 192 128 l 1,1,-1
 192 64 l 1,2,-1
 128 64 l 1,3,-1
 128 128 l 1,0,-1
192 128 m 1,4,-1
 256 128 l 1,5,-1
 256 64 l 1,6,-1
 192 64 l 1,7,-1
 192 128 l 1,4,-1
128 64 m 1,8,-1
 192 64 l 1,9,-1
 192 0 l 1,10,-1
 128 0 l 1,11,-1
 128 64 l 1,8,-1
192 64 m 1,12,-1
 256 64 l 1,13,-1
 256 0 l 1,14,-1
 192 0 l 1,15,-1
 192 64 l 1,12,-1
EndSplineSet
Validated: 5
EndChar

StartChar: slash
Encoding: 47 47 17
Width: 512
GlyphClass: 1
Flags: W
LayerCount: 2
Fore
SplineSet
320 512 m 1,0,-1
 384 512 l 1,1,-1
 384 448 l 1,2,-1
 320 448 l 1,3,-1
 320 512 l 1,0,-1
384 512 m 1,4,-1
 448 512 l 1,5,-1
 448 448 l 1,6,-1
 384 448 l 1,7,-1
 384 512 l 1,4,-1
320 448 m 1,8,-1
 384 448 l 1,9,-1
 384 384 l 1,10,-1
 320 384 l 1,11,-1
 320 448 l 1,8,-1
384 448 m 1,12,-1
 448 448 l 1,13,-1
 448 384 l 1,14,-1
 384 384 l 1,15,-1
 384 448 l 1,12,-1
256 384 m 1,16,-1
 320 384 l 1,17,-1
 320 320 l 1,18,-1
 256 320 l 1,19,-1
 256 384 l 1,16,-1
320 384 m 1,20,-1
 384 384 l 1,21,-1
 384 320 l 1,22,-1
 320 320 l 1,23,-1
 320 384 l 1,20,-1
256 320 m 1,24,-1
 320 320 l 1,25,-1
 320 256 l 1,26,-1
 256 256 l 1,27,-1
 256 320 l 1,24,-1
320 320 m 1,28,-1
 384 320 l 1,29,-1
 384 256 l 1,30,-1
 320 256 l 1,31,-1
 320 320 l 1,28,-1
192 256 m 1,32,-1
 256 256 l 1,33,-1
 256 192 l 1,34,-1
 192 192 l 1,35,-1
 192 256 l 1,32,-1
256 256 m 1,36,-1
 320 256 l 1,37,-1
 320 192 l 1,38,-1
 256 192 l 1,39,-1
 256 256 l 1,36,-1
128 192 m 1,40,-1
 192 192 l 1,41,-1
 192 128 l 1,42,-1
 128 128 l 1,43,-1
 128 192 l 1,40,-1
192 192 m 1,44,-1
 256 192 l 1,45,-1
 256 128 l 1,46,-1
 192 128 l 1,47,-1
 192 192 l 1,44,-1
64 128 m 1,48,-1
 128 128 l 1,49,-1
 128 64 l 1,50,-1
 64 64 l 1,51,-1
 64 128 l 1,48,-1
128 128 m 1,52,-1
 192 128 l 1,53,-1
 192 64 l 1,54,-1
 128 64 l 1,55,-1
 128 128 l 1,52,-1
64 64 m 1,56,-1
 128 64 l 1,57,-1
 128 0 l 1,58,-1
 64 0 l 1,59,-1
 64 64 l 1,56,-1
128 64 m 1,60,-1
 192 64 l 1,61,-1
 192 0 l 1,62,-1
 128 0 l 1,63,-1
 128 64 l 1,60,-1
EndSplineSet
Validated: 5
EndChar

StartChar: zero
Encoding: 48 48 18
Width: 512
GlyphClass: 1
Flags: W
LayerCount: 2
Fore
SplineSet
256 512 m 1,0,-1
 320 512 l 1,1,-1
 320 448 l 1,2,-1
 256 448 l 1,3,-1
 256 512 l 1,0,-1
320 512 m 1,4,-1
 384 512 l 1,5,-1
 384 448 l 1,6,-1
 320 448 l 1,7,-1
 320 512 l 1,4,-1
192 448 m 1,8,-1
 256 448 l 1,9,-1
 256 384 l 1,10,-1
 192 384 l 1,11,-1
 192 448 l 1,8,-1
256 448 m 1,12,-1
 320 448 l 1,13,-1
 320 384 l 1,14,-1
 256 384 l 1,15,-1
 256 448 l 1,12,-1
384 448 m 1,16,-1
 448 448 l 1,17,-1
 448 384 l 1,18,-1
 384 384 l 1,19,-1
 384 448 l 1,16,-1
128 384 m 1,20,-1
 192 384 l 1,21,-1
 192 320 l 1,22,-1
 128 320 l 1,23,-1
 128 384 l 1,20,-1
192 384 m 1,24,-1
 256 384 l 1,25,-1
 256 320 l 1,26,-1
 192 320 l 1,27,-1
 192 384 l 1,24,-1
448 384 m 1,28,-1
 512 384 l 1,29,-1
 512 320 l 1,30,-1
 448 320 l 1,31,-1
 448 384 l 1,28,-1
64 320 m 1,32,-1
 128 320 l 1,33,-1
 128 256 l 1,34,-1
 64 256 l 1,35,-1
 64 320 l 1,32,-1
128 320 m 1,36,-1
 192 320 l 1,37,-1
 192 256 l 1,38,-1
 128 256 l 1,39,-1
 128 320 l 1,36,-1
384 320 m 1,40,-1
 448 320 l 1,41,-1
 448 256 l 1,42,-1
 384 256 l 1,43,-1
 384 320 l 1,40,-1
64 256 m 1,44,-1
 128 256 l 1,45,-1
 128 192 l 1,46,-1
 64 192 l 1,47,-1
 64 256 l 1,44,-1
128 256 m 1,48,-1
 192 256 l 1,49,-1
 192 192 l 1,50,-1
 128 192 l 1,51,-1
 128 256 l 1,48,-1
384 256 m 1,52,-1
 448 256 l 1,53,-1
 448 192 l 1,54,-1
 384 192 l 1,55,-1
 384 256 l 1,52,-1
0 192 m 1,56,-1
 64 192 l 1,57,-1
 64 128 l 1,58,-1
 0 128 l 1,59,-1
 0 192 l 1,56,-1
64 192 m 1,60,-1
 128 192 l 1,61,-1
 128 128 l 1,62,-1
 64 128 l 1,63,-1
 64 192 l 1,60,-1
320 192 m 1,64,-1
 384 192 l 1,65,-1
 384 128 l 1,66,-1
 320 128 l 1,67,-1
 320 192 l 1,64,-1
64 128 m 1,68,-1
 128 128 l 1,69,-1
 128 64 l 1,70,-1
 64 64 l 1,71,-1
 64 128 l 1,68,-1
128 128 m 1,72,-1
 192 128 l 1,73,-1
 192 64 l 1,74,-1
 128 64 l 1,75,-1
 128 128 l 1,72,-1
256 128 m 1,76,-1
 320 128 l 1,77,-1
 320 64 l 1,78,-1
 256 64 l 1,79,-1
 256 128 l 1,76,-1
128 64 m 1,80,-1
 192 64 l 1,81,-1
 192 0 l 1,82,-1
 128 0 l 1,83,-1
 128 64 l 1,80,-1
192 64 m 1,84,-1
 256 64 l 1,85,-1
 256 0 l 1,86,-1
 192 0 l 1,87,-1
 192 64 l 1,84,-1
EndSplineSet
Validated: 5
EndChar

StartChar: one
Encoding: 49 49 19
Width: 512
GlyphClass: 1
Flags: W
LayerCount: 2
Fore
SplineSet
256 512 m 1,0,-1
 320 512 l 1,1,-1
 320 448 l 1,2,-1
 256 448 l 1,3,-1
 256 512 l 1,0,-1
320 512 m 1,4,-1
 384 512 l 1,5,-1
 384 448 l 1,6,-1
 320 448 l 1,7,-1
 320 512 l 1,4,-1
384 512 m 1,8,-1
 448 512 l 1,9,-1
 448 448 l 1,10,-1
 384 448 l 1,11,-1
 384 512 l 1,8,-1
192 448 m 1,12,-1
 256 448 l 1,13,-1
 256 384 l 1,14,-1
 192 384 l 1,15,-1
 192 448 l 1,12,-1
320 448 m 1,16,-1
 384 448 l 1,17,-1
 384 384 l 1,18,-1
 320 384 l 1,19,-1
 320 448 l 1,16,-1
384 448 m 1,20,-1
 448 448 l 1,21,-1
 448 384 l 1,22,-1
 384 384 l 1,23,-1
 384 448 l 1,20,-1
128 384 m 1,24,-1
 192 384 l 1,25,-1
 192 320 l 1,26,-1
 128 320 l 1,27,-1
 128 384 l 1,24,-1
320 384 m 1,28,-1
 384 384 l 1,29,-1
 384 320 l 1,30,-1
 320 320 l 1,31,-1
 320 384 l 1,28,-1
384 384 m 1,32,-1
 448 384 l 1,33,-1
 448 320 l 1,34,-1
 384 320 l 1,35,-1
 384 384 l 1,32,-1
256 320 m 1,36,-1
 320 320 l 1,37,-1
 320 256 l 1,38,-1
 256 256 l 1,39,-1
 256 320 l 1,36,-1
320 320 m 1,40,-1
 384 320 l 1,41,-1
 384 256 l 1,42,-1
 320 256 l 1,43,-1
 320 320 l 1,40,-1
256 256 m 1,44,-1
 320 256 l 1,45,-1
 320 192 l 1,46,-1
 256 192 l 1,47,-1
 256 256 l 1,44,-1
320 256 m 1,48,-1
 384 256 l 1,49,-1
 384 192 l 1,50,-1
 320 192 l 1,51,-1
 320 256 l 1,48,-1
192 192 m 1,52,-1
 256 192 l 1,53,-1
 256 128 l 1,54,-1
 192 128 l 1,55,-1
 192 192 l 1,52,-1
256 192 m 1,56,-1
 320 192 l 1,57,-1
 320 128 l 1,58,-1
 256 128 l 1,59,-1
 256 192 l 1,56,-1
192 128 m 1,60,-1
 256 128 l 1,61,-1
 256 64 l 1,62,-1
 192 64 l 1,63,-1
 192 128 l 1,60,-1
256 128 m 1,64,-1
 320 128 l 1,65,-1
 320 64 l 1,66,-1
 256 64 l 1,67,-1
 256 128 l 1,64,-1
64 64 m 1,68,-1
 128 64 l 1,69,-1
 128 0 l 1,70,-1
 64 0 l 1,71,-1
 64 64 l 1,68,-1
128 64 m 1,72,-1
 192 64 l 1,73,-1
 192 0 l 1,74,-1
 128 0 l 1,75,-1
 128 64 l 1,72,-1
192 64 m 1,76,-1
 256 64 l 1,77,-1
 256 0 l 1,78,-1
 192 0 l 1,79,-1
 192 64 l 1,76,-1
256 64 m 1,80,-1
 320 64 l 1,81,-1
 320 0 l 1,82,-1
 256 0 l 1,83,-1
 256 64 l 1,80,-1
320 64 m 1,84,-1
 384 64 l 1,85,-1
 384 0 l 1,86,-1
 320 0 l 1,87,-1
 320 64 l 1,84,-1
384 64 m 1,88,-1
 448 64 l 1,89,-1
 448 0 l 1,90,-1
 384 0 l 1,91,-1
 384 64 l 1,88,-1
EndSplineSet
Validated: 5
EndChar

StartChar: two
Encoding: 50 50 20
Width: 512
GlyphClass: 1
Flags: W
LayerCount: 2
Fore
SplineSet
192 512 m 1,0,-1
 256 512 l 1,1,-1
 256 448 l 1,2,-1
 192 448 l 1,3,-1
 192 512 l 1,0,-1
256 512 m 1,4,-1
 320 512 l 1,5,-1
 320 448 l 1,6,-1
 256 448 l 1,7,-1
 256 512 l 1,4,-1
320 512 m 1,8,-1
 384 512 l 1,9,-1
 384 448 l 1,10,-1
 320 448 l 1,11,-1
 320 512 l 1,8,-1
384 512 m 1,12,-1
 448 512 l 1,13,-1
 448 448 l 1,14,-1
 384 448 l 1,15,-1
 384 512 l 1,12,-1
128 448 m 1,16,-1
 192 448 l 1,17,-1
 192 384 l 1,18,-1
 128 384 l 1,19,-1
 128 448 l 1,16,-1
384 448 m 1,20,-1
 448 448 l 1,21,-1
 448 384 l 1,22,-1
 384 384 l 1,23,-1
 384 448 l 1,20,-1
448 448 m 1,24,-1
 512 448 l 1,25,-1
 512 384 l 1,26,-1
 448 384 l 1,27,-1
 448 448 l 1,24,-1
384 384 m 1,28,-1
 448 384 l 1,29,-1
 448 320 l 1,30,-1
 384 320 l 1,31,-1
 384 384 l 1,28,-1
448 384 m 1,32,-1
 512 384 l 1,33,-1
 512 320 l 1,34,-1
 448 320 l 1,35,-1
 448 384 l 1,32,-1
384 320 m 1,36,-1
 448 320 l 1,37,-1
 448 256 l 1,38,-1
 384 256 l 1,39,-1
 384 320 l 1,36,-1
320 256 m 1,40,-1
 384 256 l 1,41,-1
 384 192 l 1,42,-1
 320 192 l 1,43,-1
 320 256 l 1,40,-1
64 192 m 1,44,-1
 128 192 l 1,45,-1
 128 128 l 1,46,-1
 64 128 l 1,47,-1
 64 192 l 1,44,-1
128 192 m 1,48,-1
 192 192 l 1,49,-1
 192 128 l 1,50,-1
 128 128 l 1,51,-1
 128 192 l 1,48,-1
192 192 m 1,52,-1
 256 192 l 1,53,-1
 256 128 l 1,54,-1
 192 128 l 1,55,-1
 192 192 l 1,52,-1
256 192 m 1,56,-1
 320 192 l 1,57,-1
 320 128 l 1,58,-1
 256 128 l 1,59,-1
 256 192 l 1,56,-1
0 128 m 1,60,-1
 64 128 l 1,61,-1
 64 64 l 1,62,-1
 0 64 l 1,63,-1
 0 128 l 1,60,-1
64 128 m 1,64,-1
 128 128 l 1,65,-1
 128 64 l 1,66,-1
 64 64 l 1,67,-1
 64 128 l 1,64,-1
128 128 m 1,68,-1
 192 128 l 1,69,-1
 192 64 l 1,70,-1
 128 64 l 1,71,-1
 128 128 l 1,68,-1
0 64 m 1,72,-1
 64 64 l 1,73,-1
 64 0 l 1,74,-1
 0 0 l 1,75,-1
 0 64 l 1,72,-1
64 64 m 1,76,-1
 128 64 l 1,77,-1
 128 0 l 1,78,-1
 64 0 l 1,79,-1
 64 64 l 1,76,-1
128 64 m 1,80,-1
 192 64 l 1,81,-1
 192 0 l 1,82,-1
 128 0 l 1,83,-1
 128 64 l 1,80,-1
192 64 m 1,84,-1
 256 64 l 1,85,-1
 256 0 l 1,86,-1
 192 0 l 1,87,-1
 192 64 l 1,84,-1
256 64 m 1,88,-1
 320 64 l 1,89,-1
 320 0 l 1,90,-1
 256 0 l 1,91,-1
 256 64 l 1,88,-1
320 64 m 1,92,-1
 384 64 l 1,93,-1
 384 0 l 1,94,-1
 320 0 l 1,95,-1
 320 64 l 1,92,-1
EndSplineSet
Validated: 5
EndChar

StartChar: three
Encoding: 51 51 21
Width: 512
GlyphClass: 1
Flags: W
LayerCount: 2
Fore
SplineSet
192 512 m 1,0,-1
 256 512 l 1,1,-1
 256 448 l 1,2,-1
 192 448 l 1,3,-1
 192 512 l 1,0,-1
256 512 m 1,4,-1
 320 512 l 1,5,-1
 320 448 l 1,6,-1
 256 448 l 1,7,-1
 256 512 l 1,4,-1
320 512 m 1,8,-1
 384 512 l 1,9,-1
 384 448 l 1,10,-1
 320 448 l 1,11,-1
 320 512 l 1,8,-1
384 512 m 1,12,-1
 448 512 l 1,13,-1
 448 448 l 1,14,-1
 384 448 l 1,15,-1
 384 512 l 1,12,-1
128 448 m 1,16,-1
 192 448 l 1,17,-1
 192 384 l 1,18,-1
 128 384 l 1,19,-1
 128 448 l 1,16,-1
384 448 m 1,20,-1
 448 448 l 1,21,-1
 448 384 l 1,22,-1
 384 384 l 1,23,-1
 384 448 l 1,20,-1
448 448 m 1,24,-1
 512 448 l 1,25,-1
 512 384 l 1,26,-1
 448 384 l 1,27,-1
 448 448 l 1,24,-1
384 384 m 1,28,-1
 448 384 l 1,29,-1
 448 320 l 1,30,-1
 384 320 l 1,31,-1
 384 384 l 1,28,-1
448 384 m 1,32,-1
 512 384 l 1,33,-1
 512 320 l 1,34,-1
 448 320 l 1,35,-1
 448 384 l 1,32,-1
320 320 m 1,36,-1
 384 320 l 1,37,-1
 384 256 l 1,38,-1
 320 256 l 1,39,-1
 320 320 l 1,36,-1
384 320 m 1,40,-1
 448 320 l 1,41,-1
 448 256 l 1,42,-1
 384 256 l 1,43,-1
 384 320 l 1,40,-1
192 256 m 1,44,-1
 256 256 l 1,45,-1
 256 192 l 1,46,-1
 192 192 l 1,47,-1
 192 256 l 1,44,-1
256 256 m 1,48,-1
 320 256 l 1,49,-1
 320 192 l 1,50,-1
 256 192 l 1,51,-1
 256 256 l 1,48,-1
320 256 m 1,52,-1
 384 256 l 1,53,-1
 384 192 l 1,54,-1
 320 192 l 1,55,-1
 320 256 l 1,52,-1
256 192 m 1,56,-1
 320 192 l 1,57,-1
 320 128 l 1,58,-1
 256 128 l 1,59,-1
 256 192 l 1,56,-1
320 192 m 1,60,-1
 384 192 l 1,61,-1
 384 128 l 1,62,-1
 320 128 l 1,63,-1
 320 192 l 1,60,-1
0 128 m 1,64,-1
 64 128 l 1,65,-1
 64 64 l 1,66,-1
 0 64 l 1,67,-1
 0 128 l 1,64,-1
192 128 m 1,68,-1
 256 128 l 1,69,-1
 256 64 l 1,70,-1
 192 64 l 1,71,-1
 192 128 l 1,68,-1
256 128 m 1,72,-1
 320 128 l 1,73,-1
 320 64 l 1,74,-1
 256 64 l 1,75,-1
 256 128 l 1,72,-1
320 128 m 1,76,-1
 384 128 l 1,77,-1
 384 64 l 1,78,-1
 320 64 l 1,79,-1
 320 128 l 1,76,-1
64 64 m 1,80,-1
 128 64 l 1,81,-1
 128 0 l 1,82,-1
 64 0 l 1,83,-1
 64 64 l 1,80,-1
128 64 m 1,84,-1
 192 64 l 1,85,-1
 192 0 l 1,86,-1
 128 0 l 1,87,-1
 128 64 l 1,84,-1
192 64 m 1,88,-1
 256 64 l 1,89,-1
 256 0 l 1,90,-1
 192 0 l 1,91,-1
 192 64 l 1,88,-1
256 64 m 1,92,-1
 320 64 l 1,93,-1
 320 0 l 1,94,-1
 256 0 l 1,95,-1
 256 64 l 1,92,-1
EndSplineSet
Validated: 5
EndChar

StartChar: four
Encoding: 52 52 22
Width: 512
GlyphClass: 1
Flags: W
LayerCount: 2
Fore
SplineSet
256 512 m 1,0,-1
 320 512 l 1,1,-1
 320 448 l 1,2,-1
 256 448 l 1,3,-1
 256 512 l 1,0,-1
320 512 m 1,4,-1
 384 512 l 1,5,-1
 384 448 l 1,6,-1
 320 448 l 1,7,-1
 320 512 l 1,4,-1
256 448 m 1,8,-1
 320 448 l 1,9,-1
 320 384 l 1,10,-1
 256 384 l 1,11,-1
 256 448 l 1,8,-1
320 448 m 1,12,-1
 384 448 l 1,13,-1
 384 384 l 1,14,-1
 320 384 l 1,15,-1
 320 448 l 1,12,-1
192 384 m 1,16,-1
 256 384 l 1,17,-1
 256 320 l 1,18,-1
 192 320 l 1,19,-1
 192 384 l 1,16,-1
256 384 m 1,20,-1
 320 384 l 1,21,-1
 320 320 l 1,22,-1
 256 320 l 1,23,-1
 256 384 l 1,20,-1
128 320 m 1,24,-1
 192 320 l 1,25,-1
 192 256 l 1,26,-1
 128 256 l 1,27,-1
 128 320 l 1,24,-1
192 320 m 1,28,-1
 256 320 l 1,29,-1
 256 256 l 1,30,-1
 192 256 l 1,31,-1
 192 320 l 1,28,-1
320 320 m 1,32,-1
 384 320 l 1,33,-1
 384 256 l 1,34,-1
 320 256 l 1,35,-1
 320 320 l 1,32,-1
64 256 m 1,36,-1
 128 256 l 1,37,-1
 128 192 l 1,38,-1
 64 192 l 1,39,-1
 64 256 l 1,36,-1
128 256 m 1,40,-1
 192 256 l 1,41,-1
 192 192 l 1,42,-1
 128 192 l 1,43,-1
 128 256 l 1,40,-1
320 256 m 1,44,-1
 384 256 l 1,45,-1
 384 192 l 1,46,-1
 320 192 l 1,47,-1
 320 256 l 1,44,-1
0 192 m 1,48,-1
 64 192 l 1,49,-1
 64 128 l 1,50,-1
 0 128 l 1,51,-1
 0 192 l 1,48,-1
64 192 m 1,52,-1
 128 192 l 1,53,-1
 128 128 l 1,54,-1
 64 128 l 1,55,-1
 64 192 l 1,52,-1
256 192 m 1,56,-1
 320 192 l 1,57,-1
 320 128 l 1,58,-1
 256 128 l 1,59,-1
 256 192 l 1,56,-1
0 128 m 1,60,-1
 64 128 l 1,61,-1
 64 64 l 1,62,-1
 0 64 l 1,63,-1
 0 128 l 1,60,-1
64 128 m 1,64,-1
 128 128 l 1,65,-1
 128 64 l 1,66,-1
 64 64 l 1,67,-1
 64 128 l 1,64,-1
128 128 m 1,68,-1
 192 128 l 1,69,-1
 192 64 l 1,70,-1
 128 64 l 1,71,-1
 128 128 l 1,68,-1
192 128 m 1,72,-1
 256 128 l 1,73,-1
 256 64 l 1,74,-1
 192 64 l 1,75,-1
 192 128 l 1,72,-1
256 128 m 1,76,-1
 320 128 l 1,77,-1
 320 64 l 1,78,-1
 256 64 l 1,79,-1
 256 128 l 1,76,-1
320 128 m 1,80,-1
 384 128 l 1,81,-1
 384 64 l 1,82,-1
 320 64 l 1,83,-1
 320 128 l 1,80,-1
256 64 m 1,84,-1
 320 64 l 1,85,-1
 320 0 l 1,86,-1
 256 0 l 1,87,-1
 256 64 l 1,84,-1
EndSplineSet
Validated: 5
EndChar

StartChar: five
Encoding: 53 53 23
Width: 512
GlyphClass: 1
Flags: W
LayerCount: 2
Fore
SplineSet
192 512 m 1,0,-1
 256 512 l 1,1,-1
 256 448 l 1,2,-1
 192 448 l 1,3,-1
 192 512 l 1,0,-1
256 512 m 1,4,-1
 320 512 l 1,5,-1
 320 448 l 1,6,-1
 256 448 l 1,7,-1
 256 512 l 1,4,-1
320 512 m 1,8,-1
 384 512 l 1,9,-1
 384 448 l 1,10,-1
 320 448 l 1,11,-1
 320 512 l 1,8,-1
384 512 m 1,12,-1
 448 512 l 1,13,-1
 448 448 l 1,14,-1
 384 448 l 1,15,-1
 384 512 l 1,12,-1
128 448 m 1,16,-1
 192 448 l 1,17,-1
 192 384 l 1,18,-1
 128 384 l 1,19,-1
 128 448 l 1,16,-1
192 448 m 1,20,-1
 256 448 l 1,21,-1
 256 384 l 1,22,-1
 192 384 l 1,23,-1
 192 448 l 1,20,-1
128 384 m 1,24,-1
 192 384 l 1,25,-1
 192 320 l 1,26,-1
 128 320 l 1,27,-1
 128 384 l 1,24,-1
192 384 m 1,28,-1
 256 384 l 1,29,-1
 256 320 l 1,30,-1
 192 320 l 1,31,-1
 192 384 l 1,28,-1
64 320 m 1,32,-1
 128 320 l 1,33,-1
 128 256 l 1,34,-1
 64 256 l 1,35,-1
 64 320 l 1,32,-1
128 320 m 1,36,-1
 192 320 l 1,37,-1
 192 256 l 1,38,-1
 128 256 l 1,39,-1
 128 320 l 1,36,-1
64 256 m 1,40,-1
 128 256 l 1,41,-1
 128 192 l 1,42,-1
 64 192 l 1,43,-1
 64 256 l 1,40,-1
128 256 m 1,44,-1
 192 256 l 1,45,-1
 192 192 l 1,46,-1
 128 192 l 1,47,-1
 128 256 l 1,44,-1
192 256 m 1,48,-1
 256 256 l 1,49,-1
 256 192 l 1,50,-1
 192 192 l 1,51,-1
 192 256 l 1,48,-1
256 256 m 1,52,-1
 320 256 l 1,53,-1
 320 192 l 1,54,-1
 256 192 l 1,55,-1
 256 256 l 1,52,-1
320 256 m 1,56,-1
 384 256 l 1,57,-1
 384 192 l 1,58,-1
 320 192 l 1,59,-1
 320 256 l 1,56,-1
256 192 m 1,60,-1
 320 192 l 1,61,-1
 320 128 l 1,62,-1
 256 128 l 1,63,-1
 256 192 l 1,60,-1
320 192 m 1,64,-1
 384 192 l 1,65,-1
 384 128 l 1,66,-1
 320 128 l 1,67,-1
 320 192 l 1,64,-1
0 128 m 1,68,-1
 64 128 l 1,69,-1
 64 64 l 1,70,-1
 0 64 l 1,71,-1
 0 128 l 1,68,-1
256 128 m 1,72,-1
 320 128 l 1,73,-1
 320 64 l 1,74,-1
 256 64 l 1,75,-1
 256 128 l 1,72,-1
320 128 m 1,76,-1
 384 128 l 1,77,-1
 384 64 l 1,78,-1
 320 64 l 1,79,-1
 320 128 l 1,76,-1
64 64 m 1,80,-1
 128 64 l 1,81,-1
 128 0 l 1,82,-1
 64 0 l 1,83,-1
 64 64 l 1,80,-1
128 64 m 1,84,-1
 192 64 l 1,85,-1
 192 0 l 1,86,-1
 128 0 l 1,87,-1
 128 64 l 1,84,-1
192 64 m 1,88,-1
 256 64 l 1,89,-1
 256 0 l 1,90,-1
 192 0 l 1,91,-1
 192 64 l 1,88,-1
256 64 m 1,92,-1
 320 64 l 1,93,-1
 320 0 l 1,94,-1
 256 0 l 1,95,-1
 256 64 l 1,92,-1
EndSplineSet
Validated: 5
EndChar

StartChar: six
Encoding: 54 54 24
Width: 512
GlyphClass: 1
Flags: W
LayerCount: 2
Fore
SplineSet
256 512 m 1,0,-1
 320 512 l 1,1,-1
 320 448 l 1,2,-1
 256 448 l 1,3,-1
 256 512 l 1,0,-1
320 512 m 1,4,-1
 384 512 l 1,5,-1
 384 448 l 1,6,-1
 320 448 l 1,7,-1
 320 512 l 1,4,-1
192 448 m 1,8,-1
 256 448 l 1,9,-1
 256 384 l 1,10,-1
 192 384 l 1,11,-1
 192 448 l 1,8,-1
256 448 m 1,12,-1
 320 448 l 1,13,-1
 320 384 l 1,14,-1
 256 384 l 1,15,-1
 256 448 l 1,12,-1
128 384 m 1,16,-1
 192 384 l 1,17,-1
 192 320 l 1,18,-1
 128 320 l 1,19,-1
 128 384 l 1,16,-1
192 384 m 1,20,-1
 256 384 l 1,21,-1
 256 320 l 1,22,-1
 192 320 l 1,23,-1
 192 384 l 1,20,-1
64 320 m 1,24,-1
 128 320 l 1,25,-1
 128 256 l 1,26,-1
 64 256 l 1,27,-1
 64 320 l 1,24,-1
128 320 m 1,28,-1
 192 320 l 1,29,-1
 192 256 l 1,30,-1
 128 256 l 1,31,-1
 128 320 l 1,28,-1
64 256 m 1,32,-1
 128 256 l 1,33,-1
 128 192 l 1,34,-1
 64 192 l 1,35,-1
 64 256 l 1,32,-1
128 256 m 1,36,-1
 192 256 l 1,37,-1
 192 192 l 1,38,-1
 128 192 l 1,39,-1
 128 256 l 1,36,-1
192 256 m 1,40,-1
 256 256 l 1,41,-1
 256 192 l 1,42,-1
 192 192 l 1,43,-1
 192 256 l 1,40,-1
256 256 m 1,44,-1
 320 256 l 1,45,-1
 320 192 l 1,46,-1
 256 192 l 1,47,-1
 256 256 l 1,44,-1
320 256 m 1,48,-1
 384 256 l 1,49,-1
 384 192 l 1,50,-1
 320 192 l 1,51,-1
 320 256 l 1,48,-1
0 192 m 1,52,-1
 64 192 l 1,53,-1
 64 128 l 1,54,-1
 0 128 l 1,55,-1
 0 192 l 1,52,-1
64 192 m 1,56,-1
 128 192 l 1,57,-1
 128 128 l 1,58,-1
 64 128 l 1,59,-1
 64 192 l 1,56,-1
320 192 m 1,60,-1
 384 192 l 1,61,-1
 384 128 l 1,62,-1
 320 128 l 1,63,-1
 320 192 l 1,60,-1
0 128 m 1,64,-1
 64 128 l 1,65,-1
 64 64 l 1,66,-1
 0 64 l 1,67,-1
 0 128 l 1,64,-1
64 128 m 1,68,-1
 128 128 l 1,69,-1
 128 64 l 1,70,-1
 64 64 l 1,71,-1
 64 128 l 1,68,-1
320 128 m 1,72,-1
 384 128 l 1,73,-1
 384 64 l 1,74,-1
 320 64 l 1,75,-1
 320 128 l 1,72,-1
64 64 m 1,76,-1
 128 64 l 1,77,-1
 128 0 l 1,78,-1
 64 0 l 1,79,-1
 64 64 l 1,76,-1
128 64 m 1,80,-1
 192 64 l 1,81,-1
 192 0 l 1,82,-1
 128 0 l 1,83,-1
 128 64 l 1,80,-1
192 64 m 1,84,-1
 256 64 l 1,85,-1
 256 0 l 1,86,-1
 192 0 l 1,87,-1
 192 64 l 1,84,-1
256 64 m 1,88,-1
 320 64 l 1,89,-1
 320 0 l 1,90,-1
 256 0 l 1,91,-1
 256 64 l 1,88,-1
EndSplineSet
Validated: 5
EndChar

StartChar: seven
Encoding: 55 55 25
Width: 512
GlyphClass: 1
Flags: W
LayerCount: 2
Fore
SplineSet
128 512 m 1,0,-1
 192 512 l 1,1,-1
 192 448 l 1,2,-1
 128 448 l 1,3,-1
 128 512 l 1,0,-1
192 512 m 1,4,-1
 256 512 l 1,5,-1
 256 448 l 1,6,-1
 192 448 l 1,7,-1
 192 512 l 1,4,-1
256 512 m 1,8,-1
 320 512 l 1,9,-1
 320 448 l 1,10,-1
 256 448 l 1,11,-1
 256 512 l 1,8,-1
320 512 m 1,12,-1
 384 512 l 1,13,-1
 384 448 l 1,14,-1
 320 448 l 1,15,-1
 320 512 l 1,12,-1
384 512 m 1,16,-1
 448 512 l 1,17,-1
 448 448 l 1,18,-1
 384 448 l 1,19,-1
 384 512 l 1,16,-1
448 512 m 1,20,-1
 512 512 l 1,21,-1
 512 448 l 1,22,-1
 448 448 l 1,23,-1
 448 512 l 1,20,-1
384 448 m 1,24,-1
 448 448 l 1,25,-1
 448 384 l 1,26,-1
 384 384 l 1,27,-1
 384 448 l 1,24,-1
448 448 m 1,28,-1
 512 448 l 1,29,-1
 512 384 l 1,30,-1
 448 384 l 1,31,-1
 448 448 l 1,28,-1
384 384 m 1,32,-1
 448 384 l 1,33,-1
 448 320 l 1,34,-1
 384 320 l 1,35,-1
 384 384 l 1,32,-1
448 384 m 1,36,-1
 512 384 l 1,37,-1
 512 320 l 1,38,-1
 448 320 l 1,39,-1
 448 384 l 1,36,-1
320 320 m 1,40,-1
 384 320 l 1,41,-1
 384 256 l 1,42,-1
 320 256 l 1,43,-1
 320 320 l 1,40,-1
384 320 m 1,44,-1
 448 320 l 1,45,-1
 448 256 l 1,46,-1
 384 256 l 1,47,-1
 384 320 l 1,44,-1
256 256 m 1,48,-1
 320 256 l 1,49,-1
 320 192 l 1,50,-1
 256 192 l 1,51,-1
 256 256 l 1,48,-1
320 256 m 1,52,-1
 384 256 l 1,53,-1
 384 192 l 1,54,-1
 320 192 l 1,55,-1
 320 256 l 1,52,-1
192 192 m 1,56,-1
 256 192 l 1,57,-1
 256 128 l 1,58,-1
 192 128 l 1,59,-1
 192 192 l 1,56,-1
256 192 m 1,60,-1
 320 192 l 1,61,-1
 320 128 l 1,62,-1
 256 128 l 1,63,-1
 256 192 l 1,60,-1
128 128 m 1,64,-1
 192 128 l 1,65,-1
 192 64 l 1,66,-1
 128 64 l 1,67,-1
 128 128 l 1,64,-1
192 128 m 1,68,-1
 256 128 l 1,69,-1
 256 64 l 1,70,-1
 192 64 l 1,71,-1
 192 128 l 1,68,-1
128 64 m 1,72,-1
 192 64 l 1,73,-1
 192 0 l 1,74,-1
 128 0 l 1,75,-1
 128 64 l 1,72,-1
192 64 m 1,76,-1
 256 64 l 1,77,-1
 256 0 l 1,78,-1
 192 0 l 1,79,-1
 192 64 l 1,76,-1
EndSplineSet
Validated: 5
EndChar

StartChar: eight
Encoding: 56 56 26
Width: 512
GlyphClass: 1
Flags: W
LayerCount: 2
Fore
SplineSet
192 512 m 1,0,-1
 256 512 l 1,1,-1
 256 448 l 1,2,-1
 192 448 l 1,3,-1
 192 512 l 1,0,-1
256 512 m 1,4,-1
 320 512 l 1,5,-1
 320 448 l 1,6,-1
 256 448 l 1,7,-1
 256 512 l 1,4,-1
320 512 m 1,8,-1
 384 512 l 1,9,-1
 384 448 l 1,10,-1
 320 448 l 1,11,-1
 320 512 l 1,8,-1
384 512 m 1,12,-1
 448 512 l 1,13,-1
 448 448 l 1,14,-1
 384 448 l 1,15,-1
 384 512 l 1,12,-1
128 448 m 1,16,-1
 192 448 l 1,17,-1
 192 384 l 1,18,-1
 128 384 l 1,19,-1
 128 448 l 1,16,-1
192 448 m 1,20,-1
 256 448 l 1,21,-1
 256 384 l 1,22,-1
 192 384 l 1,23,-1
 192 448 l 1,20,-1
448 448 m 1,24,-1
 512 448 l 1,25,-1
 512 384 l 1,26,-1
 448 384 l 1,27,-1
 448 448 l 1,24,-1
128 384 m 1,28,-1
 192 384 l 1,29,-1
 192 320 l 1,30,-1
 128 320 l 1,31,-1
 128 384 l 1,28,-1
192 384 m 1,32,-1
 256 384 l 1,33,-1
 256 320 l 1,34,-1
 192 320 l 1,35,-1
 192 384 l 1,32,-1
448 384 m 1,36,-1
 512 384 l 1,37,-1
 512 320 l 1,38,-1
 448 320 l 1,39,-1
 448 384 l 1,36,-1
64 320 m 1,40,-1
 128 320 l 1,41,-1
 128 256 l 1,42,-1
 64 256 l 1,43,-1
 64 320 l 1,40,-1
128 320 m 1,44,-1
 192 320 l 1,45,-1
 192 256 l 1,46,-1
 128 256 l 1,47,-1
 128 320 l 1,44,-1
384 320 m 1,48,-1
 448 320 l 1,49,-1
 448 256 l 1,50,-1
 384 256 l 1,51,-1
 384 320 l 1,48,-1
64 256 m 1,52,-1
 128 256 l 1,53,-1
 128 192 l 1,54,-1
 64 192 l 1,55,-1
 64 256 l 1,52,-1
128 256 m 1,56,-1
 192 256 l 1,57,-1
 192 192 l 1,58,-1
 128 192 l 1,59,-1
 128 256 l 1,56,-1
192 256 m 1,60,-1
 256 256 l 1,61,-1
 256 192 l 1,62,-1
 192 192 l 1,63,-1
 192 256 l 1,60,-1
256 256 m 1,64,-1
 320 256 l 1,65,-1
 320 192 l 1,66,-1
 256 192 l 1,67,-1
 256 256 l 1,64,-1
320 256 m 1,68,-1
 384 256 l 1,69,-1
 384 192 l 1,70,-1
 320 192 l 1,71,-1
 320 256 l 1,68,-1
0 192 m 1,72,-1
 64 192 l 1,73,-1
 64 128 l 1,74,-1
 0 128 l 1,75,-1
 0 192 l 1,72,-1
256 192 m 1,76,-1
 320 192 l 1,77,-1
 320 128 l 1,78,-1
 256 128 l 1,79,-1
 256 192 l 1,76,-1
320 192 m 1,80,-1
 384 192 l 1,81,-1
 384 128 l 1,82,-1
 320 128 l 1,83,-1
 320 192 l 1,80,-1
0 128 m 1,84,-1
 64 128 l 1,85,-1
 64 64 l 1,86,-1
 0 64 l 1,87,-1
 0 128 l 1,84,-1
256 128 m 1,88,-1
 320 128 l 1,89,-1
 320 64 l 1,90,-1
 256 64 l 1,91,-1
 256 128 l 1,88,-1
320 128 m 1,92,-1
 384 128 l 1,93,-1
 384 64 l 1,94,-1
 320 64 l 1,95,-1
 320 128 l 1,92,-1
64 64 m 1,96,-1
 128 64 l 1,97,-1
 128 0 l 1,98,-1
 64 0 l 1,99,-1
 64 64 l 1,96,-1
128 64 m 1,100,-1
 192 64 l 1,101,-1
 192 0 l 1,102,-1
 128 0 l 1,103,-1
 128 64 l 1,100,-1
192 64 m 1,104,-1
 256 64 l 1,105,-1
 256 0 l 1,106,-1
 192 0 l 1,107,-1
 192 64 l 1,104,-1
256 64 m 1,108,-1
 320 64 l 1,109,-1
 320 0 l 1,110,-1
 256 0 l 1,111,-1
 256 64 l 1,108,-1
EndSplineSet
Validated: 5
EndChar

StartChar: nine
Encoding: 57 57 27
Width: 512
GlyphClass: 1
Flags: W
LayerCount: 2
Fore
SplineSet
192 512 m 1,0,-1
 256 512 l 1,1,-1
 256 448 l 1,2,-1
 192 448 l 1,3,-1
 192 512 l 1,0,-1
256 512 m 1,4,-1
 320 512 l 1,5,-1
 320 448 l 1,6,-1
 256 448 l 1,7,-1
 256 512 l 1,4,-1
320 512 m 1,8,-1
 384 512 l 1,9,-1
 384 448 l 1,10,-1
 320 448 l 1,11,-1
 320 512 l 1,8,-1
384 512 m 1,12,-1
 448 512 l 1,13,-1
 448 448 l 1,14,-1
 384 448 l 1,15,-1
 384 512 l 1,12,-1
128 448 m 1,16,-1
 192 448 l 1,17,-1
 192 384 l 1,18,-1
 128 384 l 1,19,-1
 128 448 l 1,16,-1
384 448 m 1,20,-1
 448 448 l 1,21,-1
 448 384 l 1,22,-1
 384 384 l 1,23,-1
 384 448 l 1,20,-1
448 448 m 1,24,-1
 512 448 l 1,25,-1
 512 384 l 1,26,-1
 448 384 l 1,27,-1
 448 448 l 1,24,-1
128 384 m 1,28,-1
 192 384 l 1,29,-1
 192 320 l 1,30,-1
 128 320 l 1,31,-1
 128 384 l 1,28,-1
384 384 m 1,32,-1
 448 384 l 1,33,-1
 448 320 l 1,34,-1
 384 320 l 1,35,-1
 384 384 l 1,32,-1
448 384 m 1,36,-1
 512 384 l 1,37,-1
 512 320 l 1,38,-1
 448 320 l 1,39,-1
 448 384 l 1,36,-1
64 320 m 1,40,-1
 128 320 l 1,41,-1
 128 256 l 1,42,-1
 64 256 l 1,43,-1
 64 320 l 1,40,-1
320 320 m 1,44,-1
 384 320 l 1,45,-1
 384 256 l 1,46,-1
 320 256 l 1,47,-1
 320 320 l 1,44,-1
384 320 m 1,48,-1
 448 320 l 1,49,-1
 448 256 l 1,50,-1
 384 256 l 1,51,-1
 384 320 l 1,48,-1
128 256 m 1,52,-1
 192 256 l 1,53,-1
 192 192 l 1,54,-1
 128 192 l 1,55,-1
 128 256 l 1,52,-1
192 256 m 1,56,-1
 256 256 l 1,57,-1
 256 192 l 1,58,-1
 192 192 l 1,59,-1
 192 256 l 1,56,-1
256 256 m 1,60,-1
 320 256 l 1,61,-1
 320 192 l 1,62,-1
 256 192 l 1,63,-1
 256 256 l 1,60,-1
320 256 m 1,64,-1
 384 256 l 1,65,-1
 384 192 l 1,66,-1
 320 192 l 1,67,-1
 320 256 l 1,64,-1
384 256 m 1,68,-1
 448 256 l 1,69,-1
 448 192 l 1,70,-1
 384 192 l 1,71,-1
 384 256 l 1,68,-1
256 192 m 1,72,-1
 320 192 l 1,73,-1
 320 128 l 1,74,-1
 256 128 l 1,75,-1
 256 192 l 1,72,-1
320 192 m 1,76,-1
 384 192 l 1,77,-1
 384 128 l 1,78,-1
 320 128 l 1,79,-1
 320 192 l 1,76,-1
0 128 m 1,80,-1
 64 128 l 1,81,-1
 64 64 l 1,82,-1
 0 64 l 1,83,-1
 0 128 l 1,80,-1
256 128 m 1,84,-1
 320 128 l 1,85,-1
 320 64 l 1,86,-1
 256 64 l 1,87,-1
 256 128 l 1,84,-1
320 128 m 1,88,-1
 384 128 l 1,89,-1
 384 64 l 1,90,-1
 320 64 l 1,91,-1
 320 128 l 1,88,-1
64 64 m 1,92,-1
 128 64 l 1,93,-1
 128 0 l 1,94,-1
 64 0 l 1,95,-1
 64 64 l 1,92,-1
128 64 m 1,96,-1
 192 64 l 1,97,-1
 192 0 l 1,98,-1
 128 0 l 1,99,-1
 128 64 l 1,96,-1
192 64 m 1,100,-1
 256 64 l 1,101,-1
 256 0 l 1,102,-1
 192 0 l 1,103,-1
 192 64 l 1,100,-1
256 64 m 1,104,-1
 320 64 l 1,105,-1
 320 0 l 1,106,-1
 256 0 l 1,107,-1
 256 64 l 1,104,-1
EndSplineSet
Validated: 5
EndChar

StartChar: colon
Encoding: 58 58 28
Width: 512
GlyphClass: 1
Flags: W
LayerCount: 2
Fore
SplineSet
192 320 m 1,0,-1
 256 320 l 1,1,-1
 256 256 l 1,2,-1
 192 256 l 1,3,-1
 192 320 l 1,0,-1
256 320 m 1,4,-1
 320 320 l 1,5,-1
 320 256 l 1,6,-1
 256 256 l 1,7,-1
 256 320 l 1,4,-1
192 256 m 1,8,-1
 256 256 l 1,9,-1
 256 192 l 1,10,-1
 192 192 l 1,11,-1
 192 256 l 1,8,-1
256 256 m 1,12,-1
 320 256 l 1,13,-1
 320 192 l 1,14,-1
 256 192 l 1,15,-1
 256 256 l 1,12,-1
128 128 m 1,16,-1
 192 128 l 1,17,-1
 192 64 l 1,18,-1
 128 64 l 1,19,-1
 128 128 l 1,16,-1
192 128 m 1,20,-1
 256 128 l 1,21,-1
 256 64 l 1,22,-1
 192 64 l 1,23,-1
 192 128 l 1,20,-1
128 64 m 1,24,-1
 192 64 l 1,25,-1
 192 0 l 1,26,-1
 128 0 l 1,27,-1
 128 64 l 1,24,-1
192 64 m 1,28,-1
 256 64 l 1,29,-1
 256 0 l 1,30,-1
 192 0 l 1,31,-1
 192 64 l 1,28,-1
EndSplineSet
Validated: 5
EndChar

StartChar: semicolon
Encoding: 59 59 29
Width: 512
GlyphClass: 1
Flags: W
LayerCount: 2
Fore
SplineSet
192 320 m 1,0,-1
 256 320 l 1,1,-1
 256 256 l 1,2,-1
 192 256 l 1,3,-1
 192 320 l 1,0,-1
256 320 m 1,4,-1
 320 320 l 1,5,-1
 320 256 l 1,6,-1
 256 256 l 1,7,-1
 256 320 l 1,4,-1
192 256 m 1,8,-1
 256 256 l 1,9,-1
 256 192 l 1,10,-1
 192 192 l 1,11,-1
 192 256 l 1,8,-1
256 256 m 1,12,-1
 320 256 l 1,13,-1
 320 192 l 1,14,-1
 256 192 l 1,15,-1
 256 256 l 1,12,-1
128 64 m 1,16,-1
 192 64 l 1,17,-1
 192 0 l 1,18,-1
 128 0 l 1,19,-1
 128 64 l 1,16,-1
192 64 m 1,20,-1
 256 64 l 1,21,-1
 256 0 l 1,22,-1
 192 0 l 1,23,-1
 192 64 l 1,20,-1
128 0 m 1,24,-1
 192 0 l 1,25,-1
 192 -64 l 1,26,-1
 128 -64 l 1,27,-1
 128 0 l 1,24,-1
64 -64 m 1,28,-1
 128 -64 l 1,29,-1
 128 -128 l 1,30,-1
 64 -128 l 1,31,-1
 64 -64 l 1,28,-1
EndSplineSet
Validated: 5
EndChar

StartChar: less
Encoding: 60 60 30
Width: 512
GlyphClass: 1
Flags: W
LayerCount: 2
Fore
SplineSet
320 448 m 1,0,-1
 384 448 l 1,1,-1
 384 384 l 1,2,-1
 320 384 l 1,3,-1
 320 448 l 1,0,-1
384 448 m 1,4,-1
 448 448 l 1,5,-1
 448 384 l 1,6,-1
 384 384 l 1,7,-1
 384 448 l 1,4,-1
256 384 m 1,8,-1
 320 384 l 1,9,-1
 320 320 l 1,10,-1
 256 320 l 1,11,-1
 256 384 l 1,8,-1
320 384 m 1,12,-1
 384 384 l 1,13,-1
 384 320 l 1,14,-1
 320 320 l 1,15,-1
 320 384 l 1,12,-1
192 320 m 1,16,-1
 256 320 l 1,17,-1
 256 256 l 1,18,-1
 192 256 l 1,19,-1
 192 320 l 1,16,-1
256 320 m 1,20,-1
 320 320 l 1,21,-1
 320 256 l 1,22,-1
 256 256 l 1,23,-1
 256 320 l 1,20,-1
128 256 m 1,24,-1
 192 256 l 1,25,-1
 192 192 l 1,26,-1
 128 192 l 1,27,-1
 128 256 l 1,24,-1
192 256 m 1,28,-1
 256 256 l 1,29,-1
 256 192 l 1,30,-1
 192 192 l 1,31,-1
 192 256 l 1,28,-1
128 192 m 1,32,-1
 192 192 l 1,33,-1
 192 128 l 1,34,-1
 128 128 l 1,35,-1
 128 192 l 1,32,-1
192 192 m 1,36,-1
 256 192 l 1,37,-1
 256 128 l 1,38,-1
 192 128 l 1,39,-1
 192 192 l 1,36,-1
192 128 m 1,40,-1
 256 128 l 1,41,-1
 256 64 l 1,42,-1
 192 64 l 1,43,-1
 192 128 l 1,40,-1
256 128 m 1,44,-1
 320 128 l 1,45,-1
 320 64 l 1,46,-1
 256 64 l 1,47,-1
 256 128 l 1,44,-1
256 64 m 1,48,-1
 320 64 l 1,49,-1
 320 0 l 1,50,-1
 256 0 l 1,51,-1
 256 64 l 1,48,-1
320 64 m 1,52,-1
 384 64 l 1,53,-1
 384 0 l 1,54,-1
 320 0 l 1,55,-1
 320 64 l 1,52,-1
EndSplineSet
Validated: 5
EndChar

StartChar: equal
Encoding: 61 61 31
Width: 512
GlyphClass: 1
Flags: W
LayerCount: 2
Fore
SplineSet
128 320 m 1,0,-1
 192 320 l 1,1,-1
 192 256 l 1,2,-1
 128 256 l 1,3,-1
 128 320 l 1,0,-1
192 320 m 1,4,-1
 256 320 l 1,5,-1
 256 256 l 1,6,-1
 192 256 l 1,7,-1
 192 320 l 1,4,-1
256 320 m 1,8,-1
 320 320 l 1,9,-1
 320 256 l 1,10,-1
 256 256 l 1,11,-1
 256 320 l 1,8,-1
320 320 m 1,12,-1
 384 320 l 1,13,-1
 384 256 l 1,14,-1
 320 256 l 1,15,-1
 320 320 l 1,12,-1
384 320 m 1,16,-1
 448 320 l 1,17,-1
 448 256 l 1,18,-1
 384 256 l 1,19,-1
 384 320 l 1,16,-1
128 256 m 1,20,-1
 192 256 l 1,21,-1
 192 192 l 1,22,-1
 128 192 l 1,23,-1
 128 256 l 1,20,-1
192 256 m 1,24,-1
 256 256 l 1,25,-1
 256 192 l 1,26,-1
 192 192 l 1,27,-1
 192 256 l 1,24,-1
256 256 m 1,28,-1
 320 256 l 1,29,-1
 320 192 l 1,30,-1
 256 192 l 1,31,-1
 256 256 l 1,28,-1
320 256 m 1,32,-1
 384 256 l 1,33,-1
 384 192 l 1,34,-1
 320 192 l 1,35,-1
 320 256 l 1,32,-1
384 256 m 1,36,-1
 448 256 l 1,37,-1
 448 192 l 1,38,-1
 384 192 l 1,39,-1
 384 256 l 1,36,-1
64 128 m 1,40,-1
 128 128 l 1,41,-1
 128 64 l 1,42,-1
 64 64 l 1,43,-1
 64 128 l 1,40,-1
128 128 m 1,44,-1
 192 128 l 1,45,-1
 192 64 l 1,46,-1
 128 64 l 1,47,-1
 128 128 l 1,44,-1
192 128 m 1,48,-1
 256 128 l 1,49,-1
 256 64 l 1,50,-1
 192 64 l 1,51,-1
 192 128 l 1,48,-1
256 128 m 1,52,-1
 320 128 l 1,53,-1
 320 64 l 1,54,-1
 256 64 l 1,55,-1
 256 128 l 1,52,-1
320 128 m 1,56,-1
 384 128 l 1,57,-1
 384 64 l 1,58,-1
 320 64 l 1,59,-1
 320 128 l 1,56,-1
64 64 m 1,60,-1
 128 64 l 1,61,-1
 128 0 l 1,62,-1
 64 0 l 1,63,-1
 64 64 l 1,60,-1
128 64 m 1,64,-1
 192 64 l 1,65,-1
 192 0 l 1,66,-1
 128 0 l 1,67,-1
 128 64 l 1,64,-1
192 64 m 1,68,-1
 256 64 l 1,69,-1
 256 0 l 1,70,-1
 192 0 l 1,71,-1
 192 64 l 1,68,-1
256 64 m 1,72,-1
 320 64 l 1,73,-1
 320 0 l 1,74,-1
 256 0 l 1,75,-1
 256 64 l 1,72,-1
320 64 m 1,76,-1
 384 64 l 1,77,-1
 384 0 l 1,78,-1
 320 0 l 1,79,-1
 320 64 l 1,76,-1
EndSplineSet
Validated: 5
EndChar

StartChar: greater
Encoding: 62 62 32
Width: 512
GlyphClass: 1
Flags: W
LayerCount: 2
Fore
SplineSet
128 448 m 1,0,-1
 192 448 l 1,1,-1
 192 384 l 1,2,-1
 128 384 l 1,3,-1
 128 448 l 1,0,-1
192 448 m 1,4,-1
 256 448 l 1,5,-1
 256 384 l 1,6,-1
 192 384 l 1,7,-1
 192 448 l 1,4,-1
192 384 m 1,8,-1
 256 384 l 1,9,-1
 256 320 l 1,10,-1
 192 320 l 1,11,-1
 192 384 l 1,8,-1
256 384 m 1,12,-1
 320 384 l 1,13,-1
 320 320 l 1,14,-1
 256 320 l 1,15,-1
 256 384 l 1,12,-1
256 320 m 1,16,-1
 320 320 l 1,17,-1
 320 256 l 1,18,-1
 256 256 l 1,19,-1
 256 320 l 1,16,-1
320 320 m 1,20,-1
 384 320 l 1,21,-1
 384 256 l 1,22,-1
 320 256 l 1,23,-1
 320 320 l 1,20,-1
256 256 m 1,24,-1
 320 256 l 1,25,-1
 320 192 l 1,26,-1
 256 192 l 1,27,-1
 256 256 l 1,24,-1
320 256 m 1,28,-1
 384 256 l 1,29,-1
 384 192 l 1,30,-1
 320 192 l 1,31,-1
 320 256 l 1,28,-1
192 192 m 1,32,-1
 256 192 l 1,33,-1
 256 128 l 1,34,-1
 192 128 l 1,35,-1
 192 192 l 1,32,-1
256 192 m 1,36,-1
 320 192 l 1,37,-1
 320 128 l 1,38,-1
 256 128 l 1,39,-1
 256 192 l 1,36,-1
128 128 m 1,40,-1
 192 128 l 1,41,-1
 192 64 l 1,42,-1
 128 64 l 1,43,-1
 128 128 l 1,40,-1
192 128 m 1,44,-1
 256 128 l 1,45,-1
 256 64 l 1,46,-1
 192 64 l 1,47,-1
 192 128 l 1,44,-1
64 64 m 1,48,-1
 128 64 l 1,49,-1
 128 0 l 1,50,-1
 64 0 l 1,51,-1
 64 64 l 1,48,-1
128 64 m 1,52,-1
 192 64 l 1,53,-1
 192 0 l 1,54,-1
 128 0 l 1,55,-1
 128 64 l 1,52,-1
EndSplineSet
Validated: 5
EndChar

StartChar: question
Encoding: 63 63 33
Width: 512
GlyphClass: 1
Flags: W
LayerCount: 2
Fore
SplineSet
192 512 m 1,0,-1
 256 512 l 1,1,-1
 256 448 l 1,2,-1
 192 448 l 1,3,-1
 192 512 l 1,0,-1
256 512 m 1,4,-1
 320 512 l 1,5,-1
 320 448 l 1,6,-1
 256 448 l 1,7,-1
 256 512 l 1,4,-1
320 512 m 1,8,-1
 384 512 l 1,9,-1
 384 448 l 1,10,-1
 320 448 l 1,11,-1
 320 512 l 1,8,-1
384 512 m 1,12,-1
 448 512 l 1,13,-1
 448 448 l 1,14,-1
 384 448 l 1,15,-1
 384 512 l 1,12,-1
128 448 m 1,16,-1
 192 448 l 1,17,-1
 192 384 l 1,18,-1
 128 384 l 1,19,-1
 128 448 l 1,16,-1
384 448 m 1,20,-1
 448 448 l 1,21,-1
 448 384 l 1,22,-1
 384 384 l 1,23,-1
 384 448 l 1,20,-1
448 448 m 1,24,-1
 512 448 l 1,25,-1
 512 384 l 1,26,-1
 448 384 l 1,27,-1
 448 448 l 1,24,-1
384 384 m 1,28,-1
 448 384 l 1,29,-1
 448 320 l 1,30,-1
 384 320 l 1,31,-1
 384 384 l 1,28,-1
448 384 m 1,32,-1
 512 384 l 1,33,-1
 512 320 l 1,34,-1
 448 320 l 1,35,-1
 448 384 l 1,32,-1
320 320 m 1,36,-1
 384 320 l 1,37,-1
 384 256 l 1,38,-1
 320 256 l 1,39,-1
 320 320 l 1,36,-1
384 320 m 1,40,-1
 448 320 l 1,41,-1
 448 256 l 1,42,-1
 384 256 l 1,43,-1
 384 320 l 1,40,-1
192 256 m 1,44,-1
 256 256 l 1,45,-1
 256 192 l 1,46,-1
 192 192 l 1,47,-1
 192 256 l 1,44,-1
256 256 m 1,48,-1
 320 256 l 1,49,-1
 320 192 l 1,50,-1
 256 192 l 1,51,-1
 256 256 l 1,48,-1
320 256 m 1,52,-1
 384 256 l 1,53,-1
 384 192 l 1,54,-1
 320 192 l 1,55,-1
 320 256 l 1,52,-1
128 192 m 1,56,-1
 192 192 l 1,57,-1
 192 128 l 1,58,-1
 128 128 l 1,59,-1
 128 192 l 1,56,-1
192 192 m 1,60,-1
 256 192 l 1,61,-1
 256 128 l 1,62,-1
 192 128 l 1,63,-1
 192 192 l 1,60,-1
128 64 m 1,64,-1
 192 64 l 1,65,-1
 192 0 l 1,66,-1
 128 0 l 1,67,-1
 128 64 l 1,64,-1
192 64 m 1,68,-1
 256 64 l 1,69,-1
 256 0 l 1,70,-1
 192 0 l 1,71,-1
 192 64 l 1,68,-1
EndSplineSet
Validated: 5
EndChar

StartChar: at
Encoding: 64 64 34
Width: 512
GlyphClass: 1
Flags: W
LayerCount: 2
Fore
SplineSet
192 512 m 1,0,-1
 256 512 l 1,1,-1
 256 448 l 1,2,-1
 192 448 l 1,3,-1
 192 512 l 1,0,-1
256 512 m 1,4,-1
 320 512 l 1,5,-1
 320 448 l 1,6,-1
 256 448 l 1,7,-1
 256 512 l 1,4,-1
320 512 m 1,8,-1
 384 512 l 1,9,-1
 384 448 l 1,10,-1
 320 448 l 1,11,-1
 320 512 l 1,8,-1
384 512 m 1,12,-1
 448 512 l 1,13,-1
 448 448 l 1,14,-1
 384 448 l 1,15,-1
 384 512 l 1,12,-1
128 448 m 1,16,-1
 192 448 l 1,17,-1
 192 384 l 1,18,-1
 128 384 l 1,19,-1
 128 448 l 1,16,-1
192 448 m 1,20,-1
 256 448 l 1,21,-1
 256 384 l 1,22,-1
 192 384 l 1,23,-1
 192 448 l 1,20,-1
256 448 m 1,24,-1
 320 448 l 1,25,-1
 320 384 l 1,26,-1
 256 384 l 1,27,-1
 256 448 l 1,24,-1
448 448 m 1,28,-1
 512 448 l 1,29,-1
 512 384 l 1,30,-1
 448 384 l 1,31,-1
 448 448 l 1,28,-1
128 384 m 1,32,-1
 192 384 l 1,33,-1
 192 320 l 1,34,-1
 128 320 l 1,35,-1
 128 384 l 1,32,-1
192 384 m 1,36,-1
 256 384 l 1,37,-1
 256 320 l 1,38,-1
 192 320 l 1,39,-1
 192 384 l 1,36,-1
448 384 m 1,40,-1
 512 384 l 1,41,-1
 512 320 l 1,42,-1
 448 320 l 1,43,-1
 448 384 l 1,40,-1
128 320 m 1,44,-1
 192 320 l 1,45,-1
 192 256 l 1,46,-1
 128 256 l 1,47,-1
 128 320 l 1,44,-1
192 320 m 1,48,-1
 256 320 l 1,49,-1
 256 256 l 1,50,-1
 192 256 l 1,51,-1
 192 320 l 1,48,-1
448 320 m 1,52,-1
 512 320 l 1,53,-1
 512 256 l 1,54,-1
 448 256 l 1,55,-1
 448 320 l 1,52,-1
64 256 m 1,56,-1
 128 256 l 1,57,-1
 128 192 l 1,58,-1
 64 192 l 1,59,-1
 64 256 l 1,56,-1
128 256 m 1,60,-1
 192 256 l 1,61,-1
 192 192 l 1,62,-1
 128 192 l 1,63,-1
 128 256 l 1,60,-1
192 256 m 1,64,-1
 256 256 l 1,65,-1
 256 192 l 1,66,-1
 192 192 l 1,67,-1
 192 256 l 1,64,-1
320 256 m 1,68,-1
 384 256 l 1,69,-1
 384 192 l 1,70,-1
 320 192 l 1,71,-1
 320 256 l 1,68,-1
384 256 m 1,72,-1
 448 256 l 1,73,-1
 448 192 l 1,74,-1
 384 192 l 1,75,-1
 384 256 l 1,72,-1
64 192 m 1,76,-1
 128 192 l 1,77,-1
 128 128 l 1,78,-1
 64 128 l 1,79,-1
 64 192 l 1,76,-1
128 192 m 1,80,-1
 192 192 l 1,81,-1
 192 128 l 1,82,-1
 128 128 l 1,83,-1
 128 192 l 1,80,-1
192 192 m 1,84,-1
 256 192 l 1,85,-1
 256 128 l 1,86,-1
 192 128 l 1,87,-1
 192 192 l 1,84,-1
256 192 m 1,88,-1
 320 192 l 1,89,-1
 320 128 l 1,90,-1
 256 128 l 1,91,-1
 256 192 l 1,88,-1
384 192 m 1,92,-1
 448 192 l 1,93,-1
 448 128 l 1,94,-1
 384 128 l 1,95,-1
 384 192 l 1,92,-1
64 128 m 1,96,-1
 128 128 l 1,97,-1
 128 64 l 1,98,-1
 64 64 l 1,99,-1
 64 128 l 1,96,-1
128 128 m 1,100,-1
 192 128 l 1,101,-1
 192 64 l 1,102,-1
 128 64 l 1,103,-1
 128 128 l 1,100,-1
192 128 m 1,104,-1
 256 128 l 1,105,-1
 256 64 l 1,106,-1
 192 64 l 1,107,-1
 192 128 l 1,104,-1
256 128 m 1,108,-1
 320 128 l 1,109,-1
 320 64 l 1,110,-1
 256 64 l 1,111,-1
 256 128 l 1,108,-1
320 128 m 1,112,-1
 384 128 l 1,113,-1
 384 64 l 1,114,-1
 320 64 l 1,115,-1
 320 128 l 1,112,-1
384 128 m 1,116,-1
 448 128 l 1,117,-1
 448 64 l 1,118,-1
 384 64 l 1,119,-1
 384 128 l 1,116,-1
64 64 m 1,120,-1
 128 64 l 1,121,-1
 128 0 l 1,122,-1
 64 0 l 1,123,-1
 64 64 l 1,120,-1
128 64 m 1,124,-1
 192 64 l 1,125,-1
 192 0 l 1,126,-1
 128 0 l 1,127,-1
 128 64 l 1,124,-1
64 0 m 1,128,-1
 128 0 l 1,129,-1
 128 -64 l 1,130,-1
 64 -64 l 1,131,-1
 64 0 l 1,128,-1
128 0 m 1,132,-1
 192 0 l 1,133,-1
 192 -64 l 1,134,-1
 128 -64 l 1,135,-1
 128 0 l 1,132,-1
128 -64 m 1,136,-1
 192 -64 l 1,137,-1
 192 -128 l 1,138,-1
 128 -128 l 1,139,-1
 128 -64 l 1,136,-1
192 -64 m 1,140,-1
 256 -64 l 1,141,-1
 256 -128 l 1,142,-1
 192 -128 l 1,143,-1
 192 -64 l 1,140,-1
256 -64 m 1,144,-1
 320 -64 l 1,145,-1
 320 -128 l 1,146,-1
 256 -128 l 1,147,-1
 256 -64 l 1,144,-1
320 -64 m 1,148,-1
 384 -64 l 1,149,-1
 384 -128 l 1,150,-1
 320 -128 l 1,151,-1
 320 -64 l 1,148,-1
EndSplineSet
Validated: 5
EndChar

StartChar: A
Encoding: 65 65 35
Width: 512
GlyphClass: 1
Flags: W
LayerCount: 2
Fore
SplineSet
192 512 m 1,0,-1
 256 512 l 1,1,-1
 256 448 l 1,2,-1
 192 448 l 1,3,-1
 192 512 l 1,0,-1
256 512 m 1,4,-1
 320 512 l 1,5,-1
 320 448 l 1,6,-1
 256 448 l 1,7,-1
 256 512 l 1,4,-1
320 512 m 1,8,-1
 384 512 l 1,9,-1
 384 448 l 1,10,-1
 320 448 l 1,11,-1
 320 512 l 1,8,-1
384 512 m 1,12,-1
 448 512 l 1,13,-1
 448 448 l 1,14,-1
 384 448 l 1,15,-1
 384 512 l 1,12,-1
128 448 m 1,16,-1
 192 448 l 1,17,-1
 192 384 l 1,18,-1
 128 384 l 1,19,-1
 128 448 l 1,16,-1
192 448 m 1,20,-1
 256 448 l 1,21,-1
 256 384 l 1,22,-1
 192 384 l 1,23,-1
 192 448 l 1,20,-1
448 448 m 1,24,-1
 512 448 l 1,25,-1
 512 384 l 1,26,-1
 448 384 l 1,27,-1
 448 448 l 1,24,-1
128 384 m 1,28,-1
 192 384 l 1,29,-1
 192 320 l 1,30,-1
 128 320 l 1,31,-1
 128 384 l 1,28,-1
192 384 m 1,32,-1
 256 384 l 1,33,-1
 256 320 l 1,34,-1
 192 320 l 1,35,-1
 192 384 l 1,32,-1
448 384 m 1,36,-1
 512 384 l 1,37,-1
 512 320 l 1,38,-1
 448 320 l 1,39,-1
 448 384 l 1,36,-1
64 320 m 1,40,-1
 128 320 l 1,41,-1
 128 256 l 1,42,-1
 64 256 l 1,43,-1
 64 320 l 1,40,-1
128 320 m 1,44,-1
 192 320 l 1,45,-1
 192 256 l 1,46,-1
 128 256 l 1,47,-1
 128 320 l 1,44,-1
384 320 m 1,48,-1
 448 320 l 1,49,-1
 448 256 l 1,50,-1
 384 256 l 1,51,-1
 384 320 l 1,48,-1
64 256 m 1,52,-1
 128 256 l 1,53,-1
 128 192 l 1,54,-1
 64 192 l 1,55,-1
 64 256 l 1,52,-1
128 256 m 1,56,-1
 192 256 l 1,57,-1
 192 192 l 1,58,-1
 128 192 l 1,59,-1
 128 256 l 1,56,-1
384 256 m 1,60,-1
 448 256 l 1,61,-1
 448 192 l 1,62,-1
 384 192 l 1,63,-1
 384 256 l 1,60,-1
64 192 m 1,64,-1
 128 192 l 1,65,-1
 128 128 l 1,66,-1
 64 128 l 1,67,-1
 64 192 l 1,64,-1
128 192 m 1,68,-1
 192 192 l 1,69,-1
 192 128 l 1,70,-1
 128 128 l 1,71,-1
 128 192 l 1,68,-1
192 192 m 1,72,-1
 256 192 l 1,73,-1
 256 128 l 1,74,-1
 192 128 l 1,75,-1
 192 192 l 1,72,-1
256 192 m 1,76,-1
 320 192 l 1,77,-1
 320 128 l 1,78,-1
 256 128 l 1,79,-1
 256 192 l 1,76,-1
320 192 m 1,80,-1
 384 192 l 1,81,-1
 384 128 l 1,82,-1
 320 128 l 1,83,-1
 320 192 l 1,80,-1
384 192 m 1,84,-1
 448 192 l 1,85,-1
 448 128 l 1,86,-1
 384 128 l 1,87,-1
 384 192 l 1,84,-1
0 128 m 1,88,-1
 64 128 l 1,89,-1
 64 64 l 1,90,-1
 0 64 l 1,91,-1
 0 128 l 1,88,-1
64 128 m 1,92,-1
 128 128 l 1,93,-1
 128 64 l 1,94,-1
 64 64 l 1,95,-1
 64 128 l 1,92,-1
320 128 m 1,96,-1
 384 128 l 1,97,-1
 384 64 l 1,98,-1
 320 64 l 1,99,-1
 320 128 l 1,96,-1
0 64 m 1,100,-1
 64 64 l 1,101,-1
 64 0 l 1,102,-1
 0 0 l 1,103,-1
 0 64 l 1,100,-1
64 64 m 1,104,-1
 128 64 l 1,105,-1
 128 0 l 1,106,-1
 64 0 l 1,107,-1
 64 64 l 1,104,-1
320 64 m 1,108,-1
 384 64 l 1,109,-1
 384 0 l 1,110,-1
 320 0 l 1,111,-1
 320 64 l 1,108,-1
EndSplineSet
Validated: 5
EndChar

StartChar: B
Encoding: 66 66 36
Width: 512
GlyphClass: 1
Flags: W
LayerCount: 2
Fore
SplineSet
128 512 m 1,0,-1
 192 512 l 1,1,-1
 192 448 l 1,2,-1
 128 448 l 1,3,-1
 128 512 l 1,0,-1
192 512 m 1,4,-1
 256 512 l 1,5,-1
 256 448 l 1,6,-1
 192 448 l 1,7,-1
 192 512 l 1,4,-1
256 512 m 1,8,-1
 320 512 l 1,9,-1
 320 448 l 1,10,-1
 256 448 l 1,11,-1
 256 512 l 1,8,-1
320 512 m 1,12,-1
 384 512 l 1,13,-1
 384 448 l 1,14,-1
 320 448 l 1,15,-1
 320 512 l 1,12,-1
384 512 m 1,16,-1
 448 512 l 1,17,-1
 448 448 l 1,18,-1
 384 448 l 1,19,-1
 384 512 l 1,16,-1
128 448 m 1,20,-1
 192 448 l 1,21,-1
 192 384 l 1,22,-1
 128 384 l 1,23,-1
 128 448 l 1,20,-1
192 448 m 1,24,-1
 256 448 l 1,25,-1
 256 384 l 1,26,-1
 192 384 l 1,27,-1
 192 448 l 1,24,-1
448 448 m 1,28,-1
 512 448 l 1,29,-1
 512 384 l 1,30,-1
 448 384 l 1,31,-1
 448 448 l 1,28,-1
128 384 m 1,32,-1
 192 384 l 1,33,-1
 192 320 l 1,34,-1
 128 320 l 1,35,-1
 128 384 l 1,32,-1
192 384 m 1,36,-1
 256 384 l 1,37,-1
 256 320 l 1,38,-1
 192 320 l 1,39,-1
 192 384 l 1,36,-1
448 384 m 1,40,-1
 512 384 l 1,41,-1
 512 320 l 1,42,-1
 448 320 l 1,43,-1
 448 384 l 1,40,-1
64 320 m 1,44,-1
 128 320 l 1,45,-1
 128 256 l 1,46,-1
 64 256 l 1,47,-1
 64 320 l 1,44,-1
128 320 m 1,48,-1
 192 320 l 1,49,-1
 192 256 l 1,50,-1
 128 256 l 1,51,-1
 128 320 l 1,48,-1
384 320 m 1,52,-1
 448 320 l 1,53,-1
 448 256 l 1,54,-1
 384 256 l 1,55,-1
 384 320 l 1,52,-1
64 256 m 1,56,-1
 128 256 l 1,57,-1
 128 192 l 1,58,-1
 64 192 l 1,59,-1
 64 256 l 1,56,-1
128 256 m 1,60,-1
 192 256 l 1,61,-1
 192 192 l 1,62,-1
 128 192 l 1,63,-1
 128 256 l 1,60,-1
384 256 m 1,64,-1
 448 256 l 1,65,-1
 448 192 l 1,66,-1
 384 192 l 1,67,-1
 384 256 l 1,64,-1
64 192 m 1,68,-1
 128 192 l 1,69,-1
 128 128 l 1,70,-1
 64 128 l 1,71,-1
 64 192 l 1,68,-1
128 192 m 1,72,-1
 192 192 l 1,73,-1
 192 128 l 1,74,-1
 128 128 l 1,75,-1
 128 192 l 1,72,-1
192 192 m 1,76,-1
 256 192 l 1,77,-1
 256 128 l 1,78,-1
 192 128 l 1,79,-1
 192 192 l 1,76,-1
256 192 m 1,80,-1
 320 192 l 1,81,-1
 320 128 l 1,82,-1
 256 128 l 1,83,-1
 256 192 l 1,80,-1
320 192 m 1,84,-1
 384 192 l 1,85,-1
 384 128 l 1,86,-1
 320 128 l 1,87,-1
 320 192 l 1,84,-1
0 128 m 1,88,-1
 64 128 l 1,89,-1
 64 64 l 1,90,-1
 0 64 l 1,91,-1
 0 128 l 1,88,-1
64 128 m 1,92,-1
 128 128 l 1,93,-1
 128 64 l 1,94,-1
 64 64 l 1,95,-1
 64 128 l 1,92,-1
320 128 m 1,96,-1
 384 128 l 1,97,-1
 384 64 l 1,98,-1
 320 64 l 1,99,-1
 320 128 l 1,96,-1
0 64 m 1,100,-1
 64 64 l 1,101,-1
 64 0 l 1,102,-1
 0 0 l 1,103,-1
 0 64 l 1,100,-1
64 64 m 1,104,-1
 128 64 l 1,105,-1
 128 0 l 1,106,-1
 64 0 l 1,107,-1
 64 64 l 1,104,-1
128 64 m 1,108,-1
 192 64 l 1,109,-1
 192 0 l 1,110,-1
 128 0 l 1,111,-1
 128 64 l 1,108,-1
192 64 m 1,112,-1
 256 64 l 1,113,-1
 256 0 l 1,114,-1
 192 0 l 1,115,-1
 192 64 l 1,112,-1
256 64 m 1,116,-1
 320 64 l 1,117,-1
 320 0 l 1,118,-1
 256 0 l 1,119,-1
 256 64 l 1,116,-1
EndSplineSet
Validated: 5
EndChar

StartChar: C
Encoding: 67 67 37
Width: 512
GlyphClass: 1
Flags: W
LayerCount: 2
Fore
SplineSet
192 512 m 1,0,-1
 256 512 l 1,1,-1
 256 448 l 1,2,-1
 192 448 l 1,3,-1
 192 512 l 1,0,-1
256 512 m 1,4,-1
 320 512 l 1,5,-1
 320 448 l 1,6,-1
 256 448 l 1,7,-1
 256 512 l 1,4,-1
320 512 m 1,8,-1
 384 512 l 1,9,-1
 384 448 l 1,10,-1
 320 448 l 1,11,-1
 320 512 l 1,8,-1
384 512 m 1,12,-1
 448 512 l 1,13,-1
 448 448 l 1,14,-1
 384 448 l 1,15,-1
 384 512 l 1,12,-1
128 448 m 1,16,-1
 192 448 l 1,17,-1
 192 384 l 1,18,-1
 128 384 l 1,19,-1
 128 448 l 1,16,-1
192 448 m 1,20,-1
 256 448 l 1,21,-1
 256 384 l 1,22,-1
 192 384 l 1,23,-1
 192 448 l 1,20,-1
448 448 m 1,24,-1
 512 448 l 1,25,-1
 512 384 l 1,26,-1
 448 384 l 1,27,-1
 448 448 l 1,24,-1
128 384 m 1,28,-1
 192 384 l 1,29,-1
 192 320 l 1,30,-1
 128 320 l 1,31,-1
 128 384 l 1,28,-1
192 384 m 1,32,-1
 256 384 l 1,33,-1
 256 320 l 1,34,-1
 192 320 l 1,35,-1
 192 384 l 1,32,-1
64 320 m 1,36,-1
 128 320 l 1,37,-1
 128 256 l 1,38,-1
 64 256 l 1,39,-1
 64 320 l 1,36,-1
128 320 m 1,40,-1
 192 320 l 1,41,-1
 192 256 l 1,42,-1
 128 256 l 1,43,-1
 128 320 l 1,40,-1
64 256 m 1,44,-1
 128 256 l 1,45,-1
 128 192 l 1,46,-1
 64 192 l 1,47,-1
 64 256 l 1,44,-1
128 256 m 1,48,-1
 192 256 l 1,49,-1
 192 192 l 1,50,-1
 128 192 l 1,51,-1
 128 256 l 1,48,-1
64 192 m 1,52,-1
 128 192 l 1,53,-1
 128 128 l 1,54,-1
 64 128 l 1,55,-1
 64 192 l 1,52,-1
128 192 m 1,56,-1
 192 192 l 1,57,-1
 192 128 l 1,58,-1
 128 128 l 1,59,-1
 128 192 l 1,56,-1
0 128 m 1,60,-1
 64 128 l 1,61,-1
 64 64 l 1,62,-1
 0 64 l 1,63,-1
 0 128 l 1,60,-1
64 128 m 1,64,-1
 128 128 l 1,65,-1
 128 64 l 1,66,-1
 64 64 l 1,67,-1
 64 128 l 1,64,-1
320 128 m 1,68,-1
 384 128 l 1,69,-1
 384 64 l 1,70,-1
 320 64 l 1,71,-1
 320 128 l 1,68,-1
64 64 m 1,72,-1
 128 64 l 1,73,-1
 128 0 l 1,74,-1
 64 0 l 1,75,-1
 64 64 l 1,72,-1
128 64 m 1,76,-1
 192 64 l 1,77,-1
 192 0 l 1,78,-1
 128 0 l 1,79,-1
 128 64 l 1,76,-1
192 64 m 1,80,-1
 256 64 l 1,81,-1
 256 0 l 1,82,-1
 192 0 l 1,83,-1
 192 64 l 1,80,-1
256 64 m 1,84,-1
 320 64 l 1,85,-1
 320 0 l 1,86,-1
 256 0 l 1,87,-1
 256 64 l 1,84,-1
EndSplineSet
Validated: 5
EndChar

StartChar: D
Encoding: 68 68 38
Width: 512
GlyphClass: 1
Flags: W
LayerCount: 2
Fore
SplineSet
128 512 m 1,0,-1
 192 512 l 1,1,-1
 192 448 l 1,2,-1
 128 448 l 1,3,-1
 128 512 l 1,0,-1
192 512 m 1,4,-1
 256 512 l 1,5,-1
 256 448 l 1,6,-1
 192 448 l 1,7,-1
 192 512 l 1,4,-1
256 512 m 1,8,-1
 320 512 l 1,9,-1
 320 448 l 1,10,-1
 256 448 l 1,11,-1
 256 512 l 1,8,-1
320 512 m 1,12,-1
 384 512 l 1,13,-1
 384 448 l 1,14,-1
 320 448 l 1,15,-1
 320 512 l 1,12,-1
128 448 m 1,16,-1
 192 448 l 1,17,-1
 192 384 l 1,18,-1
 128 384 l 1,19,-1
 128 448 l 1,16,-1
192 448 m 1,20,-1
 256 448 l 1,21,-1
 256 384 l 1,22,-1
 192 384 l 1,23,-1
 192 448 l 1,20,-1
384 448 m 1,24,-1
 448 448 l 1,25,-1
 448 384 l 1,26,-1
 384 384 l 1,27,-1
 384 448 l 1,24,-1
128 384 m 1,28,-1
 192 384 l 1,29,-1
 192 320 l 1,30,-1
 128 320 l 1,31,-1
 128 384 l 1,28,-1
192 384 m 1,32,-1
 256 384 l 1,33,-1
 256 320 l 1,34,-1
 192 320 l 1,35,-1
 192 384 l 1,32,-1
448 384 m 1,36,-1
 512 384 l 1,37,-1
 512 320 l 1,38,-1
 448 320 l 1,39,-1
 448 384 l 1,36,-1
64 320 m 1,40,-1
 128 320 l 1,41,-1
 128 256 l 1,42,-1
 64 256 l 1,43,-1
 64 320 l 1,40,-1
128 320 m 1,44,-1
 192 320 l 1,45,-1
 192 256 l 1,46,-1
 128 256 l 1,47,-1
 128 320 l 1,44,-1
384 320 m 1,48,-1
 448 320 l 1,49,-1
 448 256 l 1,50,-1
 384 256 l 1,51,-1
 384 320 l 1,48,-1
64 256 m 1,52,-1
 128 256 l 1,53,-1
 128 192 l 1,54,-1
 64 192 l 1,55,-1
 64 256 l 1,52,-1
128 256 m 1,56,-1
 192 256 l 1,57,-1
 192 192 l 1,58,-1
 128 192 l 1,59,-1
 128 256 l 1,56,-1
384 256 m 1,60,-1
 448 256 l 1,61,-1
 448 192 l 1,62,-1
 384 192 l 1,63,-1
 384 256 l 1,60,-1
64 192 m 1,64,-1
 128 192 l 1,65,-1
 128 128 l 1,66,-1
 64 128 l 1,67,-1
 64 192 l 1,64,-1
128 192 m 1,68,-1
 192 192 l 1,69,-1
 192 128 l 1,70,-1
 128 128 l 1,71,-1
 128 192 l 1,68,-1
384 192 m 1,72,-1
 448 192 l 1,73,-1
 448 128 l 1,74,-1
 384 128 l 1,75,-1
 384 192 l 1,72,-1
0 128 m 1,76,-1
 64 128 l 1,77,-1
 64 64 l 1,78,-1
 0 64 l 1,79,-1
 0 128 l 1,76,-1
64 128 m 1,80,-1
 128 128 l 1,81,-1
 128 64 l 1,82,-1
 64 64 l 1,83,-1
 64 128 l 1,80,-1
320 128 m 1,84,-1
 384 128 l 1,85,-1
 384 64 l 1,86,-1
 320 64 l 1,87,-1
 320 128 l 1,84,-1
0 64 m 1,88,-1
 64 64 l 1,89,-1
 64 0 l 1,90,-1
 0 0 l 1,91,-1
 0 64 l 1,88,-1
64 64 m 1,92,-1
 128 64 l 1,93,-1
 128 0 l 1,94,-1
 64 0 l 1,95,-1
 64 64 l 1,92,-1
128 64 m 1,96,-1
 192 64 l 1,97,-1
 192 0 l 1,98,-1
 128 0 l 1,99,-1
 128 64 l 1,96,-1
192 64 m 1,100,-1
 256 64 l 1,101,-1
 256 0 l 1,102,-1
 192 0 l 1,103,-1
 192 64 l 1,100,-1
256 64 m 1,104,-1
 320 64 l 1,105,-1
 320 0 l 1,106,-1
 256 0 l 1,107,-1
 256 64 l 1,104,-1
EndSplineSet
Validated: 5
EndChar

StartChar: E
Encoding: 69 69 39
Width: 512
GlyphClass: 1
Flags: W
LayerCount: 2
Fore
SplineSet
128 512 m 1,0,-1
 192 512 l 1,1,-1
 192 448 l 1,2,-1
 128 448 l 1,3,-1
 128 512 l 1,0,-1
192 512 m 1,4,-1
 256 512 l 1,5,-1
 256 448 l 1,6,-1
 192 448 l 1,7,-1
 192 512 l 1,4,-1
256 512 m 1,8,-1
 320 512 l 1,9,-1
 320 448 l 1,10,-1
 256 448 l 1,11,-1
 256 512 l 1,8,-1
320 512 m 1,12,-1
 384 512 l 1,13,-1
 384 448 l 1,14,-1
 320 448 l 1,15,-1
 320 512 l 1,12,-1
384 512 m 1,16,-1
 448 512 l 1,17,-1
 448 448 l 1,18,-1
 384 448 l 1,19,-1
 384 512 l 1,16,-1
448 512 m 1,20,-1
 512 512 l 1,21,-1
 512 448 l 1,22,-1
 448 448 l 1,23,-1
 448 512 l 1,20,-1
128 448 m 1,24,-1
 192 448 l 1,25,-1
 192 384 l 1,26,-1
 128 384 l 1,27,-1
 128 448 l 1,24,-1
192 448 m 1,28,-1
 256 448 l 1,29,-1
 256 384 l 1,30,-1
 192 384 l 1,31,-1
 192 448 l 1,28,-1
128 384 m 1,32,-1
 192 384 l 1,33,-1
 192 320 l 1,34,-1
 128 320 l 1,35,-1
 128 384 l 1,32,-1
192 384 m 1,36,-1
 256 384 l 1,37,-1
 256 320 l 1,38,-1
 192 320 l 1,39,-1
 192 384 l 1,36,-1
64 320 m 1,40,-1
 128 320 l 1,41,-1
 128 256 l 1,42,-1
 64 256 l 1,43,-1
 64 320 l 1,40,-1
128 320 m 1,44,-1
 192 320 l 1,45,-1
 192 256 l 1,46,-1
 128 256 l 1,47,-1
 128 320 l 1,44,-1
64 256 m 1,48,-1
 128 256 l 1,49,-1
 128 192 l 1,50,-1
 64 192 l 1,51,-1
 64 256 l 1,48,-1
128 256 m 1,52,-1
 192 256 l 1,53,-1
 192 192 l 1,54,-1
 128 192 l 1,55,-1
 128 256 l 1,52,-1
64 192 m 1,56,-1
 128 192 l 1,57,-1
 128 128 l 1,58,-1
 64 128 l 1,59,-1
 64 192 l 1,56,-1
128 192 m 1,60,-1
 192 192 l 1,61,-1
 192 128 l 1,62,-1
 128 128 l 1,63,-1
 128 192 l 1,60,-1
192 192 m 1,64,-1
 256 192 l 1,65,-1
 256 128 l 1,66,-1
 192 128 l 1,67,-1
 192 192 l 1,64,-1
256 192 m 1,68,-1
 320 192 l 1,69,-1
 320 128 l 1,70,-1
 256 128 l 1,71,-1
 256 192 l 1,68,-1
0 128 m 1,72,-1
 64 128 l 1,73,-1
 64 64 l 1,74,-1
 0 64 l 1,75,-1
 0 128 l 1,72,-1
64 128 m 1,76,-1
 128 128 l 1,77,-1
 128 64 l 1,78,-1
 64 64 l 1,79,-1
 64 128 l 1,76,-1
0 64 m 1,80,-1
 64 64 l 1,81,-1
 64 0 l 1,82,-1
 0 0 l 1,83,-1
 0 64 l 1,80,-1
64 64 m 1,84,-1
 128 64 l 1,85,-1
 128 0 l 1,86,-1
 64 0 l 1,87,-1
 64 64 l 1,84,-1
128 64 m 1,88,-1
 192 64 l 1,89,-1
 192 0 l 1,90,-1
 128 0 l 1,91,-1
 128 64 l 1,88,-1
192 64 m 1,92,-1
 256 64 l 1,93,-1
 256 0 l 1,94,-1
 192 0 l 1,95,-1
 192 64 l 1,92,-1
256 64 m 1,96,-1
 320 64 l 1,97,-1
 320 0 l 1,98,-1
 256 0 l 1,99,-1
 256 64 l 1,96,-1
320 64 m 1,100,-1
 384 64 l 1,101,-1
 384 0 l 1,102,-1
 320 0 l 1,103,-1
 320 64 l 1,100,-1
EndSplineSet
Validated: 5
EndChar

StartChar: F
Encoding: 70 70 40
Width: 512
GlyphClass: 1
Flags: W
LayerCount: 2
Fore
SplineSet
128 512 m 1,0,-1
 192 512 l 1,1,-1
 192 448 l 1,2,-1
 128 448 l 1,3,-1
 128 512 l 1,0,-1
192 512 m 1,4,-1
 256 512 l 1,5,-1
 256 448 l 1,6,-1
 192 448 l 1,7,-1
 192 512 l 1,4,-1
256 512 m 1,8,-1
 320 512 l 1,9,-1
 320 448 l 1,10,-1
 256 448 l 1,11,-1
 256 512 l 1,8,-1
320 512 m 1,12,-1
 384 512 l 1,13,-1
 384 448 l 1,14,-1
 320 448 l 1,15,-1
 320 512 l 1,12,-1
384 512 m 1,16,-1
 448 512 l 1,17,-1
 448 448 l 1,18,-1
 384 448 l 1,19,-1
 384 512 l 1,16,-1
448 512 m 1,20,-1
 512 512 l 1,21,-1
 512 448 l 1,22,-1
 448 448 l 1,23,-1
 448 512 l 1,20,-1
128 448 m 1,24,-1
 192 448 l 1,25,-1
 192 384 l 1,26,-1
 128 384 l 1,27,-1
 128 448 l 1,24,-1
192 448 m 1,28,-1
 256 448 l 1,29,-1
 256 384 l 1,30,-1
 192 384 l 1,31,-1
 192 448 l 1,28,-1
128 384 m 1,32,-1
 192 384 l 1,33,-1
 192 320 l 1,34,-1
 128 320 l 1,35,-1
 128 384 l 1,32,-1
192 384 m 1,36,-1
 256 384 l 1,37,-1
 256 320 l 1,38,-1
 192 320 l 1,39,-1
 192 384 l 1,36,-1
64 320 m 1,40,-1
 128 320 l 1,41,-1
 128 256 l 1,42,-1
 64 256 l 1,43,-1
 64 320 l 1,40,-1
128 320 m 1,44,-1
 192 320 l 1,45,-1
 192 256 l 1,46,-1
 128 256 l 1,47,-1
 128 320 l 1,44,-1
64 256 m 1,48,-1
 128 256 l 1,49,-1
 128 192 l 1,50,-1
 64 192 l 1,51,-1
 64 256 l 1,48,-1
128 256 m 1,52,-1
 192 256 l 1,53,-1
 192 192 l 1,54,-1
 128 192 l 1,55,-1
 128 256 l 1,52,-1
192 256 m 1,56,-1
 256 256 l 1,57,-1
 256 192 l 1,58,-1
 192 192 l 1,59,-1
 192 256 l 1,56,-1
256 256 m 1,60,-1
 320 256 l 1,61,-1
 320 192 l 1,62,-1
 256 192 l 1,63,-1
 256 256 l 1,60,-1
64 192 m 1,64,-1
 128 192 l 1,65,-1
 128 128 l 1,66,-1
 64 128 l 1,67,-1
 64 192 l 1,64,-1
128 192 m 1,68,-1
 192 192 l 1,69,-1
 192 128 l 1,70,-1
 128 128 l 1,71,-1
 128 192 l 1,68,-1
0 128 m 1,72,-1
 64 128 l 1,73,-1
 64 64 l 1,74,-1
 0 64 l 1,75,-1
 0 128 l 1,72,-1
64 128 m 1,76,-1
 128 128 l 1,77,-1
 128 64 l 1,78,-1
 64 64 l 1,79,-1
 64 128 l 1,76,-1
0 64 m 1,80,-1
 64 64 l 1,81,-1
 64 0 l 1,82,-1
 0 0 l 1,83,-1
 0 64 l 1,80,-1
64 64 m 1,84,-1
 128 64 l 1,85,-1
 128 0 l 1,86,-1
 64 0 l 1,87,-1
 64 64 l 1,84,-1
EndSplineSet
Validated: 5
EndChar

StartChar: G
Encoding: 71 71 41
Width: 512
GlyphClass: 1
Flags: W
LayerCount: 2
Fore
SplineSet
192 512 m 1,0,-1
 256 512 l 1,1,-1
 256 448 l 1,2,-1
 192 448 l 1,3,-1
 192 512 l 1,0,-1
256 512 m 1,4,-1
 320 512 l 1,5,-1
 320 448 l 1,6,-1
 256 448 l 1,7,-1
 256 512 l 1,4,-1
320 512 m 1,8,-1
 384 512 l 1,9,-1
 384 448 l 1,10,-1
 320 448 l 1,11,-1
 320 512 l 1,8,-1
384 512 m 1,12,-1
 448 512 l 1,13,-1
 448 448 l 1,14,-1
 384 448 l 1,15,-1
 384 512 l 1,12,-1
128 448 m 1,16,-1
 192 448 l 1,17,-1
 192 384 l 1,18,-1
 128 384 l 1,19,-1
 128 448 l 1,16,-1
192 448 m 1,20,-1
 256 448 l 1,21,-1
 256 384 l 1,22,-1
 192 384 l 1,23,-1
 192 448 l 1,20,-1
448 448 m 1,24,-1
 512 448 l 1,25,-1
 512 384 l 1,26,-1
 448 384 l 1,27,-1
 448 448 l 1,24,-1
128 384 m 1,28,-1
 192 384 l 1,29,-1
 192 320 l 1,30,-1
 128 320 l 1,31,-1
 128 384 l 1,28,-1
192 384 m 1,32,-1
 256 384 l 1,33,-1
 256 320 l 1,34,-1
 192 320 l 1,35,-1
 192 384 l 1,32,-1
64 320 m 1,36,-1
 128 320 l 1,37,-1
 128 256 l 1,38,-1
 64 256 l 1,39,-1
 64 320 l 1,36,-1
128 320 m 1,40,-1
 192 320 l 1,41,-1
 192 256 l 1,42,-1
 128 256 l 1,43,-1
 128 320 l 1,40,-1
64 256 m 1,44,-1
 128 256 l 1,45,-1
 128 192 l 1,46,-1
 64 192 l 1,47,-1
 64 256 l 1,44,-1
128 256 m 1,48,-1
 192 256 l 1,49,-1
 192 192 l 1,50,-1
 128 192 l 1,51,-1
 128 256 l 1,48,-1
320 256 m 1,52,-1
 384 256 l 1,53,-1
 384 192 l 1,54,-1
 320 192 l 1,55,-1
 320 256 l 1,52,-1
384 256 m 1,56,-1
 448 256 l 1,57,-1
 448 192 l 1,58,-1
 384 192 l 1,59,-1
 384 256 l 1,56,-1
64 192 m 1,60,-1
 128 192 l 1,61,-1
 128 128 l 1,62,-1
 64 128 l 1,63,-1
 64 192 l 1,60,-1
128 192 m 1,64,-1
 192 192 l 1,65,-1
 192 128 l 1,66,-1
 128 128 l 1,67,-1
 128 192 l 1,64,-1
384 192 m 1,68,-1
 448 192 l 1,69,-1
 448 128 l 1,70,-1
 384 128 l 1,71,-1
 384 192 l 1,68,-1
0 128 m 1,72,-1
 64 128 l 1,73,-1
 64 64 l 1,74,-1
 0 64 l 1,75,-1
 0 128 l 1,72,-1
64 128 m 1,76,-1
 128 128 l 1,77,-1
 128 64 l 1,78,-1
 64 64 l 1,79,-1
 64 128 l 1,76,-1
320 128 m 1,80,-1
 384 128 l 1,81,-1
 384 64 l 1,82,-1
 320 64 l 1,83,-1
 320 128 l 1,80,-1
64 64 m 1,84,-1
 128 64 l 1,85,-1
 128 0 l 1,86,-1
 64 0 l 1,87,-1
 64 64 l 1,84,-1
128 64 m 1,88,-1
 192 64 l 1,89,-1
 192 0 l 1,90,-1
 128 0 l 1,91,-1
 128 64 l 1,88,-1
192 64 m 1,92,-1
 256 64 l 1,93,-1
 256 0 l 1,94,-1
 192 0 l 1,95,-1
 192 64 l 1,92,-1
256 64 m 1,96,-1
 320 64 l 1,97,-1
 320 0 l 1,98,-1
 256 0 l 1,99,-1
 256 64 l 1,96,-1
EndSplineSet
Validated: 5
EndChar

StartChar: H
Encoding: 72 72 42
Width: 512
GlyphClass: 1
Flags: W
LayerCount: 2
Fore
SplineSet
128 512 m 1,0,-1
 192 512 l 1,1,-1
 192 448 l 1,2,-1
 128 448 l 1,3,-1
 128 512 l 1,0,-1
192 512 m 1,4,-1
 256 512 l 1,5,-1
 256 448 l 1,6,-1
 192 448 l 1,7,-1
 192 512 l 1,4,-1
448 512 m 1,8,-1
 512 512 l 1,9,-1
 512 448 l 1,10,-1
 448 448 l 1,11,-1
 448 512 l 1,8,-1
128 448 m 1,12,-1
 192 448 l 1,13,-1
 192 384 l 1,14,-1
 128 384 l 1,15,-1
 128 448 l 1,12,-1
192 448 m 1,16,-1
 256 448 l 1,17,-1
 256 384 l 1,18,-1
 192 384 l 1,19,-1
 192 448 l 1,16,-1
448 448 m 1,20,-1
 512 448 l 1,21,-1
 512 384 l 1,22,-1
 448 384 l 1,23,-1
 448 448 l 1,20,-1
128 384 m 1,24,-1
 192 384 l 1,25,-1
 192 320 l 1,26,-1
 128 320 l 1,27,-1
 128 384 l 1,24,-1
192 384 m 1,28,-1
 256 384 l 1,29,-1
 256 320 l 1,30,-1
 192 320 l 1,31,-1
 192 384 l 1,28,-1
448 384 m 1,32,-1
 512 384 l 1,33,-1
 512 320 l 1,34,-1
 448 320 l 1,35,-1
 448 384 l 1,32,-1
64 320 m 1,36,-1
 128 320 l 1,37,-1
 128 256 l 1,38,-1
 64 256 l 1,39,-1
 64 320 l 1,36,-1
128 320 m 1,40,-1
 192 320 l 1,41,-1
 192 256 l 1,42,-1
 128 256 l 1,43,-1
 128 320 l 1,40,-1
384 320 m 1,44,-1
 448 320 l 1,45,-1
 448 256 l 1,46,-1
 384 256 l 1,47,-1
 384 320 l 1,44,-1
64 256 m 1,48,-1
 128 256 l 1,49,-1
 128 192 l 1,50,-1
 64 192 l 1,51,-1
 64 256 l 1,48,-1
128 256 m 1,52,-1
 192 256 l 1,53,-1
 192 192 l 1,54,-1
 128 192 l 1,55,-1
 128 256 l 1,52,-1
384 256 m 1,56,-1
 448 256 l 1,57,-1
 448 192 l 1,58,-1
 384 192 l 1,59,-1
 384 256 l 1,56,-1
64 192 m 1,60,-1
 128 192 l 1,61,-1
 128 128 l 1,62,-1
 64 128 l 1,63,-1
 64 192 l 1,60,-1
128 192 m 1,64,-1
 192 192 l 1,65,-1
 192 128 l 1,66,-1
 128 128 l 1,67,-1
 128 192 l 1,64,-1
192 192 m 1,68,-1
 256 192 l 1,69,-1
 256 128 l 1,70,-1
 192 128 l 1,71,-1
 192 192 l 1,68,-1
256 192 m 1,72,-1
 320 192 l 1,73,-1
 320 128 l 1,74,-1
 256 128 l 1,75,-1
 256 192 l 1,72,-1
320 192 m 1,76,-1
 384 192 l 1,77,-1
 384 128 l 1,78,-1
 320 128 l 1,79,-1
 320 192 l 1,76,-1
384 192 m 1,80,-1
 448 192 l 1,81,-1
 448 128 l 1,82,-1
 384 128 l 1,83,-1
 384 192 l 1,80,-1
0 128 m 1,84,-1
 64 128 l 1,85,-1
 64 64 l 1,86,-1
 0 64 l 1,87,-1
 0 128 l 1,84,-1
64 128 m 1,88,-1
 128 128 l 1,89,-1
 128 64 l 1,90,-1
 64 64 l 1,91,-1
 64 128 l 1,88,-1
320 128 m 1,92,-1
 384 128 l 1,93,-1
 384 64 l 1,94,-1
 320 64 l 1,95,-1
 320 128 l 1,92,-1
0 64 m 1,96,-1
 64 64 l 1,97,-1
 64 0 l 1,98,-1
 0 0 l 1,99,-1
 0 64 l 1,96,-1
64 64 m 1,100,-1
 128 64 l 1,101,-1
 128 0 l 1,102,-1
 64 0 l 1,103,-1
 64 64 l 1,100,-1
320 64 m 1,104,-1
 384 64 l 1,105,-1
 384 0 l 1,106,-1
 320 0 l 1,107,-1
 320 64 l 1,104,-1
EndSplineSet
Validated: 5
EndChar

StartChar: I
Encoding: 73 73 43
Width: 512
GlyphClass: 1
Flags: W
LayerCount: 2
Fore
SplineSet
128 512 m 1,0,-1
 192 512 l 1,1,-1
 192 448 l 1,2,-1
 128 448 l 1,3,-1
 128 512 l 1,0,-1
192 512 m 1,4,-1
 256 512 l 1,5,-1
 256 448 l 1,6,-1
 192 448 l 1,7,-1
 192 512 l 1,4,-1
256 512 m 1,8,-1
 320 512 l 1,9,-1
 320 448 l 1,10,-1
 256 448 l 1,11,-1
 256 512 l 1,8,-1
320 512 m 1,12,-1
 384 512 l 1,13,-1
 384 448 l 1,14,-1
 320 448 l 1,15,-1
 320 512 l 1,12,-1
384 512 m 1,16,-1
 448 512 l 1,17,-1
 448 448 l 1,18,-1
 384 448 l 1,19,-1
 384 512 l 1,16,-1
448 512 m 1,20,-1
 512 512 l 1,21,-1
 512 448 l 1,22,-1
 448 448 l 1,23,-1
 448 512 l 1,20,-1
256 448 m 1,24,-1
 320 448 l 1,25,-1
 320 384 l 1,26,-1
 256 384 l 1,27,-1
 256 448 l 1,24,-1
320 448 m 1,28,-1
 384 448 l 1,29,-1
 384 384 l 1,30,-1
 320 384 l 1,31,-1
 320 448 l 1,28,-1
256 384 m 1,32,-1
 320 384 l 1,33,-1
 320 320 l 1,34,-1
 256 320 l 1,35,-1
 256 384 l 1,32,-1
320 384 m 1,36,-1
 384 384 l 1,37,-1
 384 320 l 1,38,-1
 320 320 l 1,39,-1
 320 384 l 1,36,-1
192 320 m 1,40,-1
 256 320 l 1,41,-1
 256 256 l 1,42,-1
 192 256 l 1,43,-1
 192 320 l 1,40,-1
256 320 m 1,44,-1
 320 320 l 1,45,-1
 320 256 l 1,46,-1
 256 256 l 1,47,-1
 256 320 l 1,44,-1
192 256 m 1,48,-1
 256 256 l 1,49,-1
 256 192 l 1,50,-1
 192 192 l 1,51,-1
 192 256 l 1,48,-1
256 256 m 1,52,-1
 320 256 l 1,53,-1
 320 192 l 1,54,-1
 256 192 l 1,55,-1
 256 256 l 1,52,-1
192 192 m 1,56,-1
 256 192 l 1,57,-1
 256 128 l 1,58,-1
 192 128 l 1,59,-1
 192 192 l 1,56,-1
256 192 m 1,60,-1
 320 192 l 1,61,-1
 320 128 l 1,62,-1
 256 128 l 1,63,-1
 256 192 l 1,60,-1
128 128 m 1,64,-1
 192 128 l 1,65,-1
 192 64 l 1,66,-1
 128 64 l 1,67,-1
 128 128 l 1,64,-1
192 128 m 1,68,-1
 256 128 l 1,69,-1
 256 64 l 1,70,-1
 192 64 l 1,71,-1
 192 128 l 1,68,-1
0 64 m 1,72,-1
 64 64 l 1,73,-1
 64 0 l 1,74,-1
 0 0 l 1,75,-1
 0 64 l 1,72,-1
64 64 m 1,76,-1
 128 64 l 1,77,-1
 128 0 l 1,78,-1
 64 0 l 1,79,-1
 64 64 l 1,76,-1
128 64 m 1,80,-1
 192 64 l 1,81,-1
 192 0 l 1,82,-1
 128 0 l 1,83,-1
 128 64 l 1,80,-1
192 64 m 1,84,-1
 256 64 l 1,85,-1
 256 0 l 1,86,-1
 192 0 l 1,87,-1
 192 64 l 1,84,-1
256 64 m 1,88,-1
 320 64 l 1,89,-1
 320 0 l 1,90,-1
 256 0 l 1,91,-1
 256 64 l 1,88,-1
320 64 m 1,92,-1
 384 64 l 1,93,-1
 384 0 l 1,94,-1
 320 0 l 1,95,-1
 320 64 l 1,92,-1
EndSplineSet
Validated: 5
EndChar

StartChar: J
Encoding: 74 74 44
Width: 512
GlyphClass: 1
Flags: W
LayerCount: 2
Fore
SplineSet
320 512 m 1,0,-1
 384 512 l 1,1,-1
 384 448 l 1,2,-1
 320 448 l 1,3,-1
 320 512 l 1,0,-1
384 512 m 1,4,-1
 448 512 l 1,5,-1
 448 448 l 1,6,-1
 384 448 l 1,7,-1
 384 512 l 1,4,-1
448 512 m 1,8,-1
 512 512 l 1,9,-1
 512 448 l 1,10,-1
 448 448 l 1,11,-1
 448 512 l 1,8,-1
384 448 m 1,12,-1
 448 448 l 1,13,-1
 448 384 l 1,14,-1
 384 384 l 1,15,-1
 384 448 l 1,12,-1
448 448 m 1,16,-1
 512 448 l 1,17,-1
 512 384 l 1,18,-1
 448 384 l 1,19,-1
 448 448 l 1,16,-1
384 384 m 1,20,-1
 448 384 l 1,21,-1
 448 320 l 1,22,-1
 384 320 l 1,23,-1
 384 384 l 1,20,-1
448 384 m 1,24,-1
 512 384 l 1,25,-1
 512 320 l 1,26,-1
 448 320 l 1,27,-1
 448 384 l 1,24,-1
320 320 m 1,28,-1
 384 320 l 1,29,-1
 384 256 l 1,30,-1
 320 256 l 1,31,-1
 320 320 l 1,28,-1
384 320 m 1,32,-1
 448 320 l 1,33,-1
 448 256 l 1,34,-1
 384 256 l 1,35,-1
 384 320 l 1,32,-1
320 256 m 1,36,-1
 384 256 l 1,37,-1
 384 192 l 1,38,-1
 320 192 l 1,39,-1
 320 256 l 1,36,-1
384 256 m 1,40,-1
 448 256 l 1,41,-1
 448 192 l 1,42,-1
 384 192 l 1,43,-1
 384 256 l 1,40,-1
320 192 m 1,44,-1
 384 192 l 1,45,-1
 384 128 l 1,46,-1
 320 128 l 1,47,-1
 320 192 l 1,44,-1
384 192 m 1,48,-1
 448 192 l 1,49,-1
 448 128 l 1,50,-1
 384 128 l 1,51,-1
 384 192 l 1,48,-1
64 128 m 1,52,-1
 128 128 l 1,53,-1
 128 64 l 1,54,-1
 64 64 l 1,55,-1
 64 128 l 1,52,-1
256 128 m 1,56,-1
 320 128 l 1,57,-1
 320 64 l 1,58,-1
 256 64 l 1,59,-1
 256 128 l 1,56,-1
320 128 m 1,60,-1
 384 128 l 1,61,-1
 384 64 l 1,62,-1
 320 64 l 1,63,-1
 320 128 l 1,60,-1
128 64 m 1,64,-1
 192 64 l 1,65,-1
 192 0 l 1,66,-1
 128 0 l 1,67,-1
 128 64 l 1,64,-1
192 64 m 1,68,-1
 256 64 l 1,69,-1
 256 0 l 1,70,-1
 192 0 l 1,71,-1
 192 64 l 1,68,-1
256 64 m 1,72,-1
 320 64 l 1,73,-1
 320 0 l 1,74,-1
 256 0 l 1,75,-1
 256 64 l 1,72,-1
EndSplineSet
Validated: 5
EndChar

StartChar: K
Encoding: 75 75 45
Width: 512
GlyphClass: 1
Flags: W
LayerCount: 2
Fore
SplineSet
128 512 m 1,0,-1
 192 512 l 1,1,-1
 192 448 l 1,2,-1
 128 448 l 1,3,-1
 128 512 l 1,0,-1
192 512 m 1,4,-1
 256 512 l 1,5,-1
 256 448 l 1,6,-1
 192 448 l 1,7,-1
 192 512 l 1,4,-1
448 512 m 1,8,-1
 512 512 l 1,9,-1
 512 448 l 1,10,-1
 448 448 l 1,11,-1
 448 512 l 1,8,-1
128 448 m 1,12,-1
 192 448 l 1,13,-1
 192 384 l 1,14,-1
 128 384 l 1,15,-1
 128 448 l 1,12,-1
192 448 m 1,16,-1
 256 448 l 1,17,-1
 256 384 l 1,18,-1
 192 384 l 1,19,-1
 192 448 l 1,16,-1
384 448 m 1,20,-1
 448 448 l 1,21,-1
 448 384 l 1,22,-1
 384 384 l 1,23,-1
 384 448 l 1,20,-1
128 384 m 1,24,-1
 192 384 l 1,25,-1
 192 320 l 1,26,-1
 128 320 l 1,27,-1
 128 384 l 1,24,-1
192 384 m 1,28,-1
 256 384 l 1,29,-1
 256 320 l 1,30,-1
 192 320 l 1,31,-1
 192 384 l 1,28,-1
320 384 m 1,32,-1
 384 384 l 1,33,-1
 384 320 l 1,34,-1
 320 320 l 1,35,-1
 320 384 l 1,32,-1
64 320 m 1,36,-1
 128 320 l 1,37,-1
 128 256 l 1,38,-1
 64 256 l 1,39,-1
 64 320 l 1,36,-1
128 320 m 1,40,-1
 192 320 l 1,41,-1
 192 256 l 1,42,-1
 128 256 l 1,43,-1
 128 320 l 1,40,-1
256 320 m 1,44,-1
 320 320 l 1,45,-1
 320 256 l 1,46,-1
 256 256 l 1,47,-1
 256 320 l 1,44,-1
64 256 m 1,48,-1
 128 256 l 1,49,-1
 128 192 l 1,50,-1
 64 192 l 1,51,-1
 64 256 l 1,48,-1
128 256 m 1,52,-1
 192 256 l 1,53,-1
 192 192 l 1,54,-1
 128 192 l 1,55,-1
 128 256 l 1,52,-1
192 256 m 1,56,-1
 256 256 l 1,57,-1
 256 192 l 1,58,-1
 192 192 l 1,59,-1
 192 256 l 1,56,-1
64 192 m 1,60,-1
 128 192 l 1,61,-1
 128 128 l 1,62,-1
 64 128 l 1,63,-1
 64 192 l 1,60,-1
128 192 m 1,64,-1
 192 192 l 1,65,-1
 192 128 l 1,66,-1
 128 128 l 1,67,-1
 128 192 l 1,64,-1
256 192 m 1,68,-1
 320 192 l 1,69,-1
 320 128 l 1,70,-1
 256 128 l 1,71,-1
 256 192 l 1,68,-1
0 128 m 1,72,-1
 64 128 l 1,73,-1
 64 64 l 1,74,-1
 0 64 l 1,75,-1
 0 128 l 1,72,-1
64 128 m 1,76,-1
 128 128 l 1,77,-1
 128 64 l 1,78,-1
 64 64 l 1,79,-1
 64 128 l 1,76,-1
256 128 m 1,80,-1
 320 128 l 1,81,-1
 320 64 l 1,82,-1
 256 64 l 1,83,-1
 256 128 l 1,80,-1
0 64 m 1,84,-1
 64 64 l 1,85,-1
 64 0 l 1,86,-1
 0 0 l 1,87,-1
 0 64 l 1,84,-1
64 64 m 1,88,-1
 128 64 l 1,89,-1
 128 0 l 1,90,-1
 64 0 l 1,91,-1
 64 64 l 1,88,-1
320 64 m 1,92,-1
 384 64 l 1,93,-1
 384 0 l 1,94,-1
 320 0 l 1,95,-1
 320 64 l 1,92,-1
EndSplineSet
Validated: 5
EndChar

StartChar: L
Encoding: 76 76 46
Width: 512
GlyphClass: 1
Flags: W
LayerCount: 2
Fore
SplineSet
128 512 m 1,0,-1
 192 512 l 1,1,-1
 192 448 l 1,2,-1
 128 448 l 1,3,-1
 128 512 l 1,0,-1
192 512 m 1,4,-1
 256 512 l 1,5,-1
 256 448 l 1,6,-1
 192 448 l 1,7,-1
 192 512 l 1,4,-1
128 448 m 1,8,-1
 192 448 l 1,9,-1
 192 384 l 1,10,-1
 128 384 l 1,11,-1
 128 448 l 1,8,-1
192 448 m 1,12,-1
 256 448 l 1,13,-1
 256 384 l 1,14,-1
 192 384 l 1,15,-1
 192 448 l 1,12,-1
128 384 m 1,16,-1
 192 384 l 1,17,-1
 192 320 l 1,18,-1
 128 320 l 1,19,-1
 128 384 l 1,16,-1
192 384 m 1,20,-1
 256 384 l 1,21,-1
 256 320 l 1,22,-1
 192 320 l 1,23,-1
 192 384 l 1,20,-1
64 320 m 1,24,-1
 128 320 l 1,25,-1
 128 256 l 1,26,-1
 64 256 l 1,27,-1
 64 320 l 1,24,-1
128 320 m 1,28,-1
 192 320 l 1,29,-1
 192 256 l 1,30,-1
 128 256 l 1,31,-1
 128 320 l 1,28,-1
64 256 m 1,32,-1
 128 256 l 1,33,-1
 128 192 l 1,34,-1
 64 192 l 1,35,-1
 64 256 l 1,32,-1
128 256 m 1,36,-1
 192 256 l 1,37,-1
 192 192 l 1,38,-1
 128 192 l 1,39,-1
 128 256 l 1,36,-1
64 192 m 1,40,-1
 128 192 l 1,41,-1
 128 128 l 1,42,-1
 64 128 l 1,43,-1
 64 192 l 1,40,-1
128 192 m 1,44,-1
 192 192 l 1,45,-1
 192 128 l 1,46,-1
 128 128 l 1,47,-1
 128 192 l 1,44,-1
0 128 m 1,48,-1
 64 128 l 1,49,-1
 64 64 l 1,50,-1
 0 64 l 1,51,-1
 0 128 l 1,48,-1
64 128 m 1,52,-1
 128 128 l 1,53,-1
 128 64 l 1,54,-1
 64 64 l 1,55,-1
 64 128 l 1,52,-1
0 64 m 1,56,-1
 64 64 l 1,57,-1
 64 0 l 1,58,-1
 0 0 l 1,59,-1
 0 64 l 1,56,-1
64 64 m 1,60,-1
 128 64 l 1,61,-1
 128 0 l 1,62,-1
 64 0 l 1,63,-1
 64 64 l 1,60,-1
128 64 m 1,64,-1
 192 64 l 1,65,-1
 192 0 l 1,66,-1
 128 0 l 1,67,-1
 128 64 l 1,64,-1
192 64 m 1,68,-1
 256 64 l 1,69,-1
 256 0 l 1,70,-1
 192 0 l 1,71,-1
 192 64 l 1,68,-1
256 64 m 1,72,-1
 320 64 l 1,73,-1
 320 0 l 1,74,-1
 256 0 l 1,75,-1
 256 64 l 1,72,-1
320 64 m 1,76,-1
 384 64 l 1,77,-1
 384 0 l 1,78,-1
 320 0 l 1,79,-1
 320 64 l 1,76,-1
EndSplineSet
Validated: 5
EndChar

StartChar: M
Encoding: 77 77 47
Width: 512
GlyphClass: 1
Flags: W
LayerCount: 2
Fore
SplineSet
128 512 m 1,0,-1
 192 512 l 1,1,-1
 192 448 l 1,2,-1
 128 448 l 1,3,-1
 128 512 l 1,0,-1
192 512 m 1,4,-1
 256 512 l 1,5,-1
 256 448 l 1,6,-1
 192 448 l 1,7,-1
 192 512 l 1,4,-1
384 512 m 1,8,-1
 448 512 l 1,9,-1
 448 448 l 1,10,-1
 384 448 l 1,11,-1
 384 512 l 1,8,-1
448 512 m 1,12,-1
 512 512 l 1,13,-1
 512 448 l 1,14,-1
 448 448 l 1,15,-1
 448 512 l 1,12,-1
128 448 m 1,16,-1
 192 448 l 1,17,-1
 192 384 l 1,18,-1
 128 384 l 1,19,-1
 128 448 l 1,16,-1
192 448 m 1,20,-1
 256 448 l 1,21,-1
 256 384 l 1,22,-1
 192 384 l 1,23,-1
 192 448 l 1,20,-1
384 448 m 1,24,-1
 448 448 l 1,25,-1
 448 384 l 1,26,-1
 384 384 l 1,27,-1
 384 448 l 1,24,-1
448 448 m 1,28,-1
 512 448 l 1,29,-1
 512 384 l 1,30,-1
 448 384 l 1,31,-1
 448 448 l 1,28,-1
64 384 m 1,32,-1
 128 384 l 1,33,-1
 128 320 l 1,34,-1
 64 320 l 1,35,-1
 64 384 l 1,32,-1
128 384 m 1,36,-1
 192 384 l 1,37,-1
 192 320 l 1,38,-1
 128 320 l 1,39,-1
 128 384 l 1,36,-1
192 384 m 1,40,-1
 256 384 l 1,41,-1
 256 320 l 1,42,-1
 192 320 l 1,43,-1
 192 384 l 1,40,-1
320 384 m 1,44,-1
 384 384 l 1,45,-1
 384 320 l 1,46,-1
 320 320 l 1,47,-1
 320 384 l 1,44,-1
448 384 m 1,48,-1
 512 384 l 1,49,-1
 512 320 l 1,50,-1
 448 320 l 1,51,-1
 448 384 l 1,48,-1
64 320 m 1,52,-1
 128 320 l 1,53,-1
 128 256 l 1,54,-1
 64 256 l 1,55,-1
 64 320 l 1,52,-1
128 320 m 1,56,-1
 192 320 l 1,57,-1
 192 256 l 1,58,-1
 128 256 l 1,59,-1
 128 320 l 1,56,-1
256 320 m 1,60,-1
 320 320 l 1,61,-1
 320 256 l 1,62,-1
 256 256 l 1,63,-1
 256 320 l 1,60,-1
384 320 m 1,64,-1
 448 320 l 1,65,-1
 448 256 l 1,66,-1
 384 256 l 1,67,-1
 384 320 l 1,64,-1
64 256 m 1,68,-1
 128 256 l 1,69,-1
 128 192 l 1,70,-1
 64 192 l 1,71,-1
 64 256 l 1,68,-1
128 256 m 1,72,-1
 192 256 l 1,73,-1
 192 192 l 1,74,-1
 128 192 l 1,75,-1
 128 256 l 1,72,-1
384 256 m 1,76,-1
 448 256 l 1,77,-1
 448 192 l 1,78,-1
 384 192 l 1,79,-1
 384 256 l 1,76,-1
0 192 m 1,80,-1
 64 192 l 1,81,-1
 64 128 l 1,82,-1
 0 128 l 1,83,-1
 0 192 l 1,80,-1
64 192 m 1,84,-1
 128 192 l 1,85,-1
 128 128 l 1,86,-1
 64 128 l 1,87,-1
 64 192 l 1,84,-1
384 192 m 1,88,-1
 448 192 l 1,89,-1
 448 128 l 1,90,-1
 384 128 l 1,91,-1
 384 192 l 1,88,-1
0 128 m 1,92,-1
 64 128 l 1,93,-1
 64 64 l 1,94,-1
 0 64 l 1,95,-1
 0 128 l 1,92,-1
64 128 m 1,96,-1
 128 128 l 1,97,-1
 128 64 l 1,98,-1
 64 64 l 1,99,-1
 64 128 l 1,96,-1
320 128 m 1,100,-1
 384 128 l 1,101,-1
 384 64 l 1,102,-1
 320 64 l 1,103,-1
 320 128 l 1,100,-1
0 64 m 1,104,-1
 64 64 l 1,105,-1
 64 0 l 1,106,-1
 0 0 l 1,107,-1
 0 64 l 1,104,-1
64 64 m 1,108,-1
 128 64 l 1,109,-1
 128 0 l 1,110,-1
 64 0 l 1,111,-1
 64 64 l 1,108,-1
320 64 m 1,112,-1
 384 64 l 1,113,-1
 384 0 l 1,114,-1
 320 0 l 1,115,-1
 320 64 l 1,112,-1
EndSplineSet
Validated: 5
EndChar

StartChar: N
Encoding: 78 78 48
Width: 512
GlyphClass: 1
Flags: W
LayerCount: 2
Fore
SplineSet
128 512 m 1,0,-1
 192 512 l 1,1,-1
 192 448 l 1,2,-1
 128 448 l 1,3,-1
 128 512 l 1,0,-1
192 512 m 1,4,-1
 256 512 l 1,5,-1
 256 448 l 1,6,-1
 192 448 l 1,7,-1
 192 512 l 1,4,-1
448 512 m 1,8,-1
 512 512 l 1,9,-1
 512 448 l 1,10,-1
 448 448 l 1,11,-1
 448 512 l 1,8,-1
128 448 m 1,12,-1
 192 448 l 1,13,-1
 192 384 l 1,14,-1
 128 384 l 1,15,-1
 128 448 l 1,12,-1
192 448 m 1,16,-1
 256 448 l 1,17,-1
 256 384 l 1,18,-1
 192 384 l 1,19,-1
 192 448 l 1,16,-1
448 448 m 1,20,-1
 512 448 l 1,21,-1
 512 384 l 1,22,-1
 448 384 l 1,23,-1
 448 448 l 1,20,-1
128 384 m 1,24,-1
 192 384 l 1,25,-1
 192 320 l 1,26,-1
 128 320 l 1,27,-1
 128 384 l 1,24,-1
192 384 m 1,28,-1
 256 384 l 1,29,-1
 256 320 l 1,30,-1
 192 320 l 1,31,-1
 192 384 l 1,28,-1
448 384 m 1,32,-1
 512 384 l 1,33,-1
 512 320 l 1,34,-1
 448 320 l 1,35,-1
 448 384 l 1,32,-1
64 320 m 1,36,-1
 128 320 l 1,37,-1
 128 256 l 1,38,-1
 64 256 l 1,39,-1
 64 320 l 1,36,-1
128 320 m 1,40,-1
 192 320 l 1,41,-1
 192 256 l 1,42,-1
 128 256 l 1,43,-1
 128 320 l 1,40,-1
384 320 m 1,44,-1
 448 320 l 1,45,-1
 448 256 l 1,46,-1
 384 256 l 1,47,-1
 384 320 l 1,44,-1
64 256 m 1,48,-1
 128 256 l 1,49,-1
 128 192 l 1,50,-1
 64 192 l 1,51,-1
 64 256 l 1,48,-1
128 256 m 1,52,-1
 192 256 l 1,53,-1
 192 192 l 1,54,-1
 128 192 l 1,55,-1
 128 256 l 1,52,-1
384 256 m 1,56,-1
 448 256 l 1,57,-1
 448 192 l 1,58,-1
 384 192 l 1,59,-1
 384 256 l 1,56,-1
64 192 m 1,60,-1
 128 192 l 1,61,-1
 128 128 l 1,62,-1
 64 128 l 1,63,-1
 64 192 l 1,60,-1
128 192 m 1,64,-1
 192 192 l 1,65,-1
 192 128 l 1,66,-1
 128 128 l 1,67,-1
 128 192 l 1,64,-1
192 192 m 1,68,-1
 256 192 l 1,69,-1
 256 128 l 1,70,-1
 192 128 l 1,71,-1
 192 192 l 1,68,-1
384 192 m 1,72,-1
 448 192 l 1,73,-1
 448 128 l 1,74,-1
 384 128 l 1,75,-1
 384 192 l 1,72,-1
0 128 m 1,76,-1
 64 128 l 1,77,-1
 64 64 l 1,78,-1
 0 64 l 1,79,-1
 0 128 l 1,76,-1
64 128 m 1,80,-1
 128 128 l 1,81,-1
 128 64 l 1,82,-1
 64 64 l 1,83,-1
 64 128 l 1,80,-1
192 128 m 1,84,-1
 256 128 l 1,85,-1
 256 64 l 1,86,-1
 192 64 l 1,87,-1
 192 128 l 1,84,-1
256 128 m 1,88,-1
 320 128 l 1,89,-1
 320 64 l 1,90,-1
 256 64 l 1,91,-1
 256 128 l 1,88,-1
320 128 m 1,92,-1
 384 128 l 1,93,-1
 384 64 l 1,94,-1
 320 64 l 1,95,-1
 320 128 l 1,92,-1
0 64 m 1,96,-1
 64 64 l 1,97,-1
 64 0 l 1,98,-1
 0 0 l 1,99,-1
 0 64 l 1,96,-1
64 64 m 1,100,-1
 128 64 l 1,101,-1
 128 0 l 1,102,-1
 64 0 l 1,103,-1
 64 64 l 1,100,-1
320 64 m 1,104,-1
 384 64 l 1,105,-1
 384 0 l 1,106,-1
 320 0 l 1,107,-1
 320 64 l 1,104,-1
EndSplineSet
Validated: 5
EndChar

StartChar: O
Encoding: 79 79 49
Width: 512
GlyphClass: 1
Flags: W
LayerCount: 2
Fore
SplineSet
192 512 m 1,0,-1
 256 512 l 1,1,-1
 256 448 l 1,2,-1
 192 448 l 1,3,-1
 192 512 l 1,0,-1
256 512 m 1,4,-1
 320 512 l 1,5,-1
 320 448 l 1,6,-1
 256 448 l 1,7,-1
 256 512 l 1,4,-1
320 512 m 1,8,-1
 384 512 l 1,9,-1
 384 448 l 1,10,-1
 320 448 l 1,11,-1
 320 512 l 1,8,-1
384 512 m 1,12,-1
 448 512 l 1,13,-1
 448 448 l 1,14,-1
 384 448 l 1,15,-1
 384 512 l 1,12,-1
128 448 m 1,16,-1
 192 448 l 1,17,-1
 192 384 l 1,18,-1
 128 384 l 1,19,-1
 128 448 l 1,16,-1
192 448 m 1,20,-1
 256 448 l 1,21,-1
 256 384 l 1,22,-1
 192 384 l 1,23,-1
 192 448 l 1,20,-1
448 448 m 1,24,-1
 512 448 l 1,25,-1
 512 384 l 1,26,-1
 448 384 l 1,27,-1
 448 448 l 1,24,-1
128 384 m 1,28,-1
 192 384 l 1,29,-1
 192 320 l 1,30,-1
 128 320 l 1,31,-1
 128 384 l 1,28,-1
192 384 m 1,32,-1
 256 384 l 1,33,-1
 256 320 l 1,34,-1
 192 320 l 1,35,-1
 192 384 l 1,32,-1
448 384 m 1,36,-1
 512 384 l 1,37,-1
 512 320 l 1,38,-1
 448 320 l 1,39,-1
 448 384 l 1,36,-1
64 320 m 1,40,-1
 128 320 l 1,41,-1
 128 256 l 1,42,-1
 64 256 l 1,43,-1
 64 320 l 1,40,-1
128 320 m 1,44,-1
 192 320 l 1,45,-1
 192 256 l 1,46,-1
 128 256 l 1,47,-1
 128 320 l 1,44,-1
384 320 m 1,48,-1
 448 320 l 1,49,-1
 448 256 l 1,50,-1
 384 256 l 1,51,-1
 384 320 l 1,48,-1
64 256 m 1,52,-1
 128 256 l 1,53,-1
 128 192 l 1,54,-1
 64 192 l 1,55,-1
 64 256 l 1,52,-1
128 256 m 1,56,-1
 192 256 l 1,57,-1
 192 192 l 1,58,-1
 128 192 l 1,59,-1
 128 256 l 1,56,-1
384 256 m 1,60,-1
 448 256 l 1,61,-1
 448 192 l 1,62,-1
 384 192 l 1,63,-1
 384 256 l 1,60,-1
64 192 m 1,64,-1
 128 192 l 1,65,-1
 128 128 l 1,66,-1
 64 128 l 1,67,-1
 64 192 l 1,64,-1
128 192 m 1,68,-1
 192 192 l 1,69,-1
 192 128 l 1,70,-1
 128 128 l 1,71,-1
 128 192 l 1,68,-1
384 192 m 1,72,-1
 448 192 l 1,73,-1
 448 128 l 1,74,-1
 384 128 l 1,75,-1
 384 192 l 1,72,-1
0 128 m 1,76,-1
 64 128 l 1,77,-1
 64 64 l 1,78,-1
 0 64 l 1,79,-1
 0 128 l 1,76,-1
64 128 m 1,80,-1
 128 128 l 1,81,-1
 128 64 l 1,82,-1
 64 64 l 1,83,-1
 64 128 l 1,80,-1
320 128 m 1,84,-1
 384 128 l 1,85,-1
 384 64 l 1,86,-1
 320 64 l 1,87,-1
 320 128 l 1,84,-1
64 64 m 1,88,-1
 128 64 l 1,89,-1
 128 0 l 1,90,-1
 64 0 l 1,91,-1
 64 64 l 1,88,-1
128 64 m 1,92,-1
 192 64 l 1,93,-1
 192 0 l 1,94,-1
 128 0 l 1,95,-1
 128 64 l 1,92,-1
192 64 m 1,96,-1
 256 64 l 1,97,-1
 256 0 l 1,98,-1
 192 0 l 1,99,-1
 192 64 l 1,96,-1
256 64 m 1,100,-1
 320 64 l 1,101,-1
 320 0 l 1,102,-1
 256 0 l 1,103,-1
 256 64 l 1,100,-1
EndSplineSet
Validated: 5
EndChar

StartChar: P
Encoding: 80 80 50
Width: 512
GlyphClass: 1
Flags: W
LayerCount: 2
Fore
SplineSet
128 512 m 1,0,-1
 192 512 l 1,1,-1
 192 448 l 1,2,-1
 128 448 l 1,3,-1
 128 512 l 1,0,-1
192 512 m 1,4,-1
 256 512 l 1,5,-1
 256 448 l 1,6,-1
 192 448 l 1,7,-1
 192 512 l 1,4,-1
256 512 m 1,8,-1
 320 512 l 1,9,-1
 320 448 l 1,10,-1
 256 448 l 1,11,-1
 256 512 l 1,8,-1
320 512 m 1,12,-1
 384 512 l 1,13,-1
 384 448 l 1,14,-1
 320 448 l 1,15,-1
 320 512 l 1,12,-1
384 512 m 1,16,-1
 448 512 l 1,17,-1
 448 448 l 1,18,-1
 384 448 l 1,19,-1
 384 512 l 1,16,-1
128 448 m 1,20,-1
 192 448 l 1,21,-1
 192 384 l 1,22,-1
 128 384 l 1,23,-1
 128 448 l 1,20,-1
192 448 m 1,24,-1
 256 448 l 1,25,-1
 256 384 l 1,26,-1
 192 384 l 1,27,-1
 192 448 l 1,24,-1
448 448 m 1,28,-1
 512 448 l 1,29,-1
 512 384 l 1,30,-1
 448 384 l 1,31,-1
 448 448 l 1,28,-1
128 384 m 1,32,-1
 192 384 l 1,33,-1
 192 320 l 1,34,-1
 128 320 l 1,35,-1
 128 384 l 1,32,-1
192 384 m 1,36,-1
 256 384 l 1,37,-1
 256 320 l 1,38,-1
 192 320 l 1,39,-1
 192 384 l 1,36,-1
448 384 m 1,40,-1
 512 384 l 1,41,-1
 512 320 l 1,42,-1
 448 320 l 1,43,-1
 448 384 l 1,40,-1
64 320 m 1,44,-1
 128 320 l 1,45,-1
 128 256 l 1,46,-1
 64 256 l 1,47,-1
 64 320 l 1,44,-1
128 320 m 1,48,-1
 192 320 l 1,49,-1
 192 256 l 1,50,-1
 128 256 l 1,51,-1
 128 320 l 1,48,-1
384 320 m 1,52,-1
 448 320 l 1,53,-1
 448 256 l 1,54,-1
 384 256 l 1,55,-1
 384 320 l 1,52,-1
64 256 m 1,56,-1
 128 256 l 1,57,-1
 128 192 l 1,58,-1
 64 192 l 1,59,-1
 64 256 l 1,56,-1
128 256 m 1,60,-1
 192 256 l 1,61,-1
 192 192 l 1,62,-1
 128 192 l 1,63,-1
 128 256 l 1,60,-1
384 256 m 1,64,-1
 448 256 l 1,65,-1
 448 192 l 1,66,-1
 384 192 l 1,67,-1
 384 256 l 1,64,-1
64 192 m 1,68,-1
 128 192 l 1,69,-1
 128 128 l 1,70,-1
 64 128 l 1,71,-1
 64 192 l 1,68,-1
128 192 m 1,72,-1
 192 192 l 1,73,-1
 192 128 l 1,74,-1
 128 128 l 1,75,-1
 128 192 l 1,72,-1
192 192 m 1,76,-1
 256 192 l 1,77,-1
 256 128 l 1,78,-1
 192 128 l 1,79,-1
 192 192 l 1,76,-1
256 192 m 1,80,-1
 320 192 l 1,81,-1
 320 128 l 1,82,-1
 256 128 l 1,83,-1
 256 192 l 1,80,-1
320 192 m 1,84,-1
 384 192 l 1,85,-1
 384 128 l 1,86,-1
 320 128 l 1,87,-1
 320 192 l 1,84,-1
0 128 m 1,88,-1
 64 128 l 1,89,-1
 64 64 l 1,90,-1
 0 64 l 1,91,-1
 0 128 l 1,88,-1
64 128 m 1,92,-1
 128 128 l 1,93,-1
 128 64 l 1,94,-1
 64 64 l 1,95,-1
 64 128 l 1,92,-1
0 64 m 1,96,-1
 64 64 l 1,97,-1
 64 0 l 1,98,-1
 0 0 l 1,99,-1
 0 64 l 1,96,-1
64 64 m 1,100,-1
 128 64 l 1,101,-1
 128 0 l 1,102,-1
 64 0 l 1,103,-1
 64 64 l 1,100,-1
EndSplineSet
Validated: 5
EndChar

StartChar: Q
Encoding: 81 81 51
Width: 512
GlyphClass: 1
Flags: W
LayerCount: 2
Fore
SplineSet
192 512 m 1,0,-1
 256 512 l 1,1,-1
 256 448 l 1,2,-1
 192 448 l 1,3,-1
 192 512 l 1,0,-1
256 512 m 1,4,-1
 320 512 l 1,5,-1
 320 448 l 1,6,-1
 256 448 l 1,7,-1
 256 512 l 1,4,-1
320 512 m 1,8,-1
 384 512 l 1,9,-1
 384 448 l 1,10,-1
 320 448 l 1,11,-1
 320 512 l 1,8,-1
384 512 m 1,12,-1
 448 512 l 1,13,-1
 448 448 l 1,14,-1
 384 448 l 1,15,-1
 384 512 l 1,12,-1
128 448 m 1,16,-1
 192 448 l 1,17,-1
 192 384 l 1,18,-1
 128 384 l 1,19,-1
 128 448 l 1,16,-1
192 448 m 1,20,-1
 256 448 l 1,21,-1
 256 384 l 1,22,-1
 192 384 l 1,23,-1
 192 448 l 1,20,-1
448 448 m 1,24,-1
 512 448 l 1,25,-1
 512 384 l 1,26,-1
 448 384 l 1,27,-1
 448 448 l 1,24,-1
128 384 m 1,28,-1
 192 384 l 1,29,-1
 192 320 l 1,30,-1
 128 320 l 1,31,-1
 128 384 l 1,28,-1
192 384 m 1,32,-1
 256 384 l 1,33,-1
 256 320 l 1,34,-1
 192 320 l 1,35,-1
 192 384 l 1,32,-1
448 384 m 1,36,-1
 512 384 l 1,37,-1
 512 320 l 1,38,-1
 448 320 l 1,39,-1
 448 384 l 1,36,-1
64 320 m 1,40,-1
 128 320 l 1,41,-1
 128 256 l 1,42,-1
 64 256 l 1,43,-1
 64 320 l 1,40,-1
128 320 m 1,44,-1
 192 320 l 1,45,-1
 192 256 l 1,46,-1
 128 256 l 1,47,-1
 128 320 l 1,44,-1
384 320 m 1,48,-1
 448 320 l 1,49,-1
 448 256 l 1,50,-1
 384 256 l 1,51,-1
 384 320 l 1,48,-1
64 256 m 1,52,-1
 128 256 l 1,53,-1
 128 192 l 1,54,-1
 64 192 l 1,55,-1
 64 256 l 1,52,-1
128 256 m 1,56,-1
 192 256 l 1,57,-1
 192 192 l 1,58,-1
 128 192 l 1,59,-1
 128 256 l 1,56,-1
384 256 m 1,60,-1
 448 256 l 1,61,-1
 448 192 l 1,62,-1
 384 192 l 1,63,-1
 384 256 l 1,60,-1
64 192 m 1,64,-1
 128 192 l 1,65,-1
 128 128 l 1,66,-1
 64 128 l 1,67,-1
 64 192 l 1,64,-1
128 192 m 1,68,-1
 192 192 l 1,69,-1
 192 128 l 1,70,-1
 128 128 l 1,71,-1
 128 192 l 1,68,-1
256 192 m 1,72,-1
 320 192 l 1,73,-1
 320 128 l 1,74,-1
 256 128 l 1,75,-1
 256 192 l 1,72,-1
384 192 m 1,76,-1
 448 192 l 1,77,-1
 448 128 l 1,78,-1
 384 128 l 1,79,-1
 384 192 l 1,76,-1
64 128 m 1,80,-1
 128 128 l 1,81,-1
 128 64 l 1,82,-1
 64 64 l 1,83,-1
 64 128 l 1,80,-1
256 128 m 1,84,-1
 320 128 l 1,85,-1
 320 64 l 1,86,-1
 256 64 l 1,87,-1
 256 128 l 1,84,-1
128 64 m 1,88,-1
 192 64 l 1,89,-1
 192 0 l 1,90,-1
 128 0 l 1,91,-1
 128 64 l 1,88,-1
192 64 m 1,92,-1
 256 64 l 1,93,-1
 256 0 l 1,94,-1
 192 0 l 1,95,-1
 192 64 l 1,92,-1
320 64 m 1,96,-1
 384 64 l 1,97,-1
 384 0 l 1,98,-1
 320 0 l 1,99,-1
 320 64 l 1,96,-1
EndSplineSet
Validated: 5
EndChar

StartChar: R
Encoding: 82 82 52
Width: 512
GlyphClass: 1
Flags: W
LayerCount: 2
Fore
SplineSet
128 512 m 1,0,-1
 192 512 l 1,1,-1
 192 448 l 1,2,-1
 128 448 l 1,3,-1
 128 512 l 1,0,-1
192 512 m 1,4,-1
 256 512 l 1,5,-1
 256 448 l 1,6,-1
 192 448 l 1,7,-1
 192 512 l 1,4,-1
256 512 m 1,8,-1
 320 512 l 1,9,-1
 320 448 l 1,10,-1
 256 448 l 1,11,-1
 256 512 l 1,8,-1
320 512 m 1,12,-1
 384 512 l 1,13,-1
 384 448 l 1,14,-1
 320 448 l 1,15,-1
 320 512 l 1,12,-1
384 512 m 1,16,-1
 448 512 l 1,17,-1
 448 448 l 1,18,-1
 384 448 l 1,19,-1
 384 512 l 1,16,-1
128 448 m 1,20,-1
 192 448 l 1,21,-1
 192 384 l 1,22,-1
 128 384 l 1,23,-1
 128 448 l 1,20,-1
192 448 m 1,24,-1
 256 448 l 1,25,-1
 256 384 l 1,26,-1
 192 384 l 1,27,-1
 192 448 l 1,24,-1
448 448 m 1,28,-1
 512 448 l 1,29,-1
 512 384 l 1,30,-1
 448 384 l 1,31,-1
 448 448 l 1,28,-1
128 384 m 1,32,-1
 192 384 l 1,33,-1
 192 320 l 1,34,-1
 128 320 l 1,35,-1
 128 384 l 1,32,-1
192 384 m 1,36,-1
 256 384 l 1,37,-1
 256 320 l 1,38,-1
 192 320 l 1,39,-1
 192 384 l 1,36,-1
448 384 m 1,40,-1
 512 384 l 1,41,-1
 512 320 l 1,42,-1
 448 320 l 1,43,-1
 448 384 l 1,40,-1
64 320 m 1,44,-1
 128 320 l 1,45,-1
 128 256 l 1,46,-1
 64 256 l 1,47,-1
 64 320 l 1,44,-1
128 320 m 1,48,-1
 192 320 l 1,49,-1
 192 256 l 1,50,-1
 128 256 l 1,51,-1
 128 320 l 1,48,-1
384 320 m 1,52,-1
 448 320 l 1,53,-1
 448 256 l 1,54,-1
 384 256 l 1,55,-1
 384 320 l 1,52,-1
64 256 m 1,56,-1
 128 256 l 1,57,-1
 128 192 l 1,58,-1
 64 192 l 1,59,-1
 64 256 l 1,56,-1
128 256 m 1,60,-1
 192 256 l 1,61,-1
 192 192 l 1,62,-1
 128 192 l 1,63,-1
 128 256 l 1,60,-1
384 256 m 1,64,-1
 448 256 l 1,65,-1
 448 192 l 1,66,-1
 384 192 l 1,67,-1
 384 256 l 1,64,-1
64 192 m 1,68,-1
 128 192 l 1,69,-1
 128 128 l 1,70,-1
 64 128 l 1,71,-1
 64 192 l 1,68,-1
128 192 m 1,72,-1
 192 192 l 1,73,-1
 192 128 l 1,74,-1
 128 128 l 1,75,-1
 128 192 l 1,72,-1
192 192 m 1,76,-1
 256 192 l 1,77,-1
 256 128 l 1,78,-1
 192 128 l 1,79,-1
 192 192 l 1,76,-1
256 192 m 1,80,-1
 320 192 l 1,81,-1
 320 128 l 1,82,-1
 256 128 l 1,83,-1
 256 192 l 1,80,-1
320 192 m 1,84,-1
 384 192 l 1,85,-1
 384 128 l 1,86,-1
 320 128 l 1,87,-1
 320 192 l 1,84,-1
0 128 m 1,88,-1
 64 128 l 1,89,-1
 64 64 l 1,90,-1
 0 64 l 1,91,-1
 0 128 l 1,88,-1
64 128 m 1,92,-1
 128 128 l 1,93,-1
 128 64 l 1,94,-1
 64 64 l 1,95,-1
 64 128 l 1,92,-1
320 128 m 1,96,-1
 384 128 l 1,97,-1
 384 64 l 1,98,-1
 320 64 l 1,99,-1
 320 128 l 1,96,-1
0 64 m 1,100,-1
 64 64 l 1,101,-1
 64 0 l 1,102,-1
 0 0 l 1,103,-1
 0 64 l 1,100,-1
64 64 m 1,104,-1
 128 64 l 1,105,-1
 128 0 l 1,106,-1
 64 0 l 1,107,-1
 64 64 l 1,104,-1
320 64 m 1,108,-1
 384 64 l 1,109,-1
 384 0 l 1,110,-1
 320 0 l 1,111,-1
 320 64 l 1,108,-1
EndSplineSet
Validated: 5
EndChar

StartChar: S
Encoding: 83 83 53
Width: 512
GlyphClass: 1
Flags: W
LayerCount: 2
Fore
SplineSet
192 512 m 1,0,-1
 256 512 l 1,1,-1
 256 448 l 1,2,-1
 192 448 l 1,3,-1
 192 512 l 1,0,-1
256 512 m 1,4,-1
 320 512 l 1,5,-1
 320 448 l 1,6,-1
 256 448 l 1,7,-1
 256 512 l 1,4,-1
320 512 m 1,8,-1
 384 512 l 1,9,-1
 384 448 l 1,10,-1
 320 448 l 1,11,-1
 320 512 l 1,8,-1
384 512 m 1,12,-1
 448 512 l 1,13,-1
 448 448 l 1,14,-1
 384 448 l 1,15,-1
 384 512 l 1,12,-1
128 448 m 1,16,-1
 192 448 l 1,17,-1
 192 384 l 1,18,-1
 128 384 l 1,19,-1
 128 448 l 1,16,-1
192 448 m 1,20,-1
 256 448 l 1,21,-1
 256 384 l 1,22,-1
 192 384 l 1,23,-1
 192 448 l 1,20,-1
448 448 m 1,24,-1
 512 448 l 1,25,-1
 512 384 l 1,26,-1
 448 384 l 1,27,-1
 448 448 l 1,24,-1
64 384 m 1,28,-1
 128 384 l 1,29,-1
 128 320 l 1,30,-1
 64 320 l 1,31,-1
 64 384 l 1,28,-1
128 384 m 1,32,-1
 192 384 l 1,33,-1
 192 320 l 1,34,-1
 128 320 l 1,35,-1
 128 384 l 1,32,-1
64 320 m 1,36,-1
 128 320 l 1,37,-1
 128 256 l 1,38,-1
 64 256 l 1,39,-1
 64 320 l 1,36,-1
128 320 m 1,40,-1
 192 320 l 1,41,-1
 192 256 l 1,42,-1
 128 256 l 1,43,-1
 128 320 l 1,40,-1
128 256 m 1,44,-1
 192 256 l 1,45,-1
 192 192 l 1,46,-1
 128 192 l 1,47,-1
 128 256 l 1,44,-1
192 256 m 1,48,-1
 256 256 l 1,49,-1
 256 192 l 1,50,-1
 192 192 l 1,51,-1
 192 256 l 1,48,-1
256 256 m 1,52,-1
 320 256 l 1,53,-1
 320 192 l 1,54,-1
 256 192 l 1,55,-1
 256 256 l 1,52,-1
320 256 m 1,56,-1
 384 256 l 1,57,-1
 384 192 l 1,58,-1
 320 192 l 1,59,-1
 320 256 l 1,56,-1
320 192 m 1,60,-1
 384 192 l 1,61,-1
 384 128 l 1,62,-1
 320 128 l 1,63,-1
 320 192 l 1,60,-1
384 192 m 1,64,-1
 448 192 l 1,65,-1
 448 128 l 1,66,-1
 384 128 l 1,67,-1
 384 192 l 1,64,-1
0 128 m 1,68,-1
 64 128 l 1,69,-1
 64 64 l 1,70,-1
 0 64 l 1,71,-1
 0 128 l 1,68,-1
256 128 m 1,72,-1
 320 128 l 1,73,-1
 320 64 l 1,74,-1
 256 64 l 1,75,-1
 256 128 l 1,72,-1
320 128 m 1,76,-1
 384 128 l 1,77,-1
 384 64 l 1,78,-1
 320 64 l 1,79,-1
 320 128 l 1,76,-1
384 128 m 1,80,-1
 448 128 l 1,81,-1
 448 64 l 1,82,-1
 384 64 l 1,83,-1
 384 128 l 1,80,-1
64 64 m 1,84,-1
 128 64 l 1,85,-1
 128 0 l 1,86,-1
 64 0 l 1,87,-1
 64 64 l 1,84,-1
128 64 m 1,88,-1
 192 64 l 1,89,-1
 192 0 l 1,90,-1
 128 0 l 1,91,-1
 128 64 l 1,88,-1
192 64 m 1,92,-1
 256 64 l 1,93,-1
 256 0 l 1,94,-1
 192 0 l 1,95,-1
 192 64 l 1,92,-1
256 64 m 1,96,-1
 320 64 l 1,97,-1
 320 0 l 1,98,-1
 256 0 l 1,99,-1
 256 64 l 1,96,-1
320 64 m 1,100,-1
 384 64 l 1,101,-1
 384 0 l 1,102,-1
 320 0 l 1,103,-1
 320 64 l 1,100,-1
EndSplineSet
Validated: 5
EndChar

StartChar: T
Encoding: 84 84 54
Width: 512
GlyphClass: 1
Flags: W
LayerCount: 2
Fore
SplineSet
128 512 m 1,0,-1
 192 512 l 1,1,-1
 192 448 l 1,2,-1
 128 448 l 1,3,-1
 128 512 l 1,0,-1
192 512 m 1,4,-1
 256 512 l 1,5,-1
 256 448 l 1,6,-1
 192 448 l 1,7,-1
 192 512 l 1,4,-1
256 512 m 1,8,-1
 320 512 l 1,9,-1
 320 448 l 1,10,-1
 256 448 l 1,11,-1
 256 512 l 1,8,-1
320 512 m 1,12,-1
 384 512 l 1,13,-1
 384 448 l 1,14,-1
 320 448 l 1,15,-1
 320 512 l 1,12,-1
384 512 m 1,16,-1
 448 512 l 1,17,-1
 448 448 l 1,18,-1
 384 448 l 1,19,-1
 384 512 l 1,16,-1
256 448 m 1,20,-1
 320 448 l 1,21,-1
 320 384 l 1,22,-1
 256 384 l 1,23,-1
 256 448 l 1,20,-1
320 448 m 1,24,-1
 384 448 l 1,25,-1
 384 384 l 1,26,-1
 320 384 l 1,27,-1
 320 448 l 1,24,-1
256 384 m 1,28,-1
 320 384 l 1,29,-1
 320 320 l 1,30,-1
 256 320 l 1,31,-1
 256 384 l 1,28,-1
320 384 m 1,32,-1
 384 384 l 1,33,-1
 384 320 l 1,34,-1
 320 320 l 1,35,-1
 320 384 l 1,32,-1
192 320 m 1,36,-1
 256 320 l 1,37,-1
 256 256 l 1,38,-1
 192 256 l 1,39,-1
 192 320 l 1,36,-1
256 320 m 1,40,-1
 320 320 l 1,41,-1
 320 256 l 1,42,-1
 256 256 l 1,43,-1
 256 320 l 1,40,-1
192 256 m 1,44,-1
 256 256 l 1,45,-1
 256 192 l 1,46,-1
 192 192 l 1,47,-1
 192 256 l 1,44,-1
256 256 m 1,48,-1
 320 256 l 1,49,-1
 320 192 l 1,50,-1
 256 192 l 1,51,-1
 256 256 l 1,48,-1
192 192 m 1,52,-1
 256 192 l 1,53,-1
 256 128 l 1,54,-1
 192 128 l 1,55,-1
 192 192 l 1,52,-1
256 192 m 1,56,-1
 320 192 l 1,57,-1
 320 128 l 1,58,-1
 256 128 l 1,59,-1
 256 192 l 1,56,-1
128 128 m 1,60,-1
 192 128 l 1,61,-1
 192 64 l 1,62,-1
 128 64 l 1,63,-1
 128 128 l 1,60,-1
192 128 m 1,64,-1
 256 128 l 1,65,-1
 256 64 l 1,66,-1
 192 64 l 1,67,-1
 192 128 l 1,64,-1
128 64 m 1,68,-1
 192 64 l 1,69,-1
 192 0 l 1,70,-1
 128 0 l 1,71,-1
 128 64 l 1,68,-1
192 64 m 1,72,-1
 256 64 l 1,73,-1
 256 0 l 1,74,-1
 192 0 l 1,75,-1
 192 64 l 1,72,-1
EndSplineSet
Validated: 5
EndChar

StartChar: U
Encoding: 85 85 55
Width: 512
GlyphClass: 1
Flags: W
LayerCount: 2
Fore
SplineSet
128 512 m 1,0,-1
 192 512 l 1,1,-1
 192 448 l 1,2,-1
 128 448 l 1,3,-1
 128 512 l 1,0,-1
192 512 m 1,4,-1
 256 512 l 1,5,-1
 256 448 l 1,6,-1
 192 448 l 1,7,-1
 192 512 l 1,4,-1
448 512 m 1,8,-1
 512 512 l 1,9,-1
 512 448 l 1,10,-1
 448 448 l 1,11,-1
 448 512 l 1,8,-1
128 448 m 1,12,-1
 192 448 l 1,13,-1
 192 384 l 1,14,-1
 128 384 l 1,15,-1
 128 448 l 1,12,-1
192 448 m 1,16,-1
 256 448 l 1,17,-1
 256 384 l 1,18,-1
 192 384 l 1,19,-1
 192 448 l 1,16,-1
448 448 m 1,20,-1
 512 448 l 1,21,-1
 512 384 l 1,22,-1
 448 384 l 1,23,-1
 448 448 l 1,20,-1
128 384 m 1,24,-1
 192 384 l 1,25,-1
 192 320 l 1,26,-1
 128 320 l 1,27,-1
 128 384 l 1,24,-1
192 384 m 1,28,-1
 256 384 l 1,29,-1
 256 320 l 1,30,-1
 192 320 l 1,31,-1
 192 384 l 1,28,-1
448 384 m 1,32,-1
 512 384 l 1,33,-1
 512 320 l 1,34,-1
 448 320 l 1,35,-1
 448 384 l 1,32,-1
64 320 m 1,36,-1
 128 320 l 1,37,-1
 128 256 l 1,38,-1
 64 256 l 1,39,-1
 64 320 l 1,36,-1
128 320 m 1,40,-1
 192 320 l 1,41,-1
 192 256 l 1,42,-1
 128 256 l 1,43,-1
 128 320 l 1,40,-1
384 320 m 1,44,-1
 448 320 l 1,45,-1
 448 256 l 1,46,-1
 384 256 l 1,47,-1
 384 320 l 1,44,-1
64 256 m 1,48,-1
 128 256 l 1,49,-1
 128 192 l 1,50,-1
 64 192 l 1,51,-1
 64 256 l 1,48,-1
128 256 m 1,52,-1
 192 256 l 1,53,-1
 192 192 l 1,54,-1
 128 192 l 1,55,-1
 128 256 l 1,52,-1
384 256 m 1,56,-1
 448 256 l 1,57,-1
 448 192 l 1,58,-1
 384 192 l 1,59,-1
 384 256 l 1,56,-1
0 192 m 1,60,-1
 64 192 l 1,61,-1
 64 128 l 1,62,-1
 0 128 l 1,63,-1
 0 192 l 1,60,-1
64 192 m 1,64,-1
 128 192 l 1,65,-1
 128 128 l 1,66,-1
 64 128 l 1,67,-1
 64 192 l 1,64,-1
320 192 m 1,68,-1
 384 192 l 1,69,-1
 384 128 l 1,70,-1
 320 128 l 1,71,-1
 320 192 l 1,68,-1
0 128 m 1,72,-1
 64 128 l 1,73,-1
 64 64 l 1,74,-1
 0 64 l 1,75,-1
 0 128 l 1,72,-1
64 128 m 1,76,-1
 128 128 l 1,77,-1
 128 64 l 1,78,-1
 64 64 l 1,79,-1
 64 128 l 1,76,-1
320 128 m 1,80,-1
 384 128 l 1,81,-1
 384 64 l 1,82,-1
 320 64 l 1,83,-1
 320 128 l 1,80,-1
64 64 m 1,84,-1
 128 64 l 1,85,-1
 128 0 l 1,86,-1
 64 0 l 1,87,-1
 64 64 l 1,84,-1
128 64 m 1,88,-1
 192 64 l 1,89,-1
 192 0 l 1,90,-1
 128 0 l 1,91,-1
 128 64 l 1,88,-1
192 64 m 1,92,-1
 256 64 l 1,93,-1
 256 0 l 1,94,-1
 192 0 l 1,95,-1
 192 64 l 1,92,-1
256 64 m 1,96,-1
 320 64 l 1,97,-1
 320 0 l 1,98,-1
 256 0 l 1,99,-1
 256 64 l 1,96,-1
EndSplineSet
Validated: 5
EndChar

StartChar: V
Encoding: 86 86 56
Width: 512
GlyphClass: 1
Flags: W
LayerCount: 2
Fore
SplineSet
128 512 m 1,0,-1
 192 512 l 1,1,-1
 192 448 l 1,2,-1
 128 448 l 1,3,-1
 128 512 l 1,0,-1
192 512 m 1,4,-1
 256 512 l 1,5,-1
 256 448 l 1,6,-1
 192 448 l 1,7,-1
 192 512 l 1,4,-1
448 512 m 1,8,-1
 512 512 l 1,9,-1
 512 448 l 1,10,-1
 448 448 l 1,11,-1
 448 512 l 1,8,-1
128 448 m 1,12,-1
 192 448 l 1,13,-1
 192 384 l 1,14,-1
 128 384 l 1,15,-1
 128 448 l 1,12,-1
192 448 m 1,16,-1
 256 448 l 1,17,-1
 256 384 l 1,18,-1
 192 384 l 1,19,-1
 192 448 l 1,16,-1
448 448 m 1,20,-1
 512 448 l 1,21,-1
 512 384 l 1,22,-1
 448 384 l 1,23,-1
 448 448 l 1,20,-1
128 384 m 1,24,-1
 192 384 l 1,25,-1
 192 320 l 1,26,-1
 128 320 l 1,27,-1
 128 384 l 1,24,-1
192 384 m 1,28,-1
 256 384 l 1,29,-1
 256 320 l 1,30,-1
 192 320 l 1,31,-1
 192 384 l 1,28,-1
448 384 m 1,32,-1
 512 384 l 1,33,-1
 512 320 l 1,34,-1
 448 320 l 1,35,-1
 448 384 l 1,32,-1
64 320 m 1,36,-1
 128 320 l 1,37,-1
 128 256 l 1,38,-1
 64 256 l 1,39,-1
 64 320 l 1,36,-1
128 320 m 1,40,-1
 192 320 l 1,41,-1
 192 256 l 1,42,-1
 128 256 l 1,43,-1
 128 320 l 1,40,-1
384 320 m 1,44,-1
 448 320 l 1,45,-1
 448 256 l 1,46,-1
 384 256 l 1,47,-1
 384 320 l 1,44,-1
64 256 m 1,48,-1
 128 256 l 1,49,-1
 128 192 l 1,50,-1
 64 192 l 1,51,-1
 64 256 l 1,48,-1
128 256 m 1,52,-1
 192 256 l 1,53,-1
 192 192 l 1,54,-1
 128 192 l 1,55,-1
 128 256 l 1,52,-1
384 256 m 1,56,-1
 448 256 l 1,57,-1
 448 192 l 1,58,-1
 384 192 l 1,59,-1
 384 256 l 1,56,-1
64 192 m 1,60,-1
 128 192 l 1,61,-1
 128 128 l 1,62,-1
 64 128 l 1,63,-1
 64 192 l 1,60,-1
128 192 m 1,64,-1
 192 192 l 1,65,-1
 192 128 l 1,66,-1
 128 128 l 1,67,-1
 128 192 l 1,64,-1
320 192 m 1,68,-1
 384 192 l 1,69,-1
 384 128 l 1,70,-1
 320 128 l 1,71,-1
 320 192 l 1,68,-1
128 128 m 1,72,-1
 192 128 l 1,73,-1
 192 64 l 1,74,-1
 128 64 l 1,75,-1
 128 128 l 1,72,-1
192 128 m 1,76,-1
 256 128 l 1,77,-1
 256 64 l 1,78,-1
 192 64 l 1,79,-1
 192 128 l 1,76,-1
256 128 m 1,80,-1
 320 128 l 1,81,-1
 320 64 l 1,82,-1
 256 64 l 1,83,-1
 256 128 l 1,80,-1
192 64 m 1,84,-1
 256 64 l 1,85,-1
 256 0 l 1,86,-1
 192 0 l 1,87,-1
 192 64 l 1,84,-1
EndSplineSet
Validated: 5
EndChar

StartChar: W
Encoding: 87 87 57
Width: 512
GlyphClass: 1
Flags: W
LayerCount: 2
Fore
SplineSet
64 512 m 1,0,-1
 128 512 l 1,1,-1
 128 448 l 1,2,-1
 64 448 l 1,3,-1
 64 512 l 1,0,-1
128 512 m 1,4,-1
 192 512 l 1,5,-1
 192 448 l 1,6,-1
 128 448 l 1,7,-1
 128 512 l 1,4,-1
448 512 m 1,8,-1
 512 512 l 1,9,-1
 512 448 l 1,10,-1
 448 448 l 1,11,-1
 448 512 l 1,8,-1
64 448 m 1,12,-1
 128 448 l 1,13,-1
 128 384 l 1,14,-1
 64 384 l 1,15,-1
 64 448 l 1,12,-1
128 448 m 1,16,-1
 192 448 l 1,17,-1
 192 384 l 1,18,-1
 128 384 l 1,19,-1
 128 448 l 1,16,-1
448 448 m 1,20,-1
 512 448 l 1,21,-1
 512 384 l 1,22,-1
 448 384 l 1,23,-1
 448 448 l 1,20,-1
64 384 m 1,24,-1
 128 384 l 1,25,-1
 128 320 l 1,26,-1
 64 320 l 1,27,-1
 64 384 l 1,24,-1
128 384 m 1,28,-1
 192 384 l 1,29,-1
 192 320 l 1,30,-1
 128 320 l 1,31,-1
 128 384 l 1,28,-1
448 384 m 1,32,-1
 512 384 l 1,33,-1
 512 320 l 1,34,-1
 448 320 l 1,35,-1
 448 384 l 1,32,-1
0 320 m 1,36,-1
 64 320 l 1,37,-1
 64 256 l 1,38,-1
 0 256 l 1,39,-1
 0 320 l 1,36,-1
64 320 m 1,40,-1
 128 320 l 1,41,-1
 128 256 l 1,42,-1
 64 256 l 1,43,-1
 64 320 l 1,40,-1
384 320 m 1,44,-1
 448 320 l 1,45,-1
 448 256 l 1,46,-1
 384 256 l 1,47,-1
 384 320 l 1,44,-1
0 256 m 1,48,-1
 64 256 l 1,49,-1
 64 192 l 1,50,-1
 0 192 l 1,51,-1
 0 256 l 1,48,-1
64 256 m 1,52,-1
 128 256 l 1,53,-1
 128 192 l 1,54,-1
 64 192 l 1,55,-1
 64 256 l 1,52,-1
192 256 m 1,56,-1
 256 256 l 1,57,-1
 256 192 l 1,58,-1
 192 192 l 1,59,-1
 192 256 l 1,56,-1
256 256 m 1,60,-1
 320 256 l 1,61,-1
 320 192 l 1,62,-1
 256 192 l 1,63,-1
 256 256 l 1,60,-1
384 256 m 1,64,-1
 448 256 l 1,65,-1
 448 192 l 1,66,-1
 384 192 l 1,67,-1
 384 256 l 1,64,-1
0 192 m 1,68,-1
 64 192 l 1,69,-1
 64 128 l 1,70,-1
 0 128 l 1,71,-1
 0 192 l 1,68,-1
64 192 m 1,72,-1
 128 192 l 1,73,-1
 128 128 l 1,74,-1
 64 128 l 1,75,-1
 64 192 l 1,72,-1
192 192 m 1,76,-1
 256 192 l 1,77,-1
 256 128 l 1,78,-1
 192 128 l 1,79,-1
 192 192 l 1,76,-1
256 192 m 1,80,-1
 320 192 l 1,81,-1
 320 128 l 1,82,-1
 256 128 l 1,83,-1
 256 192 l 1,80,-1
384 192 m 1,84,-1
 448 192 l 1,85,-1
 448 128 l 1,86,-1
 384 128 l 1,87,-1
 384 192 l 1,84,-1
0 128 m 1,88,-1
 64 128 l 1,89,-1
 64 64 l 1,90,-1
 0 64 l 1,91,-1
 0 128 l 1,88,-1
64 128 m 1,92,-1
 128 128 l 1,93,-1
 128 64 l 1,94,-1
 64 64 l 1,95,-1
 64 128 l 1,92,-1
128 128 m 1,96,-1
 192 128 l 1,97,-1
 192 64 l 1,98,-1
 128 64 l 1,99,-1
 128 128 l 1,96,-1
192 128 m 1,100,-1
 256 128 l 1,101,-1
 256 64 l 1,102,-1
 192 64 l 1,103,-1
 192 128 l 1,100,-1
256 128 m 1,104,-1
 320 128 l 1,105,-1
 320 64 l 1,106,-1
 256 64 l 1,107,-1
 256 128 l 1,104,-1
320 128 m 1,108,-1
 384 128 l 1,109,-1
 384 64 l 1,110,-1
 320 64 l 1,111,-1
 320 128 l 1,108,-1
0 64 m 1,112,-1
 64 64 l 1,113,-1
 64 0 l 1,114,-1
 0 0 l 1,115,-1
 0 64 l 1,112,-1
64 64 m 1,116,-1
 128 64 l 1,117,-1
 128 0 l 1,118,-1
 64 0 l 1,119,-1
 64 64 l 1,116,-1
192 64 m 1,120,-1
 256 64 l 1,121,-1
 256 0 l 1,122,-1
 192 0 l 1,123,-1
 192 64 l 1,120,-1
EndSplineSet
Validated: 5
EndChar

StartChar: X
Encoding: 88 88 58
Width: 512
GlyphClass: 1
Flags: W
LayerCount: 2
Fore
SplineSet
192 512 m 1,0,-1
 256 512 l 1,1,-1
 256 448 l 1,2,-1
 192 448 l 1,3,-1
 192 512 l 1,0,-1
256 512 m 1,4,-1
 320 512 l 1,5,-1
 320 448 l 1,6,-1
 256 448 l 1,7,-1
 256 512 l 1,4,-1
448 512 m 1,8,-1
 512 512 l 1,9,-1
 512 448 l 1,10,-1
 448 448 l 1,11,-1
 448 512 l 1,8,-1
192 448 m 1,12,-1
 256 448 l 1,13,-1
 256 384 l 1,14,-1
 192 384 l 1,15,-1
 192 448 l 1,12,-1
256 448 m 1,16,-1
 320 448 l 1,17,-1
 320 384 l 1,18,-1
 256 384 l 1,19,-1
 256 448 l 1,16,-1
448 448 m 1,20,-1
 512 448 l 1,21,-1
 512 384 l 1,22,-1
 448 384 l 1,23,-1
 448 448 l 1,20,-1
128 384 m 1,24,-1
 192 384 l 1,25,-1
 192 320 l 1,26,-1
 128 320 l 1,27,-1
 128 384 l 1,24,-1
192 384 m 1,28,-1
 256 384 l 1,29,-1
 256 320 l 1,30,-1
 192 320 l 1,31,-1
 192 384 l 1,28,-1
384 384 m 1,32,-1
 448 384 l 1,33,-1
 448 320 l 1,34,-1
 384 320 l 1,35,-1
 384 384 l 1,32,-1
128 320 m 1,36,-1
 192 320 l 1,37,-1
 192 256 l 1,38,-1
 128 256 l 1,39,-1
 128 320 l 1,36,-1
192 320 m 1,40,-1
 256 320 l 1,41,-1
 256 256 l 1,42,-1
 192 256 l 1,43,-1
 192 320 l 1,40,-1
384 320 m 1,44,-1
 448 320 l 1,45,-1
 448 256 l 1,46,-1
 384 256 l 1,47,-1
 384 320 l 1,44,-1
128 256 m 1,48,-1
 192 256 l 1,49,-1
 192 192 l 1,50,-1
 128 192 l 1,51,-1
 128 256 l 1,48,-1
192 256 m 1,52,-1
 256 256 l 1,53,-1
 256 192 l 1,54,-1
 192 192 l 1,55,-1
 192 256 l 1,52,-1
320 256 m 1,56,-1
 384 256 l 1,57,-1
 384 192 l 1,58,-1
 320 192 l 1,59,-1
 320 256 l 1,56,-1
192 192 m 1,60,-1
 256 192 l 1,61,-1
 256 128 l 1,62,-1
 192 128 l 1,63,-1
 192 192 l 1,60,-1
256 192 m 1,64,-1
 320 192 l 1,65,-1
 320 128 l 1,66,-1
 256 128 l 1,67,-1
 256 192 l 1,64,-1
64 128 m 1,68,-1
 128 128 l 1,69,-1
 128 64 l 1,70,-1
 64 64 l 1,71,-1
 64 128 l 1,68,-1
128 128 m 1,72,-1
 192 128 l 1,73,-1
 192 64 l 1,74,-1
 128 64 l 1,75,-1
 128 128 l 1,72,-1
256 128 m 1,76,-1
 320 128 l 1,77,-1
 320 64 l 1,78,-1
 256 64 l 1,79,-1
 256 128 l 1,76,-1
320 128 m 1,80,-1
 384 128 l 1,81,-1
 384 64 l 1,82,-1
 320 64 l 1,83,-1
 320 128 l 1,80,-1
0 64 m 1,84,-1
 64 64 l 1,85,-1
 64 0 l 1,86,-1
 0 0 l 1,87,-1
 0 64 l 1,84,-1
256 64 m 1,88,-1
 320 64 l 1,89,-1
 320 0 l 1,90,-1
 256 0 l 1,91,-1
 256 64 l 1,88,-1
320 64 m 1,92,-1
 384 64 l 1,93,-1
 384 0 l 1,94,-1
 320 0 l 1,95,-1
 320 64 l 1,92,-1
EndSplineSet
Validated: 5
EndChar

StartChar: Y
Encoding: 89 89 59
Width: 512
GlyphClass: 1
Flags: W
LayerCount: 2
Fore
SplineSet
128 512 m 1,0,-1
 192 512 l 1,1,-1
 192 448 l 1,2,-1
 128 448 l 1,3,-1
 128 512 l 1,0,-1
384 512 m 1,4,-1
 448 512 l 1,5,-1
 448 448 l 1,6,-1
 384 448 l 1,7,-1
 384 512 l 1,4,-1
448 512 m 1,8,-1
 512 512 l 1,9,-1
 512 448 l 1,10,-1
 448 448 l 1,11,-1
 448 512 l 1,8,-1
128 448 m 1,12,-1
 192 448 l 1,13,-1
 192 384 l 1,14,-1
 128 384 l 1,15,-1
 128 448 l 1,12,-1
384 448 m 1,16,-1
 448 448 l 1,17,-1
 448 384 l 1,18,-1
 384 384 l 1,19,-1
 384 448 l 1,16,-1
448 448 m 1,20,-1
 512 448 l 1,21,-1
 512 384 l 1,22,-1
 448 384 l 1,23,-1
 448 448 l 1,20,-1
128 384 m 1,24,-1
 192 384 l 1,25,-1
 192 320 l 1,26,-1
 128 320 l 1,27,-1
 128 384 l 1,24,-1
384 384 m 1,28,-1
 448 384 l 1,29,-1
 448 320 l 1,30,-1
 384 320 l 1,31,-1
 384 384 l 1,28,-1
448 384 m 1,32,-1
 512 384 l 1,33,-1
 512 320 l 1,34,-1
 448 320 l 1,35,-1
 448 384 l 1,32,-1
64 320 m 1,36,-1
 128 320 l 1,37,-1
 128 256 l 1,38,-1
 64 256 l 1,39,-1
 64 320 l 1,36,-1
320 320 m 1,40,-1
 384 320 l 1,41,-1
 384 256 l 1,42,-1
 320 256 l 1,43,-1
 320 320 l 1,40,-1
384 320 m 1,44,-1
 448 320 l 1,45,-1
 448 256 l 1,46,-1
 384 256 l 1,47,-1
 384 320 l 1,44,-1
64 256 m 1,48,-1
 128 256 l 1,49,-1
 128 192 l 1,50,-1
 64 192 l 1,51,-1
 64 256 l 1,48,-1
256 256 m 1,52,-1
 320 256 l 1,53,-1
 320 192 l 1,54,-1
 256 192 l 1,55,-1
 256 256 l 1,52,-1
320 256 m 1,56,-1
 384 256 l 1,57,-1
 384 192 l 1,58,-1
 320 192 l 1,59,-1
 320 256 l 1,56,-1
384 256 m 1,60,-1
 448 256 l 1,61,-1
 448 192 l 1,62,-1
 384 192 l 1,63,-1
 384 256 l 1,60,-1
128 192 m 1,64,-1
 192 192 l 1,65,-1
 192 128 l 1,66,-1
 128 128 l 1,67,-1
 128 192 l 1,64,-1
192 192 m 1,68,-1
 256 192 l 1,69,-1
 256 128 l 1,70,-1
 192 128 l 1,71,-1
 192 192 l 1,68,-1
320 192 m 1,72,-1
 384 192 l 1,73,-1
 384 128 l 1,74,-1
 320 128 l 1,75,-1
 320 192 l 1,72,-1
384 192 m 1,76,-1
 448 192 l 1,77,-1
 448 128 l 1,78,-1
 384 128 l 1,79,-1
 384 192 l 1,76,-1
256 128 m 1,80,-1
 320 128 l 1,81,-1
 320 64 l 1,82,-1
 256 64 l 1,83,-1
 256 128 l 1,80,-1
320 128 m 1,84,-1
 384 128 l 1,85,-1
 384 64 l 1,86,-1
 320 64 l 1,87,-1
 320 128 l 1,84,-1
64 64 m 1,88,-1
 128 64 l 1,89,-1
 128 0 l 1,90,-1
 64 0 l 1,91,-1
 64 64 l 1,88,-1
128 64 m 1,92,-1
 192 64 l 1,93,-1
 192 0 l 1,94,-1
 128 0 l 1,95,-1
 128 64 l 1,92,-1
192 64 m 1,96,-1
 256 64 l 1,97,-1
 256 0 l 1,98,-1
 192 0 l 1,99,-1
 192 64 l 1,96,-1
256 64 m 1,100,-1
 320 64 l 1,101,-1
 320 0 l 1,102,-1
 256 0 l 1,103,-1
 256 64 l 1,100,-1
EndSplineSet
Validated: 5
EndChar

StartChar: Z
Encoding: 90 90 60
Width: 512
GlyphClass: 1
Flags: W
LayerCount: 2
Fore
SplineSet
128 512 m 1,0,-1
 192 512 l 1,1,-1
 192 448 l 1,2,-1
 128 448 l 1,3,-1
 128 512 l 1,0,-1
192 512 m 1,4,-1
 256 512 l 1,5,-1
 256 448 l 1,6,-1
 192 448 l 1,7,-1
 192 512 l 1,4,-1
256 512 m 1,8,-1
 320 512 l 1,9,-1
 320 448 l 1,10,-1
 256 448 l 1,11,-1
 256 512 l 1,8,-1
320 512 m 1,12,-1
 384 512 l 1,13,-1
 384 448 l 1,14,-1
 320 448 l 1,15,-1
 320 512 l 1,12,-1
384 512 m 1,16,-1
 448 512 l 1,17,-1
 448 448 l 1,18,-1
 384 448 l 1,19,-1
 384 512 l 1,16,-1
448 512 m 1,20,-1
 512 512 l 1,21,-1
 512 448 l 1,22,-1
 448 448 l 1,23,-1
 448 512 l 1,20,-1
384 448 m 1,24,-1
 448 448 l 1,25,-1
 448 384 l 1,26,-1
 384 384 l 1,27,-1
 384 448 l 1,24,-1
448 448 m 1,28,-1
 512 448 l 1,29,-1
 512 384 l 1,30,-1
 448 384 l 1,31,-1
 448 448 l 1,28,-1
384 384 m 1,32,-1
 448 384 l 1,33,-1
 448 320 l 1,34,-1
 384 320 l 1,35,-1
 384 384 l 1,32,-1
448 384 m 1,36,-1
 512 384 l 1,37,-1
 512 320 l 1,38,-1
 448 320 l 1,39,-1
 448 384 l 1,36,-1
384 320 m 1,40,-1
 448 320 l 1,41,-1
 448 256 l 1,42,-1
 384 256 l 1,43,-1
 384 320 l 1,40,-1
256 256 m 1,44,-1
 320 256 l 1,45,-1
 320 192 l 1,46,-1
 256 192 l 1,47,-1
 256 256 l 1,44,-1
320 256 m 1,48,-1
 384 256 l 1,49,-1
 384 192 l 1,50,-1
 320 192 l 1,51,-1
 320 256 l 1,48,-1
64 192 m 1,52,-1
 128 192 l 1,53,-1
 128 128 l 1,54,-1
 64 128 l 1,55,-1
 64 192 l 1,52,-1
128 192 m 1,56,-1
 192 192 l 1,57,-1
 192 128 l 1,58,-1
 128 128 l 1,59,-1
 128 192 l 1,56,-1
192 192 m 1,60,-1
 256 192 l 1,61,-1
 256 128 l 1,62,-1
 192 128 l 1,63,-1
 192 192 l 1,60,-1
256 192 m 1,64,-1
 320 192 l 1,65,-1
 320 128 l 1,66,-1
 256 128 l 1,67,-1
 256 192 l 1,64,-1
0 128 m 1,68,-1
 64 128 l 1,69,-1
 64 64 l 1,70,-1
 0 64 l 1,71,-1
 0 128 l 1,68,-1
64 128 m 1,72,-1
 128 128 l 1,73,-1
 128 64 l 1,74,-1
 64 64 l 1,75,-1
 64 128 l 1,72,-1
0 64 m 1,76,-1
 64 64 l 1,77,-1
 64 0 l 1,78,-1
 0 0 l 1,79,-1
 0 64 l 1,76,-1
64 64 m 1,80,-1
 128 64 l 1,81,-1
 128 0 l 1,82,-1
 64 0 l 1,83,-1
 64 64 l 1,80,-1
128 64 m 1,84,-1
 192 64 l 1,85,-1
 192 0 l 1,86,-1
 128 0 l 1,87,-1
 128 64 l 1,84,-1
192 64 m 1,88,-1
 256 64 l 1,89,-1
 256 0 l 1,90,-1
 192 0 l 1,91,-1
 192 64 l 1,88,-1
256 64 m 1,92,-1
 320 64 l 1,93,-1
 320 0 l 1,94,-1
 256 0 l 1,95,-1
 256 64 l 1,92,-1
320 64 m 1,96,-1
 384 64 l 1,97,-1
 384 0 l 1,98,-1
 320 0 l 1,99,-1
 320 64 l 1,96,-1
EndSplineSet
Validated: 5
EndChar

StartChar: bracketleft
Encoding: 91 91 61
Width: 512
GlyphClass: 1
Flags: W
LayerCount: 2
Fore
SplineSet
192 512 m 1,0,-1
 256 512 l 1,1,-1
 256 448 l 1,2,-1
 192 448 l 1,3,-1
 192 512 l 1,0,-1
256 512 m 1,4,-1
 320 512 l 1,5,-1
 320 448 l 1,6,-1
 256 448 l 1,7,-1
 256 512 l 1,4,-1
320 512 m 1,8,-1
 384 512 l 1,9,-1
 384 448 l 1,10,-1
 320 448 l 1,11,-1
 320 512 l 1,8,-1
384 512 m 1,12,-1
 448 512 l 1,13,-1
 448 448 l 1,14,-1
 384 448 l 1,15,-1
 384 512 l 1,12,-1
192 448 m 1,16,-1
 256 448 l 1,17,-1
 256 384 l 1,18,-1
 192 384 l 1,19,-1
 192 448 l 1,16,-1
256 448 m 1,20,-1
 320 448 l 1,21,-1
 320 384 l 1,22,-1
 256 384 l 1,23,-1
 256 448 l 1,20,-1
192 384 m 1,24,-1
 256 384 l 1,25,-1
 256 320 l 1,26,-1
 192 320 l 1,27,-1
 192 384 l 1,24,-1
256 384 m 1,28,-1
 320 384 l 1,29,-1
 320 320 l 1,30,-1
 256 320 l 1,31,-1
 256 384 l 1,28,-1
192 320 m 1,32,-1
 256 320 l 1,33,-1
 256 256 l 1,34,-1
 192 256 l 1,35,-1
 192 320 l 1,32,-1
256 320 m 1,36,-1
 320 320 l 1,37,-1
 320 256 l 1,38,-1
 256 256 l 1,39,-1
 256 320 l 1,36,-1
128 256 m 1,40,-1
 192 256 l 1,41,-1
 192 192 l 1,42,-1
 128 192 l 1,43,-1
 128 256 l 1,40,-1
192 256 m 1,44,-1
 256 256 l 1,45,-1
 256 192 l 1,46,-1
 192 192 l 1,47,-1
 192 256 l 1,44,-1
128 192 m 1,48,-1
 192 192 l 1,49,-1
 192 128 l 1,50,-1
 128 128 l 1,51,-1
 128 192 l 1,48,-1
192 192 m 1,52,-1
 256 192 l 1,53,-1
 256 128 l 1,54,-1
 192 128 l 1,55,-1
 192 192 l 1,52,-1
128 128 m 1,56,-1
 192 128 l 1,57,-1
 192 64 l 1,58,-1
 128 64 l 1,59,-1
 128 128 l 1,56,-1
192 128 m 1,60,-1
 256 128 l 1,61,-1
 256 64 l 1,62,-1
 192 64 l 1,63,-1
 192 128 l 1,60,-1
128 64 m 1,64,-1
 192 64 l 1,65,-1
 192 0 l 1,66,-1
 128 0 l 1,67,-1
 128 64 l 1,64,-1
192 64 m 1,68,-1
 256 64 l 1,69,-1
 256 0 l 1,70,-1
 192 0 l 1,71,-1
 192 64 l 1,68,-1
128 0 m 1,72,-1
 192 0 l 1,73,-1
 192 -64 l 1,74,-1
 128 -64 l 1,75,-1
 128 0 l 1,72,-1
192 0 m 1,76,-1
 256 0 l 1,77,-1
 256 -64 l 1,78,-1
 192 -64 l 1,79,-1
 192 0 l 1,76,-1
256 0 m 1,80,-1
 320 0 l 1,81,-1
 320 -64 l 1,82,-1
 256 -64 l 1,83,-1
 256 0 l 1,80,-1
320 0 m 1,84,-1
 384 0 l 1,85,-1
 384 -64 l 1,86,-1
 320 -64 l 1,87,-1
 320 0 l 1,84,-1
EndSplineSet
Validated: 5
EndChar

StartChar: backslash
Encoding: 92 92 62
Width: 512
GlyphClass: 1
Flags: W
LayerCount: 2
Fore
SplineSet
128 512 m 1,0,-1
 192 512 l 1,1,-1
 192 448 l 1,2,-1
 128 448 l 1,3,-1
 128 512 l 1,0,-1
192 512 m 1,4,-1
 256 512 l 1,5,-1
 256 448 l 1,6,-1
 192 448 l 1,7,-1
 192 512 l 1,4,-1
128 448 m 1,8,-1
 192 448 l 1,9,-1
 192 384 l 1,10,-1
 128 384 l 1,11,-1
 128 448 l 1,8,-1
192 448 m 1,12,-1
 256 448 l 1,13,-1
 256 384 l 1,14,-1
 192 384 l 1,15,-1
 192 448 l 1,12,-1
192 384 m 1,16,-1
 256 384 l 1,17,-1
 256 320 l 1,18,-1
 192 320 l 1,19,-1
 192 384 l 1,16,-1
256 384 m 1,20,-1
 320 384 l 1,21,-1
 320 320 l 1,22,-1
 256 320 l 1,23,-1
 256 384 l 1,20,-1
192 320 m 1,24,-1
 256 320 l 1,25,-1
 256 256 l 1,26,-1
 192 256 l 1,27,-1
 192 320 l 1,24,-1
256 320 m 1,28,-1
 320 320 l 1,29,-1
 320 256 l 1,30,-1
 256 256 l 1,31,-1
 256 320 l 1,28,-1
192 256 m 1,32,-1
 256 256 l 1,33,-1
 256 192 l 1,34,-1
 192 192 l 1,35,-1
 192 256 l 1,32,-1
256 256 m 1,36,-1
 320 256 l 1,37,-1
 320 192 l 1,38,-1
 256 192 l 1,39,-1
 256 256 l 1,36,-1
256 192 m 1,40,-1
 320 192 l 1,41,-1
 320 128 l 1,42,-1
 256 128 l 1,43,-1
 256 192 l 1,40,-1
320 192 m 1,44,-1
 384 192 l 1,45,-1
 384 128 l 1,46,-1
 320 128 l 1,47,-1
 320 192 l 1,44,-1
256 128 m 1,48,-1
 320 128 l 1,49,-1
 320 64 l 1,50,-1
 256 64 l 1,51,-1
 256 128 l 1,48,-1
320 128 m 1,52,-1
 384 128 l 1,53,-1
 384 64 l 1,54,-1
 320 64 l 1,55,-1
 320 128 l 1,52,-1
256 64 m 1,56,-1
 320 64 l 1,57,-1
 320 0 l 1,58,-1
 256 0 l 1,59,-1
 256 64 l 1,56,-1
320 64 m 1,60,-1
 384 64 l 1,61,-1
 384 0 l 1,62,-1
 320 0 l 1,63,-1
 320 64 l 1,60,-1
EndSplineSet
Validated: 5
EndChar

StartChar: bracketright
Encoding: 93 93 63
Width: 512
GlyphClass: 1
Flags: W
LayerCount: 2
Fore
SplineSet
192 512 m 1,0,-1
 256 512 l 1,1,-1
 256 448 l 1,2,-1
 192 448 l 1,3,-1
 192 512 l 1,0,-1
256 512 m 1,4,-1
 320 512 l 1,5,-1
 320 448 l 1,6,-1
 256 448 l 1,7,-1
 256 512 l 1,4,-1
320 512 m 1,8,-1
 384 512 l 1,9,-1
 384 448 l 1,10,-1
 320 448 l 1,11,-1
 320 512 l 1,8,-1
384 512 m 1,12,-1
 448 512 l 1,13,-1
 448 448 l 1,14,-1
 384 448 l 1,15,-1
 384 512 l 1,12,-1
320 448 m 1,16,-1
 384 448 l 1,17,-1
 384 384 l 1,18,-1
 320 384 l 1,19,-1
 320 448 l 1,16,-1
384 448 m 1,20,-1
 448 448 l 1,21,-1
 448 384 l 1,22,-1
 384 384 l 1,23,-1
 384 448 l 1,20,-1
320 384 m 1,24,-1
 384 384 l 1,25,-1
 384 320 l 1,26,-1
 320 320 l 1,27,-1
 320 384 l 1,24,-1
384 384 m 1,28,-1
 448 384 l 1,29,-1
 448 320 l 1,30,-1
 384 320 l 1,31,-1
 384 384 l 1,28,-1
320 320 m 1,32,-1
 384 320 l 1,33,-1
 384 256 l 1,34,-1
 320 256 l 1,35,-1
 320 320 l 1,32,-1
384 320 m 1,36,-1
 448 320 l 1,37,-1
 448 256 l 1,38,-1
 384 256 l 1,39,-1
 384 320 l 1,36,-1
256 256 m 1,40,-1
 320 256 l 1,41,-1
 320 192 l 1,42,-1
 256 192 l 1,43,-1
 256 256 l 1,40,-1
320 256 m 1,44,-1
 384 256 l 1,45,-1
 384 192 l 1,46,-1
 320 192 l 1,47,-1
 320 256 l 1,44,-1
256 192 m 1,48,-1
 320 192 l 1,49,-1
 320 128 l 1,50,-1
 256 128 l 1,51,-1
 256 192 l 1,48,-1
320 192 m 1,52,-1
 384 192 l 1,53,-1
 384 128 l 1,54,-1
 320 128 l 1,55,-1
 320 192 l 1,52,-1
256 128 m 1,56,-1
 320 128 l 1,57,-1
 320 64 l 1,58,-1
 256 64 l 1,59,-1
 256 128 l 1,56,-1
320 128 m 1,60,-1
 384 128 l 1,61,-1
 384 64 l 1,62,-1
 320 64 l 1,63,-1
 320 128 l 1,60,-1
256 64 m 1,64,-1
 320 64 l 1,65,-1
 320 0 l 1,66,-1
 256 0 l 1,67,-1
 256 64 l 1,64,-1
320 64 m 1,68,-1
 384 64 l 1,69,-1
 384 0 l 1,70,-1
 320 0 l 1,71,-1
 320 64 l 1,68,-1
128 0 m 1,72,-1
 192 0 l 1,73,-1
 192 -64 l 1,74,-1
 128 -64 l 1,75,-1
 128 0 l 1,72,-1
192 0 m 1,76,-1
 256 0 l 1,77,-1
 256 -64 l 1,78,-1
 192 -64 l 1,79,-1
 192 0 l 1,76,-1
256 0 m 1,80,-1
 320 0 l 1,81,-1
 320 -64 l 1,82,-1
 256 -64 l 1,83,-1
 256 0 l 1,80,-1
320 0 m 1,84,-1
 384 0 l 1,85,-1
 384 -64 l 1,86,-1
 320 -64 l 1,87,-1
 320 0 l 1,84,-1
EndSplineSet
Validated: 5
EndChar

StartChar: asciicircum
Encoding: 94 94 64
Width: 512
GlyphClass: 1
Flags: W
LayerCount: 2
Fore
SplineSet
192 512 m 1,0,-1
 256 512 l 1,1,-1
 256 448 l 1,2,-1
 192 448 l 1,3,-1
 192 512 l 1,0,-1
128 448 m 1,4,-1
 192 448 l 1,5,-1
 192 384 l 1,6,-1
 128 384 l 1,7,-1
 128 448 l 1,4,-1
256 448 m 1,8,-1
 320 448 l 1,9,-1
 320 384 l 1,10,-1
 256 384 l 1,11,-1
 256 448 l 1,8,-1
EndSplineSet
Validated: 5
EndChar

StartChar: underscore
Encoding: 95 95 65
Width: 512
GlyphClass: 1
Flags: W
LayerCount: 2
Fore
SplineSet
64 64 m 1,0,-1
 128 64 l 1,1,-1
 128 0 l 1,2,-1
 64 0 l 1,3,-1
 64 64 l 1,0,-1
128 64 m 1,4,-1
 192 64 l 1,5,-1
 192 0 l 1,6,-1
 128 0 l 1,7,-1
 128 64 l 1,4,-1
192 64 m 1,8,-1
 256 64 l 1,9,-1
 256 0 l 1,10,-1
 192 0 l 1,11,-1
 192 64 l 1,8,-1
256 64 m 1,12,-1
 320 64 l 1,13,-1
 320 0 l 1,14,-1
 256 0 l 1,15,-1
 256 64 l 1,12,-1
320 64 m 1,16,-1
 384 64 l 1,17,-1
 384 0 l 1,18,-1
 320 0 l 1,19,-1
 320 64 l 1,16,-1
384 64 m 1,20,-1
 448 64 l 1,21,-1
 448 0 l 1,22,-1
 384 0 l 1,23,-1
 384 64 l 1,20,-1
64 0 m 1,24,-1
 128 0 l 1,25,-1
 128 -64 l 1,26,-1
 64 -64 l 1,27,-1
 64 0 l 1,24,-1
128 0 m 1,28,-1
 192 0 l 1,29,-1
 192 -64 l 1,30,-1
 128 -64 l 1,31,-1
 128 0 l 1,28,-1
192 0 m 1,32,-1
 256 0 l 1,33,-1
 256 -64 l 1,34,-1
 192 -64 l 1,35,-1
 192 0 l 1,32,-1
256 0 m 1,36,-1
 320 0 l 1,37,-1
 320 -64 l 1,38,-1
 256 -64 l 1,39,-1
 256 0 l 1,36,-1
320 0 m 1,40,-1
 384 0 l 1,41,-1
 384 -64 l 1,42,-1
 320 -64 l 1,43,-1
 320 0 l 1,40,-1
384 0 m 1,44,-1
 448 0 l 1,45,-1
 448 -64 l 1,46,-1
 384 -64 l 1,47,-1
 384 0 l 1,44,-1
EndSplineSet
Validated: 5
EndChar

StartChar: grave
Encoding: 96 96 66
Width: 512
GlyphClass: 1
Flags: W
LayerCount: 2
Fore
SplineSet
256 448 m 1,0,-1
 320 448 l 1,1,-1
 320 384 l 1,2,-1
 256 384 l 1,3,-1
 256 448 l 1,0,-1
320 384 m 1,4,-1
 384 384 l 1,5,-1
 384 320 l 1,6,-1
 320 320 l 1,7,-1
 320 384 l 1,4,-1
EndSplineSet
Validated: 5
EndChar

StartChar: a
Encoding: 97 97 67
Width: 512
GlyphClass: 1
Flags: W
LayerCount: 2
Fore
SplineSet
192 384 m 1,0,-1
 256 384 l 1,1,-1
 256 320 l 1,2,-1
 192 320 l 1,3,-1
 192 384 l 1,0,-1
256 384 m 1,4,-1
 320 384 l 1,5,-1
 320 320 l 1,6,-1
 256 320 l 1,7,-1
 256 384 l 1,4,-1
320 384 m 1,8,-1
 384 384 l 1,9,-1
 384 320 l 1,10,-1
 320 320 l 1,11,-1
 320 384 l 1,8,-1
384 384 m 1,12,-1
 448 384 l 1,13,-1
 448 320 l 1,14,-1
 384 320 l 1,15,-1
 384 384 l 1,12,-1
128 320 m 1,16,-1
 192 320 l 1,17,-1
 192 256 l 1,18,-1
 128 256 l 1,19,-1
 128 320 l 1,16,-1
192 320 m 1,20,-1
 256 320 l 1,21,-1
 256 256 l 1,22,-1
 192 256 l 1,23,-1
 192 320 l 1,20,-1
448 320 m 1,24,-1
 512 320 l 1,25,-1
 512 256 l 1,26,-1
 448 256 l 1,27,-1
 448 320 l 1,24,-1
128 256 m 1,28,-1
 192 256 l 1,29,-1
 192 192 l 1,30,-1
 128 192 l 1,31,-1
 128 256 l 1,28,-1
192 256 m 1,32,-1
 256 256 l 1,33,-1
 256 192 l 1,34,-1
 192 192 l 1,35,-1
 192 256 l 1,32,-1
448 256 m 1,36,-1
 512 256 l 1,37,-1
 512 192 l 1,38,-1
 448 192 l 1,39,-1
 448 256 l 1,36,-1
64 192 m 1,40,-1
 128 192 l 1,41,-1
 128 128 l 1,42,-1
 64 128 l 1,43,-1
 64 192 l 1,40,-1
128 192 m 1,44,-1
 192 192 l 1,45,-1
 192 128 l 1,46,-1
 128 128 l 1,47,-1
 128 192 l 1,44,-1
384 192 m 1,48,-1
 448 192 l 1,49,-1
 448 128 l 1,50,-1
 384 128 l 1,51,-1
 384 192 l 1,48,-1
64 128 m 1,52,-1
 128 128 l 1,53,-1
 128 64 l 1,54,-1
 64 64 l 1,55,-1
 64 128 l 1,52,-1
128 128 m 1,56,-1
 192 128 l 1,57,-1
 192 64 l 1,58,-1
 128 64 l 1,59,-1
 128 128 l 1,56,-1
320 128 m 1,60,-1
 384 128 l 1,61,-1
 384 64 l 1,62,-1
 320 64 l 1,63,-1
 320 128 l 1,60,-1
384 128 m 1,64,-1
 448 128 l 1,65,-1
 448 64 l 1,66,-1
 384 64 l 1,67,-1
 384 128 l 1,64,-1
128 64 m 1,68,-1
 192 64 l 1,69,-1
 192 0 l 1,70,-1
 128 0 l 1,71,-1
 128 64 l 1,68,-1
192 64 m 1,72,-1
 256 64 l 1,73,-1
 256 0 l 1,74,-1
 192 0 l 1,75,-1
 192 64 l 1,72,-1
256 64 m 1,76,-1
 320 64 l 1,77,-1
 320 0 l 1,78,-1
 256 0 l 1,79,-1
 256 64 l 1,76,-1
384 64 m 1,80,-1
 448 64 l 1,81,-1
 448 0 l 1,82,-1
 384 0 l 1,83,-1
 384 64 l 1,80,-1
EndSplineSet
Validated: 5
EndChar

StartChar: b
Encoding: 98 98 68
Width: 512
GlyphClass: 1
Flags: W
LayerCount: 2
Fore
SplineSet
192 512 m 1,0,-1
 256 512 l 1,1,-1
 256 448 l 1,2,-1
 192 448 l 1,3,-1
 192 512 l 1,0,-1
256 512 m 1,4,-1
 320 512 l 1,5,-1
 320 448 l 1,6,-1
 256 448 l 1,7,-1
 256 512 l 1,4,-1
192 448 m 1,8,-1
 256 448 l 1,9,-1
 256 384 l 1,10,-1
 192 384 l 1,11,-1
 192 448 l 1,8,-1
256 448 m 1,12,-1
 320 448 l 1,13,-1
 320 384 l 1,14,-1
 256 384 l 1,15,-1
 256 448 l 1,12,-1
128 384 m 1,16,-1
 192 384 l 1,17,-1
 192 320 l 1,18,-1
 128 320 l 1,19,-1
 128 384 l 1,16,-1
192 384 m 1,20,-1
 256 384 l 1,21,-1
 256 320 l 1,22,-1
 192 320 l 1,23,-1
 192 384 l 1,20,-1
256 384 m 1,24,-1
 320 384 l 1,25,-1
 320 320 l 1,26,-1
 256 320 l 1,27,-1
 256 384 l 1,24,-1
320 384 m 1,28,-1
 384 384 l 1,29,-1
 384 320 l 1,30,-1
 320 320 l 1,31,-1
 320 384 l 1,28,-1
384 384 m 1,32,-1
 448 384 l 1,33,-1
 448 320 l 1,34,-1
 384 320 l 1,35,-1
 384 384 l 1,32,-1
128 320 m 1,36,-1
 192 320 l 1,37,-1
 192 256 l 1,38,-1
 128 256 l 1,39,-1
 128 320 l 1,36,-1
192 320 m 1,40,-1
 256 320 l 1,41,-1
 256 256 l 1,42,-1
 192 256 l 1,43,-1
 192 320 l 1,40,-1
448 320 m 1,44,-1
 512 320 l 1,45,-1
 512 256 l 1,46,-1
 448 256 l 1,47,-1
 448 320 l 1,44,-1
128 256 m 1,48,-1
 192 256 l 1,49,-1
 192 192 l 1,50,-1
 128 192 l 1,51,-1
 128 256 l 1,48,-1
192 256 m 1,52,-1
 256 256 l 1,53,-1
 256 192 l 1,54,-1
 192 192 l 1,55,-1
 192 256 l 1,52,-1
448 256 m 1,56,-1
 512 256 l 1,57,-1
 512 192 l 1,58,-1
 448 192 l 1,59,-1
 448 256 l 1,56,-1
64 192 m 1,60,-1
 128 192 l 1,61,-1
 128 128 l 1,62,-1
 64 128 l 1,63,-1
 64 192 l 1,60,-1
128 192 m 1,64,-1
 192 192 l 1,65,-1
 192 128 l 1,66,-1
 128 128 l 1,67,-1
 128 192 l 1,64,-1
384 192 m 1,68,-1
 448 192 l 1,69,-1
 448 128 l 1,70,-1
 384 128 l 1,71,-1
 384 192 l 1,68,-1
64 128 m 1,72,-1
 128 128 l 1,73,-1
 128 64 l 1,74,-1
 64 64 l 1,75,-1
 64 128 l 1,72,-1
128 128 m 1,76,-1
 192 128 l 1,77,-1
 192 64 l 1,78,-1
 128 64 l 1,79,-1
 128 128 l 1,76,-1
384 128 m 1,80,-1
 448 128 l 1,81,-1
 448 64 l 1,82,-1
 384 64 l 1,83,-1
 384 128 l 1,80,-1
64 64 m 1,84,-1
 128 64 l 1,85,-1
 128 0 l 1,86,-1
 64 0 l 1,87,-1
 64 64 l 1,84,-1
192 64 m 1,88,-1
 256 64 l 1,89,-1
 256 0 l 1,90,-1
 192 0 l 1,91,-1
 192 64 l 1,88,-1
256 64 m 1,92,-1
 320 64 l 1,93,-1
 320 0 l 1,94,-1
 256 0 l 1,95,-1
 256 64 l 1,92,-1
320 64 m 1,96,-1
 384 64 l 1,97,-1
 384 0 l 1,98,-1
 320 0 l 1,99,-1
 320 64 l 1,96,-1
EndSplineSet
Validated: 5
EndChar

StartChar: c
Encoding: 99 99 69
Width: 512
GlyphClass: 1
Flags: W
LayerCount: 2
Fore
SplineSet
192 384 m 1,0,-1
 256 384 l 1,1,-1
 256 320 l 1,2,-1
 192 320 l 1,3,-1
 192 384 l 1,0,-1
256 384 m 1,4,-1
 320 384 l 1,5,-1
 320 320 l 1,6,-1
 256 320 l 1,7,-1
 256 384 l 1,4,-1
320 384 m 1,8,-1
 384 384 l 1,9,-1
 384 320 l 1,10,-1
 320 320 l 1,11,-1
 320 384 l 1,8,-1
384 384 m 1,12,-1
 448 384 l 1,13,-1
 448 320 l 1,14,-1
 384 320 l 1,15,-1
 384 384 l 1,12,-1
128 320 m 1,16,-1
 192 320 l 1,17,-1
 192 256 l 1,18,-1
 128 256 l 1,19,-1
 128 320 l 1,16,-1
192 320 m 1,20,-1
 256 320 l 1,21,-1
 256 256 l 1,22,-1
 192 256 l 1,23,-1
 192 320 l 1,20,-1
448 320 m 1,24,-1
 512 320 l 1,25,-1
 512 256 l 1,26,-1
 448 256 l 1,27,-1
 448 320 l 1,24,-1
128 256 m 1,28,-1
 192 256 l 1,29,-1
 192 192 l 1,30,-1
 128 192 l 1,31,-1
 128 256 l 1,28,-1
192 256 m 1,32,-1
 256 256 l 1,33,-1
 256 192 l 1,34,-1
 192 192 l 1,35,-1
 192 256 l 1,32,-1
64 192 m 1,36,-1
 128 192 l 1,37,-1
 128 128 l 1,38,-1
 64 128 l 1,39,-1
 64 192 l 1,36,-1
128 192 m 1,40,-1
 192 192 l 1,41,-1
 192 128 l 1,42,-1
 128 128 l 1,43,-1
 128 192 l 1,40,-1
64 128 m 1,44,-1
 128 128 l 1,45,-1
 128 64 l 1,46,-1
 64 64 l 1,47,-1
 64 128 l 1,44,-1
128 128 m 1,48,-1
 192 128 l 1,49,-1
 192 64 l 1,50,-1
 128 64 l 1,51,-1
 128 128 l 1,48,-1
384 128 m 1,52,-1
 448 128 l 1,53,-1
 448 64 l 1,54,-1
 384 64 l 1,55,-1
 384 128 l 1,52,-1
128 64 m 1,56,-1
 192 64 l 1,57,-1
 192 0 l 1,58,-1
 128 0 l 1,59,-1
 128 64 l 1,56,-1
192 64 m 1,60,-1
 256 64 l 1,61,-1
 256 0 l 1,62,-1
 192 0 l 1,63,-1
 192 64 l 1,60,-1
256 64 m 1,64,-1
 320 64 l 1,65,-1
 320 0 l 1,66,-1
 256 0 l 1,67,-1
 256 64 l 1,64,-1
320 64 m 1,68,-1
 384 64 l 1,69,-1
 384 0 l 1,70,-1
 320 0 l 1,71,-1
 320 64 l 1,68,-1
EndSplineSet
Validated: 5
EndChar

StartChar: d
Encoding: 100 100 70
Width: 512
GlyphClass: 1
Flags: W
LayerCount: 2
Fore
SplineSet
384 512 m 1,0,-1
 448 512 l 1,1,-1
 448 448 l 1,2,-1
 384 448 l 1,3,-1
 384 512 l 1,0,-1
448 512 m 1,4,-1
 512 512 l 1,5,-1
 512 448 l 1,6,-1
 448 448 l 1,7,-1
 448 512 l 1,4,-1
384 448 m 1,8,-1
 448 448 l 1,9,-1
 448 384 l 1,10,-1
 384 384 l 1,11,-1
 384 448 l 1,8,-1
448 448 m 1,12,-1
 512 448 l 1,13,-1
 512 384 l 1,14,-1
 448 384 l 1,15,-1
 448 448 l 1,12,-1
128 384 m 1,16,-1
 192 384 l 1,17,-1
 192 320 l 1,18,-1
 128 320 l 1,19,-1
 128 384 l 1,16,-1
192 384 m 1,20,-1
 256 384 l 1,21,-1
 256 320 l 1,22,-1
 192 320 l 1,23,-1
 192 384 l 1,20,-1
256 384 m 1,24,-1
 320 384 l 1,25,-1
 320 320 l 1,26,-1
 256 320 l 1,27,-1
 256 384 l 1,24,-1
320 384 m 1,28,-1
 384 384 l 1,29,-1
 384 320 l 1,30,-1
 320 320 l 1,31,-1
 320 384 l 1,28,-1
384 384 m 1,32,-1
 448 384 l 1,33,-1
 448 320 l 1,34,-1
 384 320 l 1,35,-1
 384 384 l 1,32,-1
64 320 m 1,36,-1
 128 320 l 1,37,-1
 128 256 l 1,38,-1
 64 256 l 1,39,-1
 64 320 l 1,36,-1
320 320 m 1,40,-1
 384 320 l 1,41,-1
 384 256 l 1,42,-1
 320 256 l 1,43,-1
 320 320 l 1,40,-1
384 320 m 1,44,-1
 448 320 l 1,45,-1
 448 256 l 1,46,-1
 384 256 l 1,47,-1
 384 320 l 1,44,-1
64 256 m 1,48,-1
 128 256 l 1,49,-1
 128 192 l 1,50,-1
 64 192 l 1,51,-1
 64 256 l 1,48,-1
320 256 m 1,52,-1
 384 256 l 1,53,-1
 384 192 l 1,54,-1
 320 192 l 1,55,-1
 320 256 l 1,52,-1
384 256 m 1,56,-1
 448 256 l 1,57,-1
 448 192 l 1,58,-1
 384 192 l 1,59,-1
 384 256 l 1,56,-1
0 192 m 1,60,-1
 64 192 l 1,61,-1
 64 128 l 1,62,-1
 0 128 l 1,63,-1
 0 192 l 1,60,-1
256 192 m 1,64,-1
 320 192 l 1,65,-1
 320 128 l 1,66,-1
 256 128 l 1,67,-1
 256 192 l 1,64,-1
320 192 m 1,68,-1
 384 192 l 1,69,-1
 384 128 l 1,70,-1
 320 128 l 1,71,-1
 320 192 l 1,68,-1
0 128 m 1,72,-1
 64 128 l 1,73,-1
 64 64 l 1,74,-1
 0 64 l 1,75,-1
 0 128 l 1,72,-1
256 128 m 1,76,-1
 320 128 l 1,77,-1
 320 64 l 1,78,-1
 256 64 l 1,79,-1
 256 128 l 1,76,-1
320 128 m 1,80,-1
 384 128 l 1,81,-1
 384 64 l 1,82,-1
 320 64 l 1,83,-1
 320 128 l 1,80,-1
64 64 m 1,84,-1
 128 64 l 1,85,-1
 128 0 l 1,86,-1
 64 0 l 1,87,-1
 64 64 l 1,84,-1
128 64 m 1,88,-1
 192 64 l 1,89,-1
 192 0 l 1,90,-1
 128 0 l 1,91,-1
 128 64 l 1,88,-1
192 64 m 1,92,-1
 256 64 l 1,93,-1
 256 0 l 1,94,-1
 192 0 l 1,95,-1
 192 64 l 1,92,-1
320 64 m 1,96,-1
 384 64 l 1,97,-1
 384 0 l 1,98,-1
 320 0 l 1,99,-1
 320 64 l 1,96,-1
EndSplineSet
Validated: 5
EndChar

StartChar: e
Encoding: 101 101 71
Width: 512
GlyphClass: 1
Flags: W
LayerCount: 2
Fore
SplineSet
192 384 m 1,0,-1
 256 384 l 1,1,-1
 256 320 l 1,2,-1
 192 320 l 1,3,-1
 192 384 l 1,0,-1
256 384 m 1,4,-1
 320 384 l 1,5,-1
 320 320 l 1,6,-1
 256 320 l 1,7,-1
 256 384 l 1,4,-1
320 384 m 1,8,-1
 384 384 l 1,9,-1
 384 320 l 1,10,-1
 320 320 l 1,11,-1
 320 384 l 1,8,-1
384 384 m 1,12,-1
 448 384 l 1,13,-1
 448 320 l 1,14,-1
 384 320 l 1,15,-1
 384 384 l 1,12,-1
128 320 m 1,16,-1
 192 320 l 1,17,-1
 192 256 l 1,18,-1
 128 256 l 1,19,-1
 128 320 l 1,16,-1
192 320 m 1,20,-1
 256 320 l 1,21,-1
 256 256 l 1,22,-1
 192 256 l 1,23,-1
 192 320 l 1,20,-1
448 320 m 1,24,-1
 512 320 l 1,25,-1
 512 256 l 1,26,-1
 448 256 l 1,27,-1
 448 320 l 1,24,-1
128 256 m 1,28,-1
 192 256 l 1,29,-1
 192 192 l 1,30,-1
 128 192 l 1,31,-1
 128 256 l 1,28,-1
192 256 m 1,32,-1
 256 256 l 1,33,-1
 256 192 l 1,34,-1
 192 192 l 1,35,-1
 192 256 l 1,32,-1
448 256 m 1,36,-1
 512 256 l 1,37,-1
 512 192 l 1,38,-1
 448 192 l 1,39,-1
 448 256 l 1,36,-1
64 192 m 1,40,-1
 128 192 l 1,41,-1
 128 128 l 1,42,-1
 64 128 l 1,43,-1
 64 192 l 1,40,-1
128 192 m 1,44,-1
 192 192 l 1,45,-1
 192 128 l 1,46,-1
 128 128 l 1,47,-1
 128 192 l 1,44,-1
192 192 m 1,48,-1
 256 192 l 1,49,-1
 256 128 l 1,50,-1
 192 128 l 1,51,-1
 192 192 l 1,48,-1
256 192 m 1,52,-1
 320 192 l 1,53,-1
 320 128 l 1,54,-1
 256 128 l 1,55,-1
 256 192 l 1,52,-1
320 192 m 1,56,-1
 384 192 l 1,57,-1
 384 128 l 1,58,-1
 320 128 l 1,59,-1
 320 192 l 1,56,-1
384 192 m 1,60,-1
 448 192 l 1,61,-1
 448 128 l 1,62,-1
 384 128 l 1,63,-1
 384 192 l 1,60,-1
64 128 m 1,64,-1
 128 128 l 1,65,-1
 128 64 l 1,66,-1
 64 64 l 1,67,-1
 64 128 l 1,64,-1
128 128 m 1,68,-1
 192 128 l 1,69,-1
 192 64 l 1,70,-1
 128 64 l 1,71,-1
 128 128 l 1,68,-1
128 64 m 1,72,-1
 192 64 l 1,73,-1
 192 0 l 1,74,-1
 128 0 l 1,75,-1
 128 64 l 1,72,-1
192 64 m 1,76,-1
 256 64 l 1,77,-1
 256 0 l 1,78,-1
 192 0 l 1,79,-1
 192 64 l 1,76,-1
256 64 m 1,80,-1
 320 64 l 1,81,-1
 320 0 l 1,82,-1
 256 0 l 1,83,-1
 256 64 l 1,80,-1
320 64 m 1,84,-1
 384 64 l 1,85,-1
 384 0 l 1,86,-1
 320 0 l 1,87,-1
 320 64 l 1,84,-1
EndSplineSet
Validated: 5
EndChar

StartChar: f
Encoding: 102 102 72
Width: 512
GlyphClass: 1
Flags: W
LayerCount: 2
Fore
SplineSet
256 512 m 1,0,-1
 320 512 l 1,1,-1
 320 448 l 1,2,-1
 256 448 l 1,3,-1
 256 512 l 1,0,-1
320 512 m 1,4,-1
 384 512 l 1,5,-1
 384 448 l 1,6,-1
 320 448 l 1,7,-1
 320 512 l 1,4,-1
192 448 m 1,8,-1
 256 448 l 1,9,-1
 256 384 l 1,10,-1
 192 384 l 1,11,-1
 192 448 l 1,8,-1
256 448 m 1,12,-1
 320 448 l 1,13,-1
 320 384 l 1,14,-1
 256 384 l 1,15,-1
 256 448 l 1,12,-1
384 448 m 1,16,-1
 448 448 l 1,17,-1
 448 384 l 1,18,-1
 384 384 l 1,19,-1
 384 448 l 1,16,-1
128 384 m 1,20,-1
 192 384 l 1,21,-1
 192 320 l 1,22,-1
 128 320 l 1,23,-1
 128 384 l 1,20,-1
192 384 m 1,24,-1
 256 384 l 1,25,-1
 256 320 l 1,26,-1
 192 320 l 1,27,-1
 192 384 l 1,24,-1
128 320 m 1,28,-1
 192 320 l 1,29,-1
 192 256 l 1,30,-1
 128 256 l 1,31,-1
 128 320 l 1,28,-1
192 320 m 1,32,-1
 256 320 l 1,33,-1
 256 256 l 1,34,-1
 192 256 l 1,35,-1
 192 320 l 1,32,-1
64 256 m 1,36,-1
 128 256 l 1,37,-1
 128 192 l 1,38,-1
 64 192 l 1,39,-1
 64 256 l 1,36,-1
128 256 m 1,40,-1
 192 256 l 1,41,-1
 192 192 l 1,42,-1
 128 192 l 1,43,-1
 128 256 l 1,40,-1
192 256 m 1,44,-1
 256 256 l 1,45,-1
 256 192 l 1,46,-1
 192 192 l 1,47,-1
 192 256 l 1,44,-1
256 256 m 1,48,-1
 320 256 l 1,49,-1
 320 192 l 1,50,-1
 256 192 l 1,51,-1
 256 256 l 1,48,-1
320 256 m 1,52,-1
 384 256 l 1,53,-1
 384 192 l 1,54,-1
 320 192 l 1,55,-1
 320 256 l 1,52,-1
128 192 m 1,56,-1
 192 192 l 1,57,-1
 192 128 l 1,58,-1
 128 128 l 1,59,-1
 128 192 l 1,56,-1
192 192 m 1,60,-1
 256 192 l 1,61,-1
 256 128 l 1,62,-1
 192 128 l 1,63,-1
 192 192 l 1,60,-1
64 128 m 1,64,-1
 128 128 l 1,65,-1
 128 64 l 1,66,-1
 64 64 l 1,67,-1
 64 128 l 1,64,-1
128 128 m 1,68,-1
 192 128 l 1,69,-1
 192 64 l 1,70,-1
 128 64 l 1,71,-1
 128 128 l 1,68,-1
64 64 m 1,72,-1
 128 64 l 1,73,-1
 128 0 l 1,74,-1
 64 0 l 1,75,-1
 64 64 l 1,72,-1
128 64 m 1,76,-1
 192 64 l 1,77,-1
 192 0 l 1,78,-1
 128 0 l 1,79,-1
 128 64 l 1,76,-1
EndSplineSet
Validated: 5
EndChar

StartChar: g
Encoding: 103 103 73
Width: 512
GlyphClass: 1
Flags: W
LayerCount: 2
Fore
SplineSet
192 384 m 1,0,-1
 256 384 l 1,1,-1
 256 320 l 1,2,-1
 192 320 l 1,3,-1
 192 384 l 1,0,-1
256 384 m 1,4,-1
 320 384 l 1,5,-1
 320 320 l 1,6,-1
 256 320 l 1,7,-1
 256 384 l 1,4,-1
320 384 m 1,8,-1
 384 384 l 1,9,-1
 384 320 l 1,10,-1
 320 320 l 1,11,-1
 320 384 l 1,8,-1
384 384 m 1,12,-1
 448 384 l 1,13,-1
 448 320 l 1,14,-1
 384 320 l 1,15,-1
 384 384 l 1,12,-1
128 320 m 1,16,-1
 192 320 l 1,17,-1
 192 256 l 1,18,-1
 128 256 l 1,19,-1
 128 320 l 1,16,-1
384 320 m 1,20,-1
 448 320 l 1,21,-1
 448 256 l 1,22,-1
 384 256 l 1,23,-1
 384 320 l 1,20,-1
448 320 m 1,24,-1
 512 320 l 1,25,-1
 512 256 l 1,26,-1
 448 256 l 1,27,-1
 448 320 l 1,24,-1
128 256 m 1,28,-1
 192 256 l 1,29,-1
 192 192 l 1,30,-1
 128 192 l 1,31,-1
 128 256 l 1,28,-1
384 256 m 1,32,-1
 448 256 l 1,33,-1
 448 192 l 1,34,-1
 384 192 l 1,35,-1
 384 256 l 1,32,-1
448 256 m 1,36,-1
 512 256 l 1,37,-1
 512 192 l 1,38,-1
 448 192 l 1,39,-1
 448 256 l 1,36,-1
64 192 m 1,40,-1
 128 192 l 1,41,-1
 128 128 l 1,42,-1
 64 128 l 1,43,-1
 64 192 l 1,40,-1
320 192 m 1,44,-1
 384 192 l 1,45,-1
 384 128 l 1,46,-1
 320 128 l 1,47,-1
 320 192 l 1,44,-1
384 192 m 1,48,-1
 448 192 l 1,49,-1
 448 128 l 1,50,-1
 384 128 l 1,51,-1
 384 192 l 1,48,-1
64 128 m 1,52,-1
 128 128 l 1,53,-1
 128 64 l 1,54,-1
 64 64 l 1,55,-1
 64 128 l 1,52,-1
320 128 m 1,56,-1
 384 128 l 1,57,-1
 384 64 l 1,58,-1
 320 64 l 1,59,-1
 320 128 l 1,56,-1
384 128 m 1,60,-1
 448 128 l 1,61,-1
 448 64 l 1,62,-1
 384 64 l 1,63,-1
 384 128 l 1,60,-1
128 64 m 1,64,-1
 192 64 l 1,65,-1
 192 0 l 1,66,-1
 128 0 l 1,67,-1
 128 64 l 1,64,-1
192 64 m 1,68,-1
 256 64 l 1,69,-1
 256 0 l 1,70,-1
 192 0 l 1,71,-1
 192 64 l 1,68,-1
256 64 m 1,72,-1
 320 64 l 1,73,-1
 320 0 l 1,74,-1
 256 0 l 1,75,-1
 256 64 l 1,72,-1
320 64 m 1,76,-1
 384 64 l 1,77,-1
 384 0 l 1,78,-1
 320 0 l 1,79,-1
 320 64 l 1,76,-1
384 64 m 1,80,-1
 448 64 l 1,81,-1
 448 0 l 1,82,-1
 384 0 l 1,83,-1
 384 64 l 1,80,-1
256 0 m 1,84,-1
 320 0 l 1,85,-1
 320 -64 l 1,86,-1
 256 -64 l 1,87,-1
 256 0 l 1,84,-1
320 0 m 1,88,-1
 384 0 l 1,89,-1
 384 -64 l 1,90,-1
 320 -64 l 1,91,-1
 320 0 l 1,88,-1
0 -64 m 1,92,-1
 64 -64 l 1,93,-1
 64 -128 l 1,94,-1
 0 -128 l 1,95,-1
 0 -64 l 1,92,-1
256 -64 m 1,96,-1
 320 -64 l 1,97,-1
 320 -128 l 1,98,-1
 256 -128 l 1,99,-1
 256 -64 l 1,96,-1
320 -64 m 1,100,-1
 384 -64 l 1,101,-1
 384 -128 l 1,102,-1
 320 -128 l 1,103,-1
 320 -64 l 1,100,-1
64 -128 m 1,104,-1
 128 -128 l 1,105,-1
 128 -192 l 1,106,-1
 64 -192 l 1,107,-1
 64 -128 l 1,104,-1
128 -128 m 1,108,-1
 192 -128 l 1,109,-1
 192 -192 l 1,110,-1
 128 -192 l 1,111,-1
 128 -128 l 1,108,-1
192 -128 m 1,112,-1
 256 -128 l 1,113,-1
 256 -192 l 1,114,-1
 192 -192 l 1,115,-1
 192 -128 l 1,112,-1
256 -128 m 1,116,-1
 320 -128 l 1,117,-1
 320 -192 l 1,118,-1
 256 -192 l 1,119,-1
 256 -128 l 1,116,-1
EndSplineSet
Validated: 5
EndChar

StartChar: h
Encoding: 104 104 74
Width: 512
GlyphClass: 1
Flags: W
LayerCount: 2
Fore
SplineSet
192 512 m 1,0,-1
 256 512 l 1,1,-1
 256 448 l 1,2,-1
 192 448 l 1,3,-1
 192 512 l 1,0,-1
256 512 m 1,4,-1
 320 512 l 1,5,-1
 320 448 l 1,6,-1
 256 448 l 1,7,-1
 256 512 l 1,4,-1
192 448 m 1,8,-1
 256 448 l 1,9,-1
 256 384 l 1,10,-1
 192 384 l 1,11,-1
 192 448 l 1,8,-1
256 448 m 1,12,-1
 320 448 l 1,13,-1
 320 384 l 1,14,-1
 256 384 l 1,15,-1
 256 448 l 1,12,-1
128 384 m 1,16,-1
 192 384 l 1,17,-1
 192 320 l 1,18,-1
 128 320 l 1,19,-1
 128 384 l 1,16,-1
192 384 m 1,20,-1
 256 384 l 1,21,-1
 256 320 l 1,22,-1
 192 320 l 1,23,-1
 192 384 l 1,20,-1
256 384 m 1,24,-1
 320 384 l 1,25,-1
 320 320 l 1,26,-1
 256 320 l 1,27,-1
 256 384 l 1,24,-1
320 384 m 1,28,-1
 384 384 l 1,29,-1
 384 320 l 1,30,-1
 320 320 l 1,31,-1
 320 384 l 1,28,-1
384 384 m 1,32,-1
 448 384 l 1,33,-1
 448 320 l 1,34,-1
 384 320 l 1,35,-1
 384 384 l 1,32,-1
128 320 m 1,36,-1
 192 320 l 1,37,-1
 192 256 l 1,38,-1
 128 256 l 1,39,-1
 128 320 l 1,36,-1
192 320 m 1,40,-1
 256 320 l 1,41,-1
 256 256 l 1,42,-1
 192 256 l 1,43,-1
 192 320 l 1,40,-1
448 320 m 1,44,-1
 512 320 l 1,45,-1
 512 256 l 1,46,-1
 448 256 l 1,47,-1
 448 320 l 1,44,-1
128 256 m 1,48,-1
 192 256 l 1,49,-1
 192 192 l 1,50,-1
 128 192 l 1,51,-1
 128 256 l 1,48,-1
192 256 m 1,52,-1
 256 256 l 1,53,-1
 256 192 l 1,54,-1
 192 192 l 1,55,-1
 192 256 l 1,52,-1
448 256 m 1,56,-1
 512 256 l 1,57,-1
 512 192 l 1,58,-1
 448 192 l 1,59,-1
 448 256 l 1,56,-1
64 192 m 1,60,-1
 128 192 l 1,61,-1
 128 128 l 1,62,-1
 64 128 l 1,63,-1
 64 192 l 1,60,-1
128 192 m 1,64,-1
 192 192 l 1,65,-1
 192 128 l 1,66,-1
 128 128 l 1,67,-1
 128 192 l 1,64,-1
384 192 m 1,68,-1
 448 192 l 1,69,-1
 448 128 l 1,70,-1
 384 128 l 1,71,-1
 384 192 l 1,68,-1
64 128 m 1,72,-1
 128 128 l 1,73,-1
 128 64 l 1,74,-1
 64 64 l 1,75,-1
 64 128 l 1,72,-1
128 128 m 1,76,-1
 192 128 l 1,77,-1
 192 64 l 1,78,-1
 128 64 l 1,79,-1
 128 128 l 1,76,-1
384 128 m 1,80,-1
 448 128 l 1,81,-1
 448 64 l 1,82,-1
 384 64 l 1,83,-1
 384 128 l 1,80,-1
64 64 m 1,84,-1
 128 64 l 1,85,-1
 128 0 l 1,86,-1
 64 0 l 1,87,-1
 64 64 l 1,84,-1
128 64 m 1,88,-1
 192 64 l 1,89,-1
 192 0 l 1,90,-1
 128 0 l 1,91,-1
 128 64 l 1,88,-1
384 64 m 1,92,-1
 448 64 l 1,93,-1
 448 0 l 1,94,-1
 384 0 l 1,95,-1
 384 64 l 1,92,-1
EndSplineSet
Validated: 5
EndChar

StartChar: i
Encoding: 105 105 75
Width: 512
GlyphClass: 1
Flags: W
LayerCount: 2
Fore
SplineSet
256 512 m 1,0,-1
 320 512 l 1,1,-1
 320 448 l 1,2,-1
 256 448 l 1,3,-1
 256 512 l 1,0,-1
320 512 m 1,4,-1
 384 512 l 1,5,-1
 384 448 l 1,6,-1
 320 448 l 1,7,-1
 320 512 l 1,4,-1
192 384 m 1,8,-1
 256 384 l 1,9,-1
 256 320 l 1,10,-1
 192 320 l 1,11,-1
 192 384 l 1,8,-1
256 384 m 1,12,-1
 320 384 l 1,13,-1
 320 320 l 1,14,-1
 256 320 l 1,15,-1
 256 384 l 1,12,-1
320 384 m 1,16,-1
 384 384 l 1,17,-1
 384 320 l 1,18,-1
 320 320 l 1,19,-1
 320 384 l 1,16,-1
256 320 m 1,20,-1
 320 320 l 1,21,-1
 320 256 l 1,22,-1
 256 256 l 1,23,-1
 256 320 l 1,20,-1
320 320 m 1,24,-1
 384 320 l 1,25,-1
 384 256 l 1,26,-1
 320 256 l 1,27,-1
 320 320 l 1,24,-1
256 256 m 1,28,-1
 320 256 l 1,29,-1
 320 192 l 1,30,-1
 256 192 l 1,31,-1
 256 256 l 1,28,-1
320 256 m 1,32,-1
 384 256 l 1,33,-1
 384 192 l 1,34,-1
 320 192 l 1,35,-1
 320 256 l 1,32,-1
192 192 m 1,36,-1
 256 192 l 1,37,-1
 256 128 l 1,38,-1
 192 128 l 1,39,-1
 192 192 l 1,36,-1
256 192 m 1,40,-1
 320 192 l 1,41,-1
 320 128 l 1,42,-1
 256 128 l 1,43,-1
 256 192 l 1,40,-1
192 128 m 1,44,-1
 256 128 l 1,45,-1
 256 64 l 1,46,-1
 192 64 l 1,47,-1
 192 128 l 1,44,-1
256 128 m 1,48,-1
 320 128 l 1,49,-1
 320 64 l 1,50,-1
 256 64 l 1,51,-1
 256 128 l 1,48,-1
128 64 m 1,52,-1
 192 64 l 1,53,-1
 192 0 l 1,54,-1
 128 0 l 1,55,-1
 128 64 l 1,52,-1
192 64 m 1,56,-1
 256 64 l 1,57,-1
 256 0 l 1,58,-1
 192 0 l 1,59,-1
 192 64 l 1,56,-1
256 64 m 1,60,-1
 320 64 l 1,61,-1
 320 0 l 1,62,-1
 256 0 l 1,63,-1
 256 64 l 1,60,-1
320 64 m 1,64,-1
 384 64 l 1,65,-1
 384 0 l 1,66,-1
 320 0 l 1,67,-1
 320 64 l 1,64,-1
EndSplineSet
Validated: 5
EndChar

StartChar: j
Encoding: 106 106 76
Width: 512
GlyphClass: 1
Flags: W
LayerCount: 2
Fore
SplineSet
320 512 m 1,0,-1
 384 512 l 1,1,-1
 384 448 l 1,2,-1
 320 448 l 1,3,-1
 320 512 l 1,0,-1
384 512 m 1,4,-1
 448 512 l 1,5,-1
 448 448 l 1,6,-1
 384 448 l 1,7,-1
 384 512 l 1,4,-1
256 384 m 1,8,-1
 320 384 l 1,9,-1
 320 320 l 1,10,-1
 256 320 l 1,11,-1
 256 384 l 1,8,-1
320 384 m 1,12,-1
 384 384 l 1,13,-1
 384 320 l 1,14,-1
 320 320 l 1,15,-1
 320 384 l 1,12,-1
384 384 m 1,16,-1
 448 384 l 1,17,-1
 448 320 l 1,18,-1
 384 320 l 1,19,-1
 384 384 l 1,16,-1
320 320 m 1,20,-1
 384 320 l 1,21,-1
 384 256 l 1,22,-1
 320 256 l 1,23,-1
 320 320 l 1,20,-1
384 320 m 1,24,-1
 448 320 l 1,25,-1
 448 256 l 1,26,-1
 384 256 l 1,27,-1
 384 320 l 1,24,-1
320 256 m 1,28,-1
 384 256 l 1,29,-1
 384 192 l 1,30,-1
 320 192 l 1,31,-1
 320 256 l 1,28,-1
384 256 m 1,32,-1
 448 256 l 1,33,-1
 448 192 l 1,34,-1
 384 192 l 1,35,-1
 384 256 l 1,32,-1
256 192 m 1,36,-1
 320 192 l 1,37,-1
 320 128 l 1,38,-1
 256 128 l 1,39,-1
 256 192 l 1,36,-1
320 192 m 1,40,-1
 384 192 l 1,41,-1
 384 128 l 1,42,-1
 320 128 l 1,43,-1
 320 192 l 1,40,-1
256 128 m 1,44,-1
 320 128 l 1,45,-1
 320 64 l 1,46,-1
 256 64 l 1,47,-1
 256 128 l 1,44,-1
320 128 m 1,48,-1
 384 128 l 1,49,-1
 384 64 l 1,50,-1
 320 64 l 1,51,-1
 320 128 l 1,48,-1
256 64 m 1,52,-1
 320 64 l 1,53,-1
 320 0 l 1,54,-1
 256 0 l 1,55,-1
 256 64 l 1,52,-1
320 64 m 1,56,-1
 384 64 l 1,57,-1
 384 0 l 1,58,-1
 320 0 l 1,59,-1
 320 64 l 1,56,-1
192 0 m 1,60,-1
 256 0 l 1,61,-1
 256 -64 l 1,62,-1
 192 -64 l 1,63,-1
 192 0 l 1,60,-1
256 0 m 1,64,-1
 320 0 l 1,65,-1
 320 -64 l 1,66,-1
 256 -64 l 1,67,-1
 256 0 l 1,64,-1
192 -64 m 1,68,-1
 256 -64 l 1,69,-1
 256 -128 l 1,70,-1
 192 -128 l 1,71,-1
 192 -64 l 1,68,-1
256 -64 m 1,72,-1
 320 -64 l 1,73,-1
 320 -128 l 1,74,-1
 256 -128 l 1,75,-1
 256 -64 l 1,72,-1
64 -128 m 1,76,-1
 128 -128 l 1,77,-1
 128 -192 l 1,78,-1
 64 -192 l 1,79,-1
 64 -128 l 1,76,-1
128 -128 m 1,80,-1
 192 -128 l 1,81,-1
 192 -192 l 1,82,-1
 128 -192 l 1,83,-1
 128 -128 l 1,80,-1
192 -128 m 1,84,-1
 256 -128 l 1,85,-1
 256 -192 l 1,86,-1
 192 -192 l 1,87,-1
 192 -128 l 1,84,-1
EndSplineSet
Validated: 5
EndChar

StartChar: k
Encoding: 107 107 77
Width: 512
GlyphClass: 1
Flags: W
LayerCount: 2
Fore
SplineSet
192 512 m 1,0,-1
 256 512 l 1,1,-1
 256 448 l 1,2,-1
 192 448 l 1,3,-1
 192 512 l 1,0,-1
256 512 m 1,4,-1
 320 512 l 1,5,-1
 320 448 l 1,6,-1
 256 448 l 1,7,-1
 256 512 l 1,4,-1
192 448 m 1,8,-1
 256 448 l 1,9,-1
 256 384 l 1,10,-1
 192 384 l 1,11,-1
 192 448 l 1,8,-1
256 448 m 1,12,-1
 320 448 l 1,13,-1
 320 384 l 1,14,-1
 256 384 l 1,15,-1
 256 448 l 1,12,-1
128 384 m 1,16,-1
 192 384 l 1,17,-1
 192 320 l 1,18,-1
 128 320 l 1,19,-1
 128 384 l 1,16,-1
192 384 m 1,20,-1
 256 384 l 1,21,-1
 256 320 l 1,22,-1
 192 320 l 1,23,-1
 192 384 l 1,20,-1
384 384 m 1,24,-1
 448 384 l 1,25,-1
 448 320 l 1,26,-1
 384 320 l 1,27,-1
 384 384 l 1,24,-1
128 320 m 1,28,-1
 192 320 l 1,29,-1
 192 256 l 1,30,-1
 128 256 l 1,31,-1
 128 320 l 1,28,-1
192 320 m 1,32,-1
 256 320 l 1,33,-1
 256 256 l 1,34,-1
 192 256 l 1,35,-1
 192 320 l 1,32,-1
320 320 m 1,36,-1
 384 320 l 1,37,-1
 384 256 l 1,38,-1
 320 256 l 1,39,-1
 320 320 l 1,36,-1
128 256 m 1,40,-1
 192 256 l 1,41,-1
 192 192 l 1,42,-1
 128 192 l 1,43,-1
 128 256 l 1,40,-1
192 256 m 1,44,-1
 256 256 l 1,45,-1
 256 192 l 1,46,-1
 192 192 l 1,47,-1
 192 256 l 1,44,-1
320 256 m 1,48,-1
 384 256 l 1,49,-1
 384 192 l 1,50,-1
 320 192 l 1,51,-1
 320 256 l 1,48,-1
128 192 m 1,52,-1
 192 192 l 1,53,-1
 192 128 l 1,54,-1
 128 128 l 1,55,-1
 128 192 l 1,52,-1
192 192 m 1,56,-1
 256 192 l 1,57,-1
 256 128 l 1,58,-1
 192 128 l 1,59,-1
 192 192 l 1,56,-1
256 192 m 1,60,-1
 320 192 l 1,61,-1
 320 128 l 1,62,-1
 256 128 l 1,63,-1
 256 192 l 1,60,-1
64 128 m 1,64,-1
 128 128 l 1,65,-1
 128 64 l 1,66,-1
 64 64 l 1,67,-1
 64 128 l 1,64,-1
128 128 m 1,68,-1
 192 128 l 1,69,-1
 192 64 l 1,70,-1
 128 64 l 1,71,-1
 128 128 l 1,68,-1
320 128 m 1,72,-1
 384 128 l 1,73,-1
 384 64 l 1,74,-1
 320 64 l 1,75,-1
 320 128 l 1,72,-1
64 64 m 1,76,-1
 128 64 l 1,77,-1
 128 0 l 1,78,-1
 64 0 l 1,79,-1
 64 64 l 1,76,-1
128 64 m 1,80,-1
 192 64 l 1,81,-1
 192 0 l 1,82,-1
 128 0 l 1,83,-1
 128 64 l 1,80,-1
384 64 m 1,84,-1
 448 64 l 1,85,-1
 448 0 l 1,86,-1
 384 0 l 1,87,-1
 384 64 l 1,84,-1
EndSplineSet
Validated: 5
EndChar

StartChar: l
Encoding: 108 108 78
Width: 512
GlyphClass: 1
Flags: W
LayerCount: 2
Fore
SplineSet
256 512 m 1,0,-1
 320 512 l 1,1,-1
 320 448 l 1,2,-1
 256 448 l 1,3,-1
 256 512 l 1,0,-1
320 512 m 1,4,-1
 384 512 l 1,5,-1
 384 448 l 1,6,-1
 320 448 l 1,7,-1
 320 512 l 1,4,-1
256 448 m 1,8,-1
 320 448 l 1,9,-1
 320 384 l 1,10,-1
 256 384 l 1,11,-1
 256 448 l 1,8,-1
320 448 m 1,12,-1
 384 448 l 1,13,-1
 384 384 l 1,14,-1
 320 384 l 1,15,-1
 320 448 l 1,12,-1
192 384 m 1,16,-1
 256 384 l 1,17,-1
 256 320 l 1,18,-1
 192 320 l 1,19,-1
 192 384 l 1,16,-1
256 384 m 1,20,-1
 320 384 l 1,21,-1
 320 320 l 1,22,-1
 256 320 l 1,23,-1
 256 384 l 1,20,-1
192 320 m 1,24,-1
 256 320 l 1,25,-1
 256 256 l 1,26,-1
 192 256 l 1,27,-1
 192 320 l 1,24,-1
256 320 m 1,28,-1
 320 320 l 1,29,-1
 320 256 l 1,30,-1
 256 256 l 1,31,-1
 256 320 l 1,28,-1
192 256 m 1,32,-1
 256 256 l 1,33,-1
 256 192 l 1,34,-1
 192 192 l 1,35,-1
 192 256 l 1,32,-1
256 256 m 1,36,-1
 320 256 l 1,37,-1
 320 192 l 1,38,-1
 256 192 l 1,39,-1
 256 256 l 1,36,-1
128 192 m 1,40,-1
 192 192 l 1,41,-1
 192 128 l 1,42,-1
 128 128 l 1,43,-1
 128 192 l 1,40,-1
192 192 m 1,44,-1
 256 192 l 1,45,-1
 256 128 l 1,46,-1
 192 128 l 1,47,-1
 192 192 l 1,44,-1
128 128 m 1,48,-1
 192 128 l 1,49,-1
 192 64 l 1,50,-1
 128 64 l 1,51,-1
 128 128 l 1,48,-1
192 128 m 1,52,-1
 256 128 l 1,53,-1
 256 64 l 1,54,-1
 192 64 l 1,55,-1
 192 128 l 1,52,-1
192 64 m 1,56,-1
 256 64 l 1,57,-1
 256 0 l 1,58,-1
 192 0 l 1,59,-1
 192 64 l 1,56,-1
256 64 m 1,60,-1
 320 64 l 1,61,-1
 320 0 l 1,62,-1
 256 0 l 1,63,-1
 256 64 l 1,60,-1
320 64 m 1,64,-1
 384 64 l 1,65,-1
 384 0 l 1,66,-1
 320 0 l 1,67,-1
 320 64 l 1,64,-1
EndSplineSet
Validated: 5
EndChar

StartChar: m
Encoding: 109 109 79
Width: 512
GlyphClass: 1
Flags: W
LayerCount: 2
Fore
SplineSet
64 384 m 1,0,-1
 128 384 l 1,1,-1
 128 320 l 1,2,-1
 64 320 l 1,3,-1
 64 384 l 1,0,-1
128 384 m 1,4,-1
 192 384 l 1,5,-1
 192 320 l 1,6,-1
 128 320 l 1,7,-1
 128 384 l 1,4,-1
192 384 m 1,8,-1
 256 384 l 1,9,-1
 256 320 l 1,10,-1
 192 320 l 1,11,-1
 192 384 l 1,8,-1
320 384 m 1,12,-1
 384 384 l 1,13,-1
 384 320 l 1,14,-1
 320 320 l 1,15,-1
 320 384 l 1,12,-1
384 384 m 1,16,-1
 448 384 l 1,17,-1
 448 320 l 1,18,-1
 384 320 l 1,19,-1
 384 384 l 1,16,-1
64 320 m 1,20,-1
 128 320 l 1,21,-1
 128 256 l 1,22,-1
 64 256 l 1,23,-1
 64 320 l 1,20,-1
128 320 m 1,24,-1
 192 320 l 1,25,-1
 192 256 l 1,26,-1
 128 256 l 1,27,-1
 128 320 l 1,24,-1
256 320 m 1,28,-1
 320 320 l 1,29,-1
 320 256 l 1,30,-1
 256 256 l 1,31,-1
 256 320 l 1,28,-1
320 320 m 1,32,-1
 384 320 l 1,33,-1
 384 256 l 1,34,-1
 320 256 l 1,35,-1
 320 320 l 1,32,-1
448 320 m 1,36,-1
 512 320 l 1,37,-1
 512 256 l 1,38,-1
 448 256 l 1,39,-1
 448 320 l 1,36,-1
64 256 m 1,40,-1
 128 256 l 1,41,-1
 128 192 l 1,42,-1
 64 192 l 1,43,-1
 64 256 l 1,40,-1
128 256 m 1,44,-1
 192 256 l 1,45,-1
 192 192 l 1,46,-1
 128 192 l 1,47,-1
 128 256 l 1,44,-1
256 256 m 1,48,-1
 320 256 l 1,49,-1
 320 192 l 1,50,-1
 256 192 l 1,51,-1
 256 256 l 1,48,-1
320 256 m 1,52,-1
 384 256 l 1,53,-1
 384 192 l 1,54,-1
 320 192 l 1,55,-1
 320 256 l 1,52,-1
448 256 m 1,56,-1
 512 256 l 1,57,-1
 512 192 l 1,58,-1
 448 192 l 1,59,-1
 448 256 l 1,56,-1
0 192 m 1,60,-1
 64 192 l 1,61,-1
 64 128 l 1,62,-1
 0 128 l 1,63,-1
 0 192 l 1,60,-1
64 192 m 1,64,-1
 128 192 l 1,65,-1
 128 128 l 1,66,-1
 64 128 l 1,67,-1
 64 192 l 1,64,-1
192 192 m 1,68,-1
 256 192 l 1,69,-1
 256 128 l 1,70,-1
 192 128 l 1,71,-1
 192 192 l 1,68,-1
256 192 m 1,72,-1
 320 192 l 1,73,-1
 320 128 l 1,74,-1
 256 128 l 1,75,-1
 256 192 l 1,72,-1
384 192 m 1,76,-1
 448 192 l 1,77,-1
 448 128 l 1,78,-1
 384 128 l 1,79,-1
 384 192 l 1,76,-1
0 128 m 1,80,-1
 64 128 l 1,81,-1
 64 64 l 1,82,-1
 0 64 l 1,83,-1
 0 128 l 1,80,-1
64 128 m 1,84,-1
 128 128 l 1,85,-1
 128 64 l 1,86,-1
 64 64 l 1,87,-1
 64 128 l 1,84,-1
192 128 m 1,88,-1
 256 128 l 1,89,-1
 256 64 l 1,90,-1
 192 64 l 1,91,-1
 192 128 l 1,88,-1
256 128 m 1,92,-1
 320 128 l 1,93,-1
 320 64 l 1,94,-1
 256 64 l 1,95,-1
 256 128 l 1,92,-1
384 128 m 1,96,-1
 448 128 l 1,97,-1
 448 64 l 1,98,-1
 384 64 l 1,99,-1
 384 128 l 1,96,-1
0 64 m 1,100,-1
 64 64 l 1,101,-1
 64 0 l 1,102,-1
 0 0 l 1,103,-1
 0 64 l 1,100,-1
64 64 m 1,104,-1
 128 64 l 1,105,-1
 128 0 l 1,106,-1
 64 0 l 1,107,-1
 64 64 l 1,104,-1
192 64 m 1,108,-1
 256 64 l 1,109,-1
 256 0 l 1,110,-1
 192 0 l 1,111,-1
 192 64 l 1,108,-1
256 64 m 1,112,-1
 320 64 l 1,113,-1
 320 0 l 1,114,-1
 256 0 l 1,115,-1
 256 64 l 1,112,-1
384 64 m 1,116,-1
 448 64 l 1,117,-1
 448 0 l 1,118,-1
 384 0 l 1,119,-1
 384 64 l 1,116,-1
EndSplineSet
Validated: 5
EndChar

StartChar: n
Encoding: 110 110 80
Width: 512
GlyphClass: 1
Flags: W
LayerCount: 2
Fore
SplineSet
128 384 m 1,0,-1
 192 384 l 1,1,-1
 192 320 l 1,2,-1
 128 320 l 1,3,-1
 128 384 l 1,0,-1
256 384 m 1,4,-1
 320 384 l 1,5,-1
 320 320 l 1,6,-1
 256 320 l 1,7,-1
 256 384 l 1,4,-1
320 384 m 1,8,-1
 384 384 l 1,9,-1
 384 320 l 1,10,-1
 320 320 l 1,11,-1
 320 384 l 1,8,-1
384 384 m 1,12,-1
 448 384 l 1,13,-1
 448 320 l 1,14,-1
 384 320 l 1,15,-1
 384 384 l 1,12,-1
128 320 m 1,16,-1
 192 320 l 1,17,-1
 192 256 l 1,18,-1
 128 256 l 1,19,-1
 128 320 l 1,16,-1
192 320 m 1,20,-1
 256 320 l 1,21,-1
 256 256 l 1,22,-1
 192 256 l 1,23,-1
 192 320 l 1,20,-1
256 320 m 1,24,-1
 320 320 l 1,25,-1
 320 256 l 1,26,-1
 256 256 l 1,27,-1
 256 320 l 1,24,-1
448 320 m 1,28,-1
 512 320 l 1,29,-1
 512 256 l 1,30,-1
 448 256 l 1,31,-1
 448 320 l 1,28,-1
128 256 m 1,32,-1
 192 256 l 1,33,-1
 192 192 l 1,34,-1
 128 192 l 1,35,-1
 128 256 l 1,32,-1
192 256 m 1,36,-1
 256 256 l 1,37,-1
 256 192 l 1,38,-1
 192 192 l 1,39,-1
 192 256 l 1,36,-1
448 256 m 1,40,-1
 512 256 l 1,41,-1
 512 192 l 1,42,-1
 448 192 l 1,43,-1
 448 256 l 1,40,-1
64 192 m 1,44,-1
 128 192 l 1,45,-1
 128 128 l 1,46,-1
 64 128 l 1,47,-1
 64 192 l 1,44,-1
128 192 m 1,48,-1
 192 192 l 1,49,-1
 192 128 l 1,50,-1
 128 128 l 1,51,-1
 128 192 l 1,48,-1
384 192 m 1,52,-1
 448 192 l 1,53,-1
 448 128 l 1,54,-1
 384 128 l 1,55,-1
 384 192 l 1,52,-1
64 128 m 1,56,-1
 128 128 l 1,57,-1
 128 64 l 1,58,-1
 64 64 l 1,59,-1
 64 128 l 1,56,-1
128 128 m 1,60,-1
 192 128 l 1,61,-1
 192 64 l 1,62,-1
 128 64 l 1,63,-1
 128 128 l 1,60,-1
384 128 m 1,64,-1
 448 128 l 1,65,-1
 448 64 l 1,66,-1
 384 64 l 1,67,-1
 384 128 l 1,64,-1
64 64 m 1,68,-1
 128 64 l 1,69,-1
 128 0 l 1,70,-1
 64 0 l 1,71,-1
 64 64 l 1,68,-1
128 64 m 1,72,-1
 192 64 l 1,73,-1
 192 0 l 1,74,-1
 128 0 l 1,75,-1
 128 64 l 1,72,-1
384 64 m 1,76,-1
 448 64 l 1,77,-1
 448 0 l 1,78,-1
 384 0 l 1,79,-1
 384 64 l 1,76,-1
EndSplineSet
Validated: 5
EndChar

StartChar: o
Encoding: 111 111 81
Width: 512
GlyphClass: 1
Flags: W
LayerCount: 2
Fore
SplineSet
192 384 m 1,0,-1
 256 384 l 1,1,-1
 256 320 l 1,2,-1
 192 320 l 1,3,-1
 192 384 l 1,0,-1
256 384 m 1,4,-1
 320 384 l 1,5,-1
 320 320 l 1,6,-1
 256 320 l 1,7,-1
 256 384 l 1,4,-1
320 384 m 1,8,-1
 384 384 l 1,9,-1
 384 320 l 1,10,-1
 320 320 l 1,11,-1
 320 384 l 1,8,-1
384 384 m 1,12,-1
 448 384 l 1,13,-1
 448 320 l 1,14,-1
 384 320 l 1,15,-1
 384 384 l 1,12,-1
128 320 m 1,16,-1
 192 320 l 1,17,-1
 192 256 l 1,18,-1
 128 256 l 1,19,-1
 128 320 l 1,16,-1
192 320 m 1,20,-1
 256 320 l 1,21,-1
 256 256 l 1,22,-1
 192 256 l 1,23,-1
 192 320 l 1,20,-1
448 320 m 1,24,-1
 512 320 l 1,25,-1
 512 256 l 1,26,-1
 448 256 l 1,27,-1
 448 320 l 1,24,-1
128 256 m 1,28,-1
 192 256 l 1,29,-1
 192 192 l 1,30,-1
 128 192 l 1,31,-1
 128 256 l 1,28,-1
192 256 m 1,32,-1
 256 256 l 1,33,-1
 256 192 l 1,34,-1
 192 192 l 1,35,-1
 192 256 l 1,32,-1
448 256 m 1,36,-1
 512 256 l 1,37,-1
 512 192 l 1,38,-1
 448 192 l 1,39,-1
 448 256 l 1,36,-1
64 192 m 1,40,-1
 128 192 l 1,41,-1
 128 128 l 1,42,-1
 64 128 l 1,43,-1
 64 192 l 1,40,-1
128 192 m 1,44,-1
 192 192 l 1,45,-1
 192 128 l 1,46,-1
 128 128 l 1,47,-1
 128 192 l 1,44,-1
384 192 m 1,48,-1
 448 192 l 1,49,-1
 448 128 l 1,50,-1
 384 128 l 1,51,-1
 384 192 l 1,48,-1
64 128 m 1,52,-1
 128 128 l 1,53,-1
 128 64 l 1,54,-1
 64 64 l 1,55,-1
 64 128 l 1,52,-1
128 128 m 1,56,-1
 192 128 l 1,57,-1
 192 64 l 1,58,-1
 128 64 l 1,59,-1
 128 128 l 1,56,-1
384 128 m 1,60,-1
 448 128 l 1,61,-1
 448 64 l 1,62,-1
 384 64 l 1,63,-1
 384 128 l 1,60,-1
128 64 m 1,64,-1
 192 64 l 1,65,-1
 192 0 l 1,66,-1
 128 0 l 1,67,-1
 128 64 l 1,64,-1
192 64 m 1,68,-1
 256 64 l 1,69,-1
 256 0 l 1,70,-1
 192 0 l 1,71,-1
 192 64 l 1,68,-1
256 64 m 1,72,-1
 320 64 l 1,73,-1
 320 0 l 1,74,-1
 256 0 l 1,75,-1
 256 64 l 1,72,-1
320 64 m 1,76,-1
 384 64 l 1,77,-1
 384 0 l 1,78,-1
 320 0 l 1,79,-1
 320 64 l 1,76,-1
EndSplineSet
Validated: 5
EndChar

StartChar: p
Encoding: 112 112 82
Width: 512
GlyphClass: 1
Flags: W
LayerCount: 2
Fore
SplineSet
128 384 m 1,0,-1
 192 384 l 1,1,-1
 192 320 l 1,2,-1
 128 320 l 1,3,-1
 128 384 l 1,0,-1
256 384 m 1,4,-1
 320 384 l 1,5,-1
 320 320 l 1,6,-1
 256 320 l 1,7,-1
 256 384 l 1,4,-1
320 384 m 1,8,-1
 384 384 l 1,9,-1
 384 320 l 1,10,-1
 320 320 l 1,11,-1
 320 384 l 1,8,-1
384 384 m 1,12,-1
 448 384 l 1,13,-1
 448 320 l 1,14,-1
 384 320 l 1,15,-1
 384 384 l 1,12,-1
128 320 m 1,16,-1
 192 320 l 1,17,-1
 192 256 l 1,18,-1
 128 256 l 1,19,-1
 128 320 l 1,16,-1
192 320 m 1,20,-1
 256 320 l 1,21,-1
 256 256 l 1,22,-1
 192 256 l 1,23,-1
 192 320 l 1,20,-1
256 320 m 1,24,-1
 320 320 l 1,25,-1
 320 256 l 1,26,-1
 256 256 l 1,27,-1
 256 320 l 1,24,-1
448 320 m 1,28,-1
 512 320 l 1,29,-1
 512 256 l 1,30,-1
 448 256 l 1,31,-1
 448 320 l 1,28,-1
128 256 m 1,32,-1
 192 256 l 1,33,-1
 192 192 l 1,34,-1
 128 192 l 1,35,-1
 128 256 l 1,32,-1
192 256 m 1,36,-1
 256 256 l 1,37,-1
 256 192 l 1,38,-1
 192 192 l 1,39,-1
 192 256 l 1,36,-1
448 256 m 1,40,-1
 512 256 l 1,41,-1
 512 192 l 1,42,-1
 448 192 l 1,43,-1
 448 256 l 1,40,-1
64 192 m 1,44,-1
 128 192 l 1,45,-1
 128 128 l 1,46,-1
 64 128 l 1,47,-1
 64 192 l 1,44,-1
128 192 m 1,48,-1
 192 192 l 1,49,-1
 192 128 l 1,50,-1
 128 128 l 1,51,-1
 128 192 l 1,48,-1
384 192 m 1,52,-1
 448 192 l 1,53,-1
 448 128 l 1,54,-1
 384 128 l 1,55,-1
 384 192 l 1,52,-1
64 128 m 1,56,-1
 128 128 l 1,57,-1
 128 64 l 1,58,-1
 64 64 l 1,59,-1
 64 128 l 1,56,-1
128 128 m 1,60,-1
 192 128 l 1,61,-1
 192 64 l 1,62,-1
 128 64 l 1,63,-1
 128 128 l 1,60,-1
384 128 m 1,64,-1
 448 128 l 1,65,-1
 448 64 l 1,66,-1
 384 64 l 1,67,-1
 384 128 l 1,64,-1
64 64 m 1,68,-1
 128 64 l 1,69,-1
 128 0 l 1,70,-1
 64 0 l 1,71,-1
 64 64 l 1,68,-1
128 64 m 1,72,-1
 192 64 l 1,73,-1
 192 0 l 1,74,-1
 128 0 l 1,75,-1
 128 64 l 1,72,-1
192 64 m 1,76,-1
 256 64 l 1,77,-1
 256 0 l 1,78,-1
 192 0 l 1,79,-1
 192 64 l 1,76,-1
256 64 m 1,80,-1
 320 64 l 1,81,-1
 320 0 l 1,82,-1
 256 0 l 1,83,-1
 256 64 l 1,80,-1
320 64 m 1,84,-1
 384 64 l 1,85,-1
 384 0 l 1,86,-1
 320 0 l 1,87,-1
 320 64 l 1,84,-1
0 0 m 1,88,-1
 64 0 l 1,89,-1
 64 -64 l 1,90,-1
 0 -64 l 1,91,-1
 0 0 l 1,88,-1
64 0 m 1,92,-1
 128 0 l 1,93,-1
 128 -64 l 1,94,-1
 64 -64 l 1,95,-1
 64 0 l 1,92,-1
0 -64 m 1,96,-1
 64 -64 l 1,97,-1
 64 -128 l 1,98,-1
 0 -128 l 1,99,-1
 0 -64 l 1,96,-1
64 -64 m 1,100,-1
 128 -64 l 1,101,-1
 128 -128 l 1,102,-1
 64 -128 l 1,103,-1
 64 -64 l 1,100,-1
0 -128 m 1,104,-1
 64 -128 l 1,105,-1
 64 -192 l 1,106,-1
 0 -192 l 1,107,-1
 0 -128 l 1,104,-1
64 -128 m 1,108,-1
 128 -128 l 1,109,-1
 128 -192 l 1,110,-1
 64 -192 l 1,111,-1
 64 -128 l 1,108,-1
EndSplineSet
Validated: 5
EndChar

StartChar: q
Encoding: 113 113 83
Width: 512
GlyphClass: 1
Flags: W
LayerCount: 2
Fore
SplineSet
192 384 m 1,0,-1
 256 384 l 1,1,-1
 256 320 l 1,2,-1
 192 320 l 1,3,-1
 192 384 l 1,0,-1
256 384 m 1,4,-1
 320 384 l 1,5,-1
 320 320 l 1,6,-1
 256 320 l 1,7,-1
 256 384 l 1,4,-1
320 384 m 1,8,-1
 384 384 l 1,9,-1
 384 320 l 1,10,-1
 320 320 l 1,11,-1
 320 384 l 1,8,-1
384 384 m 1,12,-1
 448 384 l 1,13,-1
 448 320 l 1,14,-1
 384 320 l 1,15,-1
 384 384 l 1,12,-1
128 320 m 1,16,-1
 192 320 l 1,17,-1
 192 256 l 1,18,-1
 128 256 l 1,19,-1
 128 320 l 1,16,-1
384 320 m 1,20,-1
 448 320 l 1,21,-1
 448 256 l 1,22,-1
 384 256 l 1,23,-1
 384 320 l 1,20,-1
448 320 m 1,24,-1
 512 320 l 1,25,-1
 512 256 l 1,26,-1
 448 256 l 1,27,-1
 448 320 l 1,24,-1
128 256 m 1,28,-1
 192 256 l 1,29,-1
 192 192 l 1,30,-1
 128 192 l 1,31,-1
 128 256 l 1,28,-1
384 256 m 1,32,-1
 448 256 l 1,33,-1
 448 192 l 1,34,-1
 384 192 l 1,35,-1
 384 256 l 1,32,-1
448 256 m 1,36,-1
 512 256 l 1,37,-1
 512 192 l 1,38,-1
 448 192 l 1,39,-1
 448 256 l 1,36,-1
64 192 m 1,40,-1
 128 192 l 1,41,-1
 128 128 l 1,42,-1
 64 128 l 1,43,-1
 64 192 l 1,40,-1
384 192 m 1,44,-1
 448 192 l 1,45,-1
 448 128 l 1,46,-1
 384 128 l 1,47,-1
 384 192 l 1,44,-1
64 128 m 1,48,-1
 128 128 l 1,49,-1
 128 64 l 1,50,-1
 64 64 l 1,51,-1
 64 128 l 1,48,-1
320 128 m 1,52,-1
 384 128 l 1,53,-1
 384 64 l 1,54,-1
 320 64 l 1,55,-1
 320 128 l 1,52,-1
384 128 m 1,56,-1
 448 128 l 1,57,-1
 448 64 l 1,58,-1
 384 64 l 1,59,-1
 384 128 l 1,56,-1
128 64 m 1,60,-1
 192 64 l 1,61,-1
 192 0 l 1,62,-1
 128 0 l 1,63,-1
 128 64 l 1,60,-1
192 64 m 1,64,-1
 256 64 l 1,65,-1
 256 0 l 1,66,-1
 192 0 l 1,67,-1
 192 64 l 1,64,-1
256 64 m 1,68,-1
 320 64 l 1,69,-1
 320 0 l 1,70,-1
 256 0 l 1,71,-1
 256 64 l 1,68,-1
320 64 m 1,72,-1
 384 64 l 1,73,-1
 384 0 l 1,74,-1
 320 0 l 1,75,-1
 320 64 l 1,72,-1
384 64 m 1,76,-1
 448 64 l 1,77,-1
 448 0 l 1,78,-1
 384 0 l 1,79,-1
 384 64 l 1,76,-1
256 0 m 1,80,-1
 320 0 l 1,81,-1
 320 -64 l 1,82,-1
 256 -64 l 1,83,-1
 256 0 l 1,80,-1
320 0 m 1,84,-1
 384 0 l 1,85,-1
 384 -64 l 1,86,-1
 320 -64 l 1,87,-1
 320 0 l 1,84,-1
256 -64 m 1,88,-1
 320 -64 l 1,89,-1
 320 -128 l 1,90,-1
 256 -128 l 1,91,-1
 256 -64 l 1,88,-1
320 -64 m 1,92,-1
 384 -64 l 1,93,-1
 384 -128 l 1,94,-1
 320 -128 l 1,95,-1
 320 -64 l 1,92,-1
256 -128 m 1,96,-1
 320 -128 l 1,97,-1
 320 -192 l 1,98,-1
 256 -192 l 1,99,-1
 256 -128 l 1,96,-1
320 -128 m 1,100,-1
 384 -128 l 1,101,-1
 384 -192 l 1,102,-1
 320 -192 l 1,103,-1
 320 -128 l 1,100,-1
EndSplineSet
Validated: 5
EndChar

StartChar: r
Encoding: 114 114 84
Width: 512
GlyphClass: 1
Flags: W
LayerCount: 2
Fore
SplineSet
128 384 m 1,0,-1
 192 384 l 1,1,-1
 192 320 l 1,2,-1
 128 320 l 1,3,-1
 128 384 l 1,0,-1
256 384 m 1,4,-1
 320 384 l 1,5,-1
 320 320 l 1,6,-1
 256 320 l 1,7,-1
 256 384 l 1,4,-1
320 384 m 1,8,-1
 384 384 l 1,9,-1
 384 320 l 1,10,-1
 320 320 l 1,11,-1
 320 384 l 1,8,-1
384 384 m 1,12,-1
 448 384 l 1,13,-1
 448 320 l 1,14,-1
 384 320 l 1,15,-1
 384 384 l 1,12,-1
128 320 m 1,16,-1
 192 320 l 1,17,-1
 192 256 l 1,18,-1
 128 256 l 1,19,-1
 128 320 l 1,16,-1
192 320 m 1,20,-1
 256 320 l 1,21,-1
 256 256 l 1,22,-1
 192 256 l 1,23,-1
 192 320 l 1,20,-1
256 320 m 1,24,-1
 320 320 l 1,25,-1
 320 256 l 1,26,-1
 256 256 l 1,27,-1
 256 320 l 1,24,-1
448 320 m 1,28,-1
 512 320 l 1,29,-1
 512 256 l 1,30,-1
 448 256 l 1,31,-1
 448 320 l 1,28,-1
128 256 m 1,32,-1
 192 256 l 1,33,-1
 192 192 l 1,34,-1
 128 192 l 1,35,-1
 128 256 l 1,32,-1
192 256 m 1,36,-1
 256 256 l 1,37,-1
 256 192 l 1,38,-1
 192 192 l 1,39,-1
 192 256 l 1,36,-1
64 192 m 1,40,-1
 128 192 l 1,41,-1
 128 128 l 1,42,-1
 64 128 l 1,43,-1
 64 192 l 1,40,-1
128 192 m 1,44,-1
 192 192 l 1,45,-1
 192 128 l 1,46,-1
 128 128 l 1,47,-1
 128 192 l 1,44,-1
64 128 m 1,48,-1
 128 128 l 1,49,-1
 128 64 l 1,50,-1
 64 64 l 1,51,-1
 64 128 l 1,48,-1
128 128 m 1,52,-1
 192 128 l 1,53,-1
 192 64 l 1,54,-1
 128 64 l 1,55,-1
 128 128 l 1,52,-1
64 64 m 1,56,-1
 128 64 l 1,57,-1
 128 0 l 1,58,-1
 64 0 l 1,59,-1
 64 64 l 1,56,-1
128 64 m 1,60,-1
 192 64 l 1,61,-1
 192 0 l 1,62,-1
 128 0 l 1,63,-1
 128 64 l 1,60,-1
EndSplineSet
Validated: 5
EndChar

StartChar: s
Encoding: 115 115 85
Width: 512
GlyphClass: 1
Flags: W
LayerCount: 2
Fore
SplineSet
192 384 m 1,0,-1
 256 384 l 1,1,-1
 256 320 l 1,2,-1
 192 320 l 1,3,-1
 192 384 l 1,0,-1
256 384 m 1,4,-1
 320 384 l 1,5,-1
 320 320 l 1,6,-1
 256 320 l 1,7,-1
 256 384 l 1,4,-1
320 384 m 1,8,-1
 384 384 l 1,9,-1
 384 320 l 1,10,-1
 320 320 l 1,11,-1
 320 384 l 1,8,-1
384 384 m 1,12,-1
 448 384 l 1,13,-1
 448 320 l 1,14,-1
 384 320 l 1,15,-1
 384 384 l 1,12,-1
128 320 m 1,16,-1
 192 320 l 1,17,-1
 192 256 l 1,18,-1
 128 256 l 1,19,-1
 128 320 l 1,16,-1
192 320 m 1,20,-1
 256 320 l 1,21,-1
 256 256 l 1,22,-1
 192 256 l 1,23,-1
 192 320 l 1,20,-1
128 256 m 1,24,-1
 192 256 l 1,25,-1
 192 192 l 1,26,-1
 128 192 l 1,27,-1
 128 256 l 1,24,-1
192 256 m 1,28,-1
 256 256 l 1,29,-1
 256 192 l 1,30,-1
 192 192 l 1,31,-1
 192 256 l 1,28,-1
128 192 m 1,32,-1
 192 192 l 1,33,-1
 192 128 l 1,34,-1
 128 128 l 1,35,-1
 128 192 l 1,32,-1
192 192 m 1,36,-1
 256 192 l 1,37,-1
 256 128 l 1,38,-1
 192 128 l 1,39,-1
 192 192 l 1,36,-1
256 192 m 1,40,-1
 320 192 l 1,41,-1
 320 128 l 1,42,-1
 256 128 l 1,43,-1
 256 192 l 1,40,-1
320 192 m 1,44,-1
 384 192 l 1,45,-1
 384 128 l 1,46,-1
 320 128 l 1,47,-1
 320 192 l 1,44,-1
64 128 m 1,48,-1
 128 128 l 1,49,-1
 128 64 l 1,50,-1
 64 64 l 1,51,-1
 64 128 l 1,48,-1
320 128 m 1,52,-1
 384 128 l 1,53,-1
 384 64 l 1,54,-1
 320 64 l 1,55,-1
 320 128 l 1,52,-1
384 128 m 1,56,-1
 448 128 l 1,57,-1
 448 64 l 1,58,-1
 384 64 l 1,59,-1
 384 128 l 1,56,-1
128 64 m 1,60,-1
 192 64 l 1,61,-1
 192 0 l 1,62,-1
 128 0 l 1,63,-1
 128 64 l 1,60,-1
192 64 m 1,64,-1
 256 64 l 1,65,-1
 256 0 l 1,66,-1
 192 0 l 1,67,-1
 192 64 l 1,64,-1
256 64 m 1,68,-1
 320 64 l 1,69,-1
 320 0 l 1,70,-1
 256 0 l 1,71,-1
 256 64 l 1,68,-1
320 64 m 1,72,-1
 384 64 l 1,73,-1
 384 0 l 1,74,-1
 320 0 l 1,75,-1
 320 64 l 1,72,-1
EndSplineSet
Validated: 5
EndChar

StartChar: t
Encoding: 116 116 86
Width: 512
GlyphClass: 1
Flags: W
LayerCount: 2
Fore
SplineSet
256 512 m 1,0,-1
 320 512 l 1,1,-1
 320 448 l 1,2,-1
 256 448 l 1,3,-1
 256 512 l 1,0,-1
320 512 m 1,4,-1
 384 512 l 1,5,-1
 384 448 l 1,6,-1
 320 448 l 1,7,-1
 320 512 l 1,4,-1
256 448 m 1,8,-1
 320 448 l 1,9,-1
 320 384 l 1,10,-1
 256 384 l 1,11,-1
 256 448 l 1,8,-1
320 448 m 1,12,-1
 384 448 l 1,13,-1
 384 384 l 1,14,-1
 320 384 l 1,15,-1
 320 448 l 1,12,-1
192 384 m 1,16,-1
 256 384 l 1,17,-1
 256 320 l 1,18,-1
 192 320 l 1,19,-1
 192 384 l 1,16,-1
256 384 m 1,20,-1
 320 384 l 1,21,-1
 320 320 l 1,22,-1
 256 320 l 1,23,-1
 256 384 l 1,20,-1
320 384 m 1,24,-1
 384 384 l 1,25,-1
 384 320 l 1,26,-1
 320 320 l 1,27,-1
 320 384 l 1,24,-1
192 320 m 1,28,-1
 256 320 l 1,29,-1
 256 256 l 1,30,-1
 192 256 l 1,31,-1
 192 320 l 1,28,-1
256 320 m 1,32,-1
 320 320 l 1,33,-1
 320 256 l 1,34,-1
 256 256 l 1,35,-1
 256 320 l 1,32,-1
320 320 m 1,36,-1
 384 320 l 1,37,-1
 384 256 l 1,38,-1
 320 256 l 1,39,-1
 320 320 l 1,36,-1
384 320 m 1,40,-1
 448 320 l 1,41,-1
 448 256 l 1,42,-1
 384 256 l 1,43,-1
 384 320 l 1,40,-1
192 256 m 1,44,-1
 256 256 l 1,45,-1
 256 192 l 1,46,-1
 192 192 l 1,47,-1
 192 256 l 1,44,-1
256 256 m 1,48,-1
 320 256 l 1,49,-1
 320 192 l 1,50,-1
 256 192 l 1,51,-1
 256 256 l 1,48,-1
128 192 m 1,52,-1
 192 192 l 1,53,-1
 192 128 l 1,54,-1
 128 128 l 1,55,-1
 128 192 l 1,52,-1
192 192 m 1,56,-1
 256 192 l 1,57,-1
 256 128 l 1,58,-1
 192 128 l 1,59,-1
 192 192 l 1,56,-1
128 128 m 1,60,-1
 192 128 l 1,61,-1
 192 64 l 1,62,-1
 128 64 l 1,63,-1
 128 128 l 1,60,-1
192 128 m 1,64,-1
 256 128 l 1,65,-1
 256 64 l 1,66,-1
 192 64 l 1,67,-1
 192 128 l 1,64,-1
384 128 m 1,68,-1
 448 128 l 1,69,-1
 448 64 l 1,70,-1
 384 64 l 1,71,-1
 384 128 l 1,68,-1
192 64 m 1,72,-1
 256 64 l 1,73,-1
 256 0 l 1,74,-1
 192 0 l 1,75,-1
 192 64 l 1,72,-1
256 64 m 1,76,-1
 320 64 l 1,77,-1
 320 0 l 1,78,-1
 256 0 l 1,79,-1
 256 64 l 1,76,-1
320 64 m 1,80,-1
 384 64 l 1,81,-1
 384 0 l 1,82,-1
 320 0 l 1,83,-1
 320 64 l 1,80,-1
EndSplineSet
Validated: 5
EndChar

StartChar: u
Encoding: 117 117 87
Width: 512
GlyphClass: 1
Flags: W
LayerCount: 2
Fore
SplineSet
128 384 m 1,0,-1
 192 384 l 1,1,-1
 192 320 l 1,2,-1
 128 320 l 1,3,-1
 128 384 l 1,0,-1
384 384 m 1,4,-1
 448 384 l 1,5,-1
 448 320 l 1,6,-1
 384 320 l 1,7,-1
 384 384 l 1,4,-1
448 384 m 1,8,-1
 512 384 l 1,9,-1
 512 320 l 1,10,-1
 448 320 l 1,11,-1
 448 384 l 1,8,-1
128 320 m 1,12,-1
 192 320 l 1,13,-1
 192 256 l 1,14,-1
 128 256 l 1,15,-1
 128 320 l 1,12,-1
384 320 m 1,16,-1
 448 320 l 1,17,-1
 448 256 l 1,18,-1
 384 256 l 1,19,-1
 384 320 l 1,16,-1
448 320 m 1,20,-1
 512 320 l 1,21,-1
 512 256 l 1,22,-1
 448 256 l 1,23,-1
 448 320 l 1,20,-1
128 256 m 1,24,-1
 192 256 l 1,25,-1
 192 192 l 1,26,-1
 128 192 l 1,27,-1
 128 256 l 1,24,-1
384 256 m 1,28,-1
 448 256 l 1,29,-1
 448 192 l 1,30,-1
 384 192 l 1,31,-1
 384 256 l 1,28,-1
448 256 m 1,32,-1
 512 256 l 1,33,-1
 512 192 l 1,34,-1
 448 192 l 1,35,-1
 448 256 l 1,32,-1
64 192 m 1,36,-1
 128 192 l 1,37,-1
 128 128 l 1,38,-1
 64 128 l 1,39,-1
 64 192 l 1,36,-1
320 192 m 1,40,-1
 384 192 l 1,41,-1
 384 128 l 1,42,-1
 320 128 l 1,43,-1
 320 192 l 1,40,-1
384 192 m 1,44,-1
 448 192 l 1,45,-1
 448 128 l 1,46,-1
 384 128 l 1,47,-1
 384 192 l 1,44,-1
64 128 m 1,48,-1
 128 128 l 1,49,-1
 128 64 l 1,50,-1
 64 64 l 1,51,-1
 64 128 l 1,48,-1
320 128 m 1,52,-1
 384 128 l 1,53,-1
 384 64 l 1,54,-1
 320 64 l 1,55,-1
 320 128 l 1,52,-1
384 128 m 1,56,-1
 448 128 l 1,57,-1
 448 64 l 1,58,-1
 384 64 l 1,59,-1
 384 128 l 1,56,-1
128 64 m 1,60,-1
 192 64 l 1,61,-1
 192 0 l 1,62,-1
 128 0 l 1,63,-1
 128 64 l 1,60,-1
192 64 m 1,64,-1
 256 64 l 1,65,-1
 256 0 l 1,66,-1
 192 0 l 1,67,-1
 192 64 l 1,64,-1
256 64 m 1,68,-1
 320 64 l 1,69,-1
 320 0 l 1,70,-1
 256 0 l 1,71,-1
 256 64 l 1,68,-1
384 64 m 1,72,-1
 448 64 l 1,73,-1
 448 0 l 1,74,-1
 384 0 l 1,75,-1
 384 64 l 1,72,-1
EndSplineSet
Validated: 5
EndChar

StartChar: v
Encoding: 118 118 88
Width: 512
GlyphClass: 1
Flags: W
LayerCount: 2
Fore
SplineSet
64 384 m 1,0,-1
 128 384 l 1,1,-1
 128 320 l 1,2,-1
 64 320 l 1,3,-1
 64 384 l 1,0,-1
128 384 m 1,4,-1
 192 384 l 1,5,-1
 192 320 l 1,6,-1
 128 320 l 1,7,-1
 128 384 l 1,4,-1
384 384 m 1,8,-1
 448 384 l 1,9,-1
 448 320 l 1,10,-1
 384 320 l 1,11,-1
 384 384 l 1,8,-1
64 320 m 1,12,-1
 128 320 l 1,13,-1
 128 256 l 1,14,-1
 64 256 l 1,15,-1
 64 320 l 1,12,-1
128 320 m 1,16,-1
 192 320 l 1,17,-1
 192 256 l 1,18,-1
 128 256 l 1,19,-1
 128 320 l 1,16,-1
384 320 m 1,20,-1
 448 320 l 1,21,-1
 448 256 l 1,22,-1
 384 256 l 1,23,-1
 384 320 l 1,20,-1
64 256 m 1,24,-1
 128 256 l 1,25,-1
 128 192 l 1,26,-1
 64 192 l 1,27,-1
 64 256 l 1,24,-1
128 256 m 1,28,-1
 192 256 l 1,29,-1
 192 192 l 1,30,-1
 128 192 l 1,31,-1
 128 256 l 1,28,-1
384 256 m 1,32,-1
 448 256 l 1,33,-1
 448 192 l 1,34,-1
 384 192 l 1,35,-1
 384 256 l 1,32,-1
64 192 m 1,36,-1
 128 192 l 1,37,-1
 128 128 l 1,38,-1
 64 128 l 1,39,-1
 64 192 l 1,36,-1
128 192 m 1,40,-1
 192 192 l 1,41,-1
 192 128 l 1,42,-1
 128 128 l 1,43,-1
 128 192 l 1,40,-1
320 192 m 1,44,-1
 384 192 l 1,45,-1
 384 128 l 1,46,-1
 320 128 l 1,47,-1
 320 192 l 1,44,-1
64 128 m 1,48,-1
 128 128 l 1,49,-1
 128 64 l 1,50,-1
 64 64 l 1,51,-1
 64 128 l 1,48,-1
128 128 m 1,52,-1
 192 128 l 1,53,-1
 192 64 l 1,54,-1
 128 64 l 1,55,-1
 128 128 l 1,52,-1
256 128 m 1,56,-1
 320 128 l 1,57,-1
 320 64 l 1,58,-1
 256 64 l 1,59,-1
 256 128 l 1,56,-1
128 64 m 1,60,-1
 192 64 l 1,61,-1
 192 0 l 1,62,-1
 128 0 l 1,63,-1
 128 64 l 1,60,-1
192 64 m 1,64,-1
 256 64 l 1,65,-1
 256 0 l 1,66,-1
 192 0 l 1,67,-1
 192 64 l 1,64,-1
EndSplineSet
Validated: 5
EndChar

StartChar: w
Encoding: 119 119 89
Width: 512
GlyphClass: 1
Flags: W
LayerCount: 2
Fore
SplineSet
64 384 m 1,0,-1
 128 384 l 1,1,-1
 128 320 l 1,2,-1
 64 320 l 1,3,-1
 64 384 l 1,0,-1
128 384 m 1,4,-1
 192 384 l 1,5,-1
 192 320 l 1,6,-1
 128 320 l 1,7,-1
 128 384 l 1,4,-1
448 384 m 1,8,-1
 512 384 l 1,9,-1
 512 320 l 1,10,-1
 448 320 l 1,11,-1
 448 384 l 1,8,-1
64 320 m 1,12,-1
 128 320 l 1,13,-1
 128 256 l 1,14,-1
 64 256 l 1,15,-1
 64 320 l 1,12,-1
128 320 m 1,16,-1
 192 320 l 1,17,-1
 192 256 l 1,18,-1
 128 256 l 1,19,-1
 128 320 l 1,16,-1
448 320 m 1,20,-1
 512 320 l 1,21,-1
 512 256 l 1,22,-1
 448 256 l 1,23,-1
 448 320 l 1,20,-1
64 256 m 1,24,-1
 128 256 l 1,25,-1
 128 192 l 1,26,-1
 64 192 l 1,27,-1
 64 256 l 1,24,-1
128 256 m 1,28,-1
 192 256 l 1,29,-1
 192 192 l 1,30,-1
 128 192 l 1,31,-1
 128 256 l 1,28,-1
448 256 m 1,32,-1
 512 256 l 1,33,-1
 512 192 l 1,34,-1
 448 192 l 1,35,-1
 448 256 l 1,32,-1
0 192 m 1,36,-1
 64 192 l 1,37,-1
 64 128 l 1,38,-1
 0 128 l 1,39,-1
 0 192 l 1,36,-1
64 192 m 1,40,-1
 128 192 l 1,41,-1
 128 128 l 1,42,-1
 64 128 l 1,43,-1
 64 192 l 1,40,-1
192 192 m 1,44,-1
 256 192 l 1,45,-1
 256 128 l 1,46,-1
 192 128 l 1,47,-1
 192 192 l 1,44,-1
256 192 m 1,48,-1
 320 192 l 1,49,-1
 320 128 l 1,50,-1
 256 128 l 1,51,-1
 256 192 l 1,48,-1
384 192 m 1,52,-1
 448 192 l 1,53,-1
 448 128 l 1,54,-1
 384 128 l 1,55,-1
 384 192 l 1,52,-1
0 128 m 1,56,-1
 64 128 l 1,57,-1
 64 64 l 1,58,-1
 0 64 l 1,59,-1
 0 128 l 1,56,-1
64 128 m 1,60,-1
 128 128 l 1,61,-1
 128 64 l 1,62,-1
 64 64 l 1,63,-1
 64 128 l 1,60,-1
192 128 m 1,64,-1
 256 128 l 1,65,-1
 256 64 l 1,66,-1
 192 64 l 1,67,-1
 192 128 l 1,64,-1
256 128 m 1,68,-1
 320 128 l 1,69,-1
 320 64 l 1,70,-1
 256 64 l 1,71,-1
 256 128 l 1,68,-1
384 128 m 1,72,-1
 448 128 l 1,73,-1
 448 64 l 1,74,-1
 384 64 l 1,75,-1
 384 128 l 1,72,-1
64 64 m 1,76,-1
 128 64 l 1,77,-1
 128 0 l 1,78,-1
 64 0 l 1,79,-1
 64 64 l 1,76,-1
128 64 m 1,80,-1
 192 64 l 1,81,-1
 192 0 l 1,82,-1
 128 0 l 1,83,-1
 128 64 l 1,80,-1
256 64 m 1,84,-1
 320 64 l 1,85,-1
 320 0 l 1,86,-1
 256 0 l 1,87,-1
 256 64 l 1,84,-1
320 64 m 1,88,-1
 384 64 l 1,89,-1
 384 0 l 1,90,-1
 320 0 l 1,91,-1
 320 64 l 1,88,-1
EndSplineSet
Validated: 5
EndChar

StartChar: x
Encoding: 120 120 90
Width: 512
GlyphClass: 1
Flags: W
LayerCount: 2
Fore
SplineSet
128 384 m 1,0,-1
 192 384 l 1,1,-1
 192 320 l 1,2,-1
 128 320 l 1,3,-1
 128 384 l 1,0,-1
192 384 m 1,4,-1
 256 384 l 1,5,-1
 256 320 l 1,6,-1
 192 320 l 1,7,-1
 192 384 l 1,4,-1
448 384 m 1,8,-1
 512 384 l 1,9,-1
 512 320 l 1,10,-1
 448 320 l 1,11,-1
 448 384 l 1,8,-1
128 320 m 1,12,-1
 192 320 l 1,13,-1
 192 256 l 1,14,-1
 128 256 l 1,15,-1
 128 320 l 1,12,-1
192 320 m 1,16,-1
 256 320 l 1,17,-1
 256 256 l 1,18,-1
 192 256 l 1,19,-1
 192 320 l 1,16,-1
448 320 m 1,20,-1
 512 320 l 1,21,-1
 512 256 l 1,22,-1
 448 256 l 1,23,-1
 448 320 l 1,20,-1
128 256 m 1,24,-1
 192 256 l 1,25,-1
 192 192 l 1,26,-1
 128 192 l 1,27,-1
 128 256 l 1,24,-1
192 256 m 1,28,-1
 256 256 l 1,29,-1
 256 192 l 1,30,-1
 192 192 l 1,31,-1
 192 256 l 1,28,-1
384 256 m 1,32,-1
 448 256 l 1,33,-1
 448 192 l 1,34,-1
 384 192 l 1,35,-1
 384 256 l 1,32,-1
192 192 m 1,36,-1
 256 192 l 1,37,-1
 256 128 l 1,38,-1
 192 128 l 1,39,-1
 192 192 l 1,36,-1
256 192 m 1,40,-1
 320 192 l 1,41,-1
 320 128 l 1,42,-1
 256 128 l 1,43,-1
 256 192 l 1,40,-1
320 192 m 1,44,-1
 384 192 l 1,45,-1
 384 128 l 1,46,-1
 320 128 l 1,47,-1
 320 192 l 1,44,-1
128 128 m 1,48,-1
 192 128 l 1,49,-1
 192 64 l 1,50,-1
 128 64 l 1,51,-1
 128 128 l 1,48,-1
320 128 m 1,52,-1
 384 128 l 1,53,-1
 384 64 l 1,54,-1
 320 64 l 1,55,-1
 320 128 l 1,52,-1
384 128 m 1,56,-1
 448 128 l 1,57,-1
 448 64 l 1,58,-1
 384 64 l 1,59,-1
 384 128 l 1,56,-1
64 64 m 1,60,-1
 128 64 l 1,61,-1
 128 0 l 1,62,-1
 64 0 l 1,63,-1
 64 64 l 1,60,-1
320 64 m 1,64,-1
 384 64 l 1,65,-1
 384 0 l 1,66,-1
 320 0 l 1,67,-1
 320 64 l 1,64,-1
384 64 m 1,68,-1
 448 64 l 1,69,-1
 448 0 l 1,70,-1
 384 0 l 1,71,-1
 384 64 l 1,68,-1
EndSplineSet
Validated: 5
EndChar

StartChar: y
Encoding: 121 121 91
Width: 512
GlyphClass: 1
Flags: W
LayerCount: 2
Fore
SplineSet
128 384 m 1,0,-1
 192 384 l 1,1,-1
 192 320 l 1,2,-1
 128 320 l 1,3,-1
 128 384 l 1,0,-1
384 384 m 1,4,-1
 448 384 l 1,5,-1
 448 320 l 1,6,-1
 384 320 l 1,7,-1
 384 384 l 1,4,-1
448 384 m 1,8,-1
 512 384 l 1,9,-1
 512 320 l 1,10,-1
 448 320 l 1,11,-1
 448 384 l 1,8,-1
128 320 m 1,12,-1
 192 320 l 1,13,-1
 192 256 l 1,14,-1
 128 256 l 1,15,-1
 128 320 l 1,12,-1
384 320 m 1,16,-1
 448 320 l 1,17,-1
 448 256 l 1,18,-1
 384 256 l 1,19,-1
 384 320 l 1,16,-1
448 320 m 1,20,-1
 512 320 l 1,21,-1
 512 256 l 1,22,-1
 448 256 l 1,23,-1
 448 320 l 1,20,-1
128 256 m 1,24,-1
 192 256 l 1,25,-1
 192 192 l 1,26,-1
 128 192 l 1,27,-1
 128 256 l 1,24,-1
384 256 m 1,28,-1
 448 256 l 1,29,-1
 448 192 l 1,30,-1
 384 192 l 1,31,-1
 384 256 l 1,28,-1
448 256 m 1,32,-1
 512 256 l 1,33,-1
 512 192 l 1,34,-1
 448 192 l 1,35,-1
 448 256 l 1,32,-1
64 192 m 1,36,-1
 128 192 l 1,37,-1
 128 128 l 1,38,-1
 64 128 l 1,39,-1
 64 192 l 1,36,-1
384 192 m 1,40,-1
 448 192 l 1,41,-1
 448 128 l 1,42,-1
 384 128 l 1,43,-1
 384 192 l 1,40,-1
64 128 m 1,44,-1
 128 128 l 1,45,-1
 128 64 l 1,46,-1
 64 64 l 1,47,-1
 64 128 l 1,44,-1
256 128 m 1,48,-1
 320 128 l 1,49,-1
 320 64 l 1,50,-1
 256 64 l 1,51,-1
 256 128 l 1,48,-1
320 128 m 1,52,-1
 384 128 l 1,53,-1
 384 64 l 1,54,-1
 320 64 l 1,55,-1
 320 128 l 1,52,-1
384 128 m 1,56,-1
 448 128 l 1,57,-1
 448 64 l 1,58,-1
 384 64 l 1,59,-1
 384 128 l 1,56,-1
128 64 m 1,60,-1
 192 64 l 1,61,-1
 192 0 l 1,62,-1
 128 0 l 1,63,-1
 128 64 l 1,60,-1
192 64 m 1,64,-1
 256 64 l 1,65,-1
 256 0 l 1,66,-1
 192 0 l 1,67,-1
 192 64 l 1,64,-1
320 64 m 1,68,-1
 384 64 l 1,69,-1
 384 0 l 1,70,-1
 320 0 l 1,71,-1
 320 64 l 1,68,-1
384 64 m 1,72,-1
 448 64 l 1,73,-1
 448 0 l 1,74,-1
 384 0 l 1,75,-1
 384 64 l 1,72,-1
256 0 m 1,76,-1
 320 0 l 1,77,-1
 320 -64 l 1,78,-1
 256 -64 l 1,79,-1
 256 0 l 1,76,-1
320 0 m 1,80,-1
 384 0 l 1,81,-1
 384 -64 l 1,82,-1
 320 -64 l 1,83,-1
 320 0 l 1,80,-1
0 -64 m 1,84,-1
 64 -64 l 1,85,-1
 64 -128 l 1,86,-1
 0 -128 l 1,87,-1
 0 -64 l 1,84,-1
256 -64 m 1,88,-1
 320 -64 l 1,89,-1
 320 -128 l 1,90,-1
 256 -128 l 1,91,-1
 256 -64 l 1,88,-1
320 -64 m 1,92,-1
 384 -64 l 1,93,-1
 384 -128 l 1,94,-1
 320 -128 l 1,95,-1
 320 -64 l 1,92,-1
64 -128 m 1,96,-1
 128 -128 l 1,97,-1
 128 -192 l 1,98,-1
 64 -192 l 1,99,-1
 64 -128 l 1,96,-1
128 -128 m 1,100,-1
 192 -128 l 1,101,-1
 192 -192 l 1,102,-1
 128 -192 l 1,103,-1
 128 -128 l 1,100,-1
192 -128 m 1,104,-1
 256 -128 l 1,105,-1
 256 -192 l 1,106,-1
 192 -192 l 1,107,-1
 192 -128 l 1,104,-1
256 -128 m 1,108,-1
 320 -128 l 1,109,-1
 320 -192 l 1,110,-1
 256 -192 l 1,111,-1
 256 -128 l 1,108,-1
EndSplineSet
Validated: 5
EndChar

StartChar: z
Encoding: 122 122 92
Width: 512
GlyphClass: 1
Flags: W
LayerCount: 2
Fore
SplineSet
128 384 m 1,0,-1
 192 384 l 1,1,-1
 192 320 l 1,2,-1
 128 320 l 1,3,-1
 128 384 l 1,0,-1
192 384 m 1,4,-1
 256 384 l 1,5,-1
 256 320 l 1,6,-1
 192 320 l 1,7,-1
 192 384 l 1,4,-1
256 384 m 1,8,-1
 320 384 l 1,9,-1
 320 320 l 1,10,-1
 256 320 l 1,11,-1
 256 384 l 1,8,-1
320 384 m 1,12,-1
 384 384 l 1,13,-1
 384 320 l 1,14,-1
 320 320 l 1,15,-1
 320 384 l 1,12,-1
384 384 m 1,16,-1
 448 384 l 1,17,-1
 448 320 l 1,18,-1
 384 320 l 1,19,-1
 384 384 l 1,16,-1
448 384 m 1,20,-1
 512 384 l 1,21,-1
 512 320 l 1,22,-1
 448 320 l 1,23,-1
 448 384 l 1,20,-1
384 320 m 1,24,-1
 448 320 l 1,25,-1
 448 256 l 1,26,-1
 384 256 l 1,27,-1
 384 320 l 1,24,-1
448 320 m 1,28,-1
 512 320 l 1,29,-1
 512 256 l 1,30,-1
 448 256 l 1,31,-1
 448 320 l 1,28,-1
384 256 m 1,32,-1
 448 256 l 1,33,-1
 448 192 l 1,34,-1
 384 192 l 1,35,-1
 384 256 l 1,32,-1
128 192 m 1,36,-1
 192 192 l 1,37,-1
 192 128 l 1,38,-1
 128 128 l 1,39,-1
 128 192 l 1,36,-1
192 192 m 1,40,-1
 256 192 l 1,41,-1
 256 128 l 1,42,-1
 192 128 l 1,43,-1
 192 192 l 1,40,-1
256 192 m 1,44,-1
 320 192 l 1,45,-1
 320 128 l 1,46,-1
 256 128 l 1,47,-1
 256 192 l 1,44,-1
320 192 m 1,48,-1
 384 192 l 1,49,-1
 384 128 l 1,50,-1
 320 128 l 1,51,-1
 320 192 l 1,48,-1
64 128 m 1,52,-1
 128 128 l 1,53,-1
 128 64 l 1,54,-1
 64 64 l 1,55,-1
 64 128 l 1,52,-1
128 128 m 1,56,-1
 192 128 l 1,57,-1
 192 64 l 1,58,-1
 128 64 l 1,59,-1
 128 128 l 1,56,-1
64 64 m 1,60,-1
 128 64 l 1,61,-1
 128 0 l 1,62,-1
 64 0 l 1,63,-1
 64 64 l 1,60,-1
128 64 m 1,64,-1
 192 64 l 1,65,-1
 192 0 l 1,66,-1
 128 0 l 1,67,-1
 128 64 l 1,64,-1
192 64 m 1,68,-1
 256 64 l 1,69,-1
 256 0 l 1,70,-1
 192 0 l 1,71,-1
 192 64 l 1,68,-1
256 64 m 1,72,-1
 320 64 l 1,73,-1
 320 0 l 1,74,-1
 256 0 l 1,75,-1
 256 64 l 1,72,-1
320 64 m 1,76,-1
 384 64 l 1,77,-1
 384 0 l 1,78,-1
 320 0 l 1,79,-1
 320 64 l 1,76,-1
384 64 m 1,80,-1
 448 64 l 1,81,-1
 448 0 l 1,82,-1
 384 0 l 1,83,-1
 384 64 l 1,80,-1
EndSplineSet
Validated: 5
EndChar

StartChar: braceleft
Encoding: 123 123 93
Width: 512
GlyphClass: 1
Flags: W
LayerCount: 2
Fore
SplineSet
256 512 m 1,0,-1
 320 512 l 1,1,-1
 320 448 l 1,2,-1
 256 448 l 1,3,-1
 256 512 l 1,0,-1
320 512 m 1,4,-1
 384 512 l 1,5,-1
 384 448 l 1,6,-1
 320 448 l 1,7,-1
 320 512 l 1,4,-1
384 512 m 1,8,-1
 448 512 l 1,9,-1
 448 448 l 1,10,-1
 384 448 l 1,11,-1
 384 512 l 1,8,-1
192 448 m 1,12,-1
 256 448 l 1,13,-1
 256 384 l 1,14,-1
 192 384 l 1,15,-1
 192 448 l 1,12,-1
256 448 m 1,16,-1
 320 448 l 1,17,-1
 320 384 l 1,18,-1
 256 384 l 1,19,-1
 256 448 l 1,16,-1
192 384 m 1,20,-1
 256 384 l 1,21,-1
 256 320 l 1,22,-1
 192 320 l 1,23,-1
 192 384 l 1,20,-1
256 384 m 1,24,-1
 320 384 l 1,25,-1
 320 320 l 1,26,-1
 256 320 l 1,27,-1
 256 384 l 1,24,-1
256 320 m 1,28,-1
 320 320 l 1,29,-1
 320 256 l 1,30,-1
 256 256 l 1,31,-1
 256 320 l 1,28,-1
320 320 m 1,32,-1
 384 320 l 1,33,-1
 384 256 l 1,34,-1
 320 256 l 1,35,-1
 320 320 l 1,32,-1
128 256 m 1,36,-1
 192 256 l 1,37,-1
 192 192 l 1,38,-1
 128 192 l 1,39,-1
 128 256 l 1,36,-1
192 256 m 1,40,-1
 256 256 l 1,41,-1
 256 192 l 1,42,-1
 192 192 l 1,43,-1
 192 256 l 1,40,-1
256 256 m 1,44,-1
 320 256 l 1,45,-1
 320 192 l 1,46,-1
 256 192 l 1,47,-1
 256 256 l 1,44,-1
192 192 m 1,48,-1
 256 192 l 1,49,-1
 256 128 l 1,50,-1
 192 128 l 1,51,-1
 192 192 l 1,48,-1
256 192 m 1,52,-1
 320 192 l 1,53,-1
 320 128 l 1,54,-1
 256 128 l 1,55,-1
 256 192 l 1,52,-1
128 128 m 1,56,-1
 192 128 l 1,57,-1
 192 64 l 1,58,-1
 128 64 l 1,59,-1
 128 128 l 1,56,-1
192 128 m 1,60,-1
 256 128 l 1,61,-1
 256 64 l 1,62,-1
 192 64 l 1,63,-1
 192 128 l 1,60,-1
128 64 m 1,64,-1
 192 64 l 1,65,-1
 192 0 l 1,66,-1
 128 0 l 1,67,-1
 128 64 l 1,64,-1
192 64 m 1,68,-1
 256 64 l 1,69,-1
 256 0 l 1,70,-1
 192 0 l 1,71,-1
 192 64 l 1,68,-1
192 0 m 1,72,-1
 256 0 l 1,73,-1
 256 -64 l 1,74,-1
 192 -64 l 1,75,-1
 192 0 l 1,72,-1
256 0 m 1,76,-1
 320 0 l 1,77,-1
 320 -64 l 1,78,-1
 256 -64 l 1,79,-1
 256 0 l 1,76,-1
320 0 m 1,80,-1
 384 0 l 1,81,-1
 384 -64 l 1,82,-1
 320 -64 l 1,83,-1
 320 0 l 1,80,-1
EndSplineSet
Validated: 5
EndChar

StartChar: bar
Encoding: 124 124 94
Width: 512
GlyphClass: 1
Flags: W
LayerCount: 2
Fore
SplineSet
256 512 m 1,0,-1
 320 512 l 1,1,-1
 320 448 l 1,2,-1
 256 448 l 1,3,-1
 256 512 l 1,0,-1
320 512 m 1,4,-1
 384 512 l 1,5,-1
 384 448 l 1,6,-1
 320 448 l 1,7,-1
 320 512 l 1,4,-1
256 448 m 1,8,-1
 320 448 l 1,9,-1
 320 384 l 1,10,-1
 256 384 l 1,11,-1
 256 448 l 1,8,-1
320 448 m 1,12,-1
 384 448 l 1,13,-1
 384 384 l 1,14,-1
 320 384 l 1,15,-1
 320 448 l 1,12,-1
256 384 m 1,16,-1
 320 384 l 1,17,-1
 320 320 l 1,18,-1
 256 320 l 1,19,-1
 256 384 l 1,16,-1
320 384 m 1,20,-1
 384 384 l 1,21,-1
 384 320 l 1,22,-1
 320 320 l 1,23,-1
 320 384 l 1,20,-1
256 320 m 1,24,-1
 320 320 l 1,25,-1
 320 256 l 1,26,-1
 256 256 l 1,27,-1
 256 320 l 1,24,-1
320 320 m 1,28,-1
 384 320 l 1,29,-1
 384 256 l 1,30,-1
 320 256 l 1,31,-1
 320 320 l 1,28,-1
192 256 m 1,32,-1
 256 256 l 1,33,-1
 256 192 l 1,34,-1
 192 192 l 1,35,-1
 192 256 l 1,32,-1
256 256 m 1,36,-1
 320 256 l 1,37,-1
 320 192 l 1,38,-1
 256 192 l 1,39,-1
 256 256 l 1,36,-1
192 192 m 1,40,-1
 256 192 l 1,41,-1
 256 128 l 1,42,-1
 192 128 l 1,43,-1
 192 192 l 1,40,-1
256 192 m 1,44,-1
 320 192 l 1,45,-1
 320 128 l 1,46,-1
 256 128 l 1,47,-1
 256 192 l 1,44,-1
192 128 m 1,48,-1
 256 128 l 1,49,-1
 256 64 l 1,50,-1
 192 64 l 1,51,-1
 192 128 l 1,48,-1
256 128 m 1,52,-1
 320 128 l 1,53,-1
 320 64 l 1,54,-1
 256 64 l 1,55,-1
 256 128 l 1,52,-1
192 64 m 1,56,-1
 256 64 l 1,57,-1
 256 0 l 1,58,-1
 192 0 l 1,59,-1
 192 64 l 1,56,-1
256 64 m 1,60,-1
 320 64 l 1,61,-1
 320 0 l 1,62,-1
 256 0 l 1,63,-1
 256 64 l 1,60,-1
EndSplineSet
Validated: 5
EndChar

StartChar: braceright
Encoding: 125 125 95
Width: 512
GlyphClass: 1
Flags: W
LayerCount: 2
Fore
SplineSet
192 512 m 1,0,-1
 256 512 l 1,1,-1
 256 448 l 1,2,-1
 192 448 l 1,3,-1
 192 512 l 1,0,-1
256 512 m 1,4,-1
 320 512 l 1,5,-1
 320 448 l 1,6,-1
 256 448 l 1,7,-1
 256 512 l 1,4,-1
320 512 m 1,8,-1
 384 512 l 1,9,-1
 384 448 l 1,10,-1
 320 448 l 1,11,-1
 320 512 l 1,8,-1
320 448 m 1,12,-1
 384 448 l 1,13,-1
 384 384 l 1,14,-1
 320 384 l 1,15,-1
 320 448 l 1,12,-1
384 448 m 1,16,-1
 448 448 l 1,17,-1
 448 384 l 1,18,-1
 384 384 l 1,19,-1
 384 448 l 1,16,-1
320 384 m 1,20,-1
 384 384 l 1,21,-1
 384 320 l 1,22,-1
 320 320 l 1,23,-1
 320 384 l 1,20,-1
384 384 m 1,24,-1
 448 384 l 1,25,-1
 448 320 l 1,26,-1
 384 320 l 1,27,-1
 384 384 l 1,24,-1
256 320 m 1,28,-1
 320 320 l 1,29,-1
 320 256 l 1,30,-1
 256 256 l 1,31,-1
 256 320 l 1,28,-1
320 320 m 1,32,-1
 384 320 l 1,33,-1
 384 256 l 1,34,-1
 320 256 l 1,35,-1
 320 320 l 1,32,-1
256 256 m 1,36,-1
 320 256 l 1,37,-1
 320 192 l 1,38,-1
 256 192 l 1,39,-1
 256 256 l 1,36,-1
320 256 m 1,40,-1
 384 256 l 1,41,-1
 384 192 l 1,42,-1
 320 192 l 1,43,-1
 320 256 l 1,40,-1
384 256 m 1,44,-1
 448 256 l 1,45,-1
 448 192 l 1,46,-1
 384 192 l 1,47,-1
 384 256 l 1,44,-1
192 192 m 1,48,-1
 256 192 l 1,49,-1
 256 128 l 1,50,-1
 192 128 l 1,51,-1
 192 192 l 1,48,-1
256 192 m 1,52,-1
 320 192 l 1,53,-1
 320 128 l 1,54,-1
 256 128 l 1,55,-1
 256 192 l 1,52,-1
256 128 m 1,56,-1
 320 128 l 1,57,-1
 320 64 l 1,58,-1
 256 64 l 1,59,-1
 256 128 l 1,56,-1
320 128 m 1,60,-1
 384 128 l 1,61,-1
 384 64 l 1,62,-1
 320 64 l 1,63,-1
 320 128 l 1,60,-1
256 64 m 1,64,-1
 320 64 l 1,65,-1
 320 0 l 1,66,-1
 256 0 l 1,67,-1
 256 64 l 1,64,-1
320 64 m 1,68,-1
 384 64 l 1,69,-1
 384 0 l 1,70,-1
 320 0 l 1,71,-1
 320 64 l 1,68,-1
128 0 m 1,72,-1
 192 0 l 1,73,-1
 192 -64 l 1,74,-1
 128 -64 l 1,75,-1
 128 0 l 1,72,-1
192 0 m 1,76,-1
 256 0 l 1,77,-1
 256 -64 l 1,78,-1
 192 -64 l 1,79,-1
 192 0 l 1,76,-1
256 0 m 1,80,-1
 320 0 l 1,81,-1
 320 -64 l 1,82,-1
 256 -64 l 1,83,-1
 256 0 l 1,80,-1
EndSplineSet
Validated: 5
EndChar

StartChar: asciitilde
Encoding: 126 126 96
Width: 512
GlyphClass: 1
Flags: W
LayerCount: 2
Fore
SplineSet
128 256 m 1,0,-1
 192 256 l 1,1,-1
 192 192 l 1,2,-1
 128 192 l 1,3,-1
 128 256 l 1,0,-1
192 256 m 1,4,-1
 256 256 l 1,5,-1
 256 192 l 1,6,-1
 192 192 l 1,7,-1
 192 256 l 1,4,-1
256 256 m 1,8,-1
 320 256 l 1,9,-1
 320 192 l 1,10,-1
 256 192 l 1,11,-1
 256 256 l 1,8,-1
384 256 m 1,12,-1
 448 256 l 1,13,-1
 448 192 l 1,14,-1
 384 192 l 1,15,-1
 384 256 l 1,12,-1
64 192 m 1,16,-1
 128 192 l 1,17,-1
 128 128 l 1,18,-1
 64 128 l 1,19,-1
 64 192 l 1,16,-1
192 192 m 1,20,-1
 256 192 l 1,21,-1
 256 128 l 1,22,-1
 192 128 l 1,23,-1
 192 192 l 1,20,-1
256 192 m 1,24,-1
 320 192 l 1,25,-1
 320 128 l 1,26,-1
 256 128 l 1,27,-1
 256 192 l 1,24,-1
320 192 m 1,28,-1
 384 192 l 1,29,-1
 384 128 l 1,30,-1
 320 128 l 1,31,-1
 320 192 l 1,28,-1
EndSplineSet
Validated: 5
EndChar

StartChar: exclamdown
Encoding: 161 161 97
Width: 512
GlyphClass: 1
Flags: W
LayerCount: 2
Fore
SplineSet
256 384 m 1,0,-1
 320 384 l 1,1,-1
 320 320 l 1,2,-1
 256 320 l 1,3,-1
 256 384 l 1,0,-1
320 384 m 1,4,-1
 384 384 l 1,5,-1
 384 320 l 1,6,-1
 320 320 l 1,7,-1
 320 384 l 1,4,-1
192 256 m 1,8,-1
 256 256 l 1,9,-1
 256 192 l 1,10,-1
 192 192 l 1,11,-1
 192 256 l 1,8,-1
256 256 m 1,12,-1
 320 256 l 1,13,-1
 320 192 l 1,14,-1
 256 192 l 1,15,-1
 256 256 l 1,12,-1
192 192 m 1,16,-1
 256 192 l 1,17,-1
 256 128 l 1,18,-1
 192 128 l 1,19,-1
 192 192 l 1,16,-1
256 192 m 1,20,-1
 320 192 l 1,21,-1
 320 128 l 1,22,-1
 256 128 l 1,23,-1
 256 192 l 1,20,-1
192 128 m 1,24,-1
 256 128 l 1,25,-1
 256 64 l 1,26,-1
 192 64 l 1,27,-1
 192 128 l 1,24,-1
256 128 m 1,28,-1
 320 128 l 1,29,-1
 320 64 l 1,30,-1
 256 64 l 1,31,-1
 256 128 l 1,28,-1
192 64 m 1,32,-1
 256 64 l 1,33,-1
 256 0 l 1,34,-1
 192 0 l 1,35,-1
 192 64 l 1,32,-1
256 64 m 1,36,-1
 320 64 l 1,37,-1
 320 0 l 1,38,-1
 256 0 l 1,39,-1
 256 64 l 1,36,-1
128 0 m 1,40,-1
 192 0 l 1,41,-1
 192 -64 l 1,42,-1
 128 -64 l 1,43,-1
 128 0 l 1,40,-1
192 0 m 1,44,-1
 256 0 l 1,45,-1
 256 -64 l 1,46,-1
 192 -64 l 1,47,-1
 192 0 l 1,44,-1
128 -64 m 1,48,-1
 192 -64 l 1,49,-1
 192 -128 l 1,50,-1
 128 -128 l 1,51,-1
 128 -64 l 1,48,-1
192 -64 m 1,52,-1
 256 -64 l 1,53,-1
 256 -128 l 1,54,-1
 192 -128 l 1,55,-1
 192 -64 l 1,52,-1
EndSplineSet
Validated: 5
EndChar

StartChar: cent
Encoding: 162 162 98
Width: 512
GlyphClass: 1
Flags: W
LayerCount: 2
Fore
SplineSet
320 448 m 1,0,-1
 384 448 l 1,1,-1
 384 384 l 1,2,-1
 320 384 l 1,3,-1
 320 448 l 1,0,-1
192 384 m 1,4,-1
 256 384 l 1,5,-1
 256 320 l 1,6,-1
 192 320 l 1,7,-1
 192 384 l 1,4,-1
256 384 m 1,8,-1
 320 384 l 1,9,-1
 320 320 l 1,10,-1
 256 320 l 1,11,-1
 256 384 l 1,8,-1
320 384 m 1,12,-1
 384 384 l 1,13,-1
 384 320 l 1,14,-1
 320 320 l 1,15,-1
 320 384 l 1,12,-1
384 384 m 1,16,-1
 448 384 l 1,17,-1
 448 320 l 1,18,-1
 384 320 l 1,19,-1
 384 384 l 1,16,-1
448 384 m 1,20,-1
 512 384 l 1,21,-1
 512 320 l 1,22,-1
 448 320 l 1,23,-1
 448 384 l 1,20,-1
128 320 m 1,24,-1
 192 320 l 1,25,-1
 192 256 l 1,26,-1
 128 256 l 1,27,-1
 128 320 l 1,24,-1
192 320 m 1,28,-1
 256 320 l 1,29,-1
 256 256 l 1,30,-1
 192 256 l 1,31,-1
 192 320 l 1,28,-1
320 320 m 1,32,-1
 384 320 l 1,33,-1
 384 256 l 1,34,-1
 320 256 l 1,35,-1
 320 320 l 1,32,-1
128 256 m 1,36,-1
 192 256 l 1,37,-1
 192 192 l 1,38,-1
 128 192 l 1,39,-1
 128 256 l 1,36,-1
192 256 m 1,40,-1
 256 256 l 1,41,-1
 256 192 l 1,42,-1
 192 192 l 1,43,-1
 192 256 l 1,40,-1
320 256 m 1,44,-1
 384 256 l 1,45,-1
 384 192 l 1,46,-1
 320 192 l 1,47,-1
 320 256 l 1,44,-1
64 192 m 1,48,-1
 128 192 l 1,49,-1
 128 128 l 1,50,-1
 64 128 l 1,51,-1
 64 192 l 1,48,-1
128 192 m 1,52,-1
 192 192 l 1,53,-1
 192 128 l 1,54,-1
 128 128 l 1,55,-1
 128 192 l 1,52,-1
256 192 m 1,56,-1
 320 192 l 1,57,-1
 320 128 l 1,58,-1
 256 128 l 1,59,-1
 256 192 l 1,56,-1
64 128 m 1,60,-1
 128 128 l 1,61,-1
 128 64 l 1,62,-1
 64 64 l 1,63,-1
 64 128 l 1,60,-1
128 128 m 1,64,-1
 192 128 l 1,65,-1
 192 64 l 1,66,-1
 128 64 l 1,67,-1
 128 128 l 1,64,-1
256 128 m 1,68,-1
 320 128 l 1,69,-1
 320 64 l 1,70,-1
 256 64 l 1,71,-1
 256 128 l 1,68,-1
128 64 m 1,72,-1
 192 64 l 1,73,-1
 192 0 l 1,74,-1
 128 0 l 1,75,-1
 128 64 l 1,72,-1
192 64 m 1,76,-1
 256 64 l 1,77,-1
 256 0 l 1,78,-1
 192 0 l 1,79,-1
 192 64 l 1,76,-1
256 64 m 1,80,-1
 320 64 l 1,81,-1
 320 0 l 1,82,-1
 256 0 l 1,83,-1
 256 64 l 1,80,-1
320 64 m 1,84,-1
 384 64 l 1,85,-1
 384 0 l 1,86,-1
 320 0 l 1,87,-1
 320 64 l 1,84,-1
384 64 m 1,88,-1
 448 64 l 1,89,-1
 448 0 l 1,90,-1
 384 0 l 1,91,-1
 384 64 l 1,88,-1
192 0 m 1,92,-1
 256 0 l 1,93,-1
 256 -64 l 1,94,-1
 192 -64 l 1,95,-1
 192 0 l 1,92,-1
EndSplineSet
Validated: 5
EndChar

